<svg xmlns="http://www.w3.org/2000/svg" width="475" height="451" fill-rule="evenodd"><path d="M238.258 450.35c-36.028 0-74.71-10.334-109.41-29.486-30.908-16.97-54.137-38.398-62.954-57.455-19.815-7.3-38.21-21.522-49.3-38.303a103.57 103.57 0 0 1-16.118-44.94c-2.56-24.46 6.163-38.303 13.937-45.7 8.06-7.68 19.057-12.04 31.856-12.6C48.922 200.43 55 179.666 64.47 160.23c10.524-21.9 24.556-42 41.527-59.35 36.312-37.45 82.77-60.015 130.744-63.523 10.524-.758 20.763-1.138 30.34-1.138 17.92-.095 35.838 1.517 53.473 4.55 5.5.948 9.48 1.517 12.136 1.517h.758c-2.56-2.75-5.31-5.404-8.25-7.87-8.533-7.585-17.255-15.454-17.35-24.556-.095-4.077 2.086-7.68 5.973-9.102 1.327-.474 3.224-.664 4.646-.664 12.99 0 39.726 16.78 55 34.7 15.55 18.298 13.748 31.098 9.48 38.588-1.517 2.94-3.698 5.5-6.352 7.585-3.982 3.034-9.102 4.93-15.74 5.783-2.655.284-5.404.474-8.06.474-1.422 0-2.844 0-4.266-.095 13.748 8.723 26.262 19.247 37.26 31.382 24.84 27.6 39.062 62.196 42.38 102.964 12.325.57 22.944 4.74 30.908 12.04s16.78 20.953 14.696 45.414c-1.517 16.023-6.826 31.572-15.36 45.225-11.472 17.92-31.382 33.278-52.24 40.484-9.67 19.34-31.95 40.2-60.205 56.128-32.14 18.204-67.6 28.538-101.352 29.486-1.896.095-6.352.095-6.352.095z" fill="#fff"/><g fill="#010101"><path d="M223.942 141.362v5.404h5.5v-1.707h5.5v4.36h5.5v-2.56h5.5v10.998h-5.5v5.5h5.5v5.5h-16.592v-5.5h-5.5v5.5h-5.5v-5.5h-5.5v5.5h-22.09v-5.5h-5.5v5.5h-5.5v-5.5h-5.5v-5.5h5.5v5.5h5.5v-5.5h5.5v5.5h5.5v-5.5h-5.5v-5.404h-11.093v-5.5h11.093v-16.592h5.5v-4.36c1.896.284 3.698.664 5.5 1.138v3.224h5.5v5.5h-5.5v-5.5h-5.5v16.402h11.093v5.5h-5.5v5.5h16.592v-16.497h5.404v-3.318l3.508 2.655.948.758h-4.36zm-83.054 16.497v11.093h-5.5v-5.5h-6.542v5.5h-5.594v-.095l3.792-5.404 1.8-2.37.948-1.327c.474-.664 1.043-1.233 1.517-1.896h9.576zm5.5-10.998v10.998h-5.5v-5.5h-4.835l4.835-4.93.57-.57h4.93zm0 10.998h11.093v11.093h-11.093V157.86zm22.186-29.296v1.707h-3.887c1.327-.664 2.56-1.233 3.887-1.707zm22.09-3.318v4.93h-5.5v5.594h-5.5v-5.5h-5.5v-3.508c1.8-.474 3.698-.948 5.5-1.138 1.8-.284 3.698-.474 5.5-.474h.38c1.8-.095 3.508 0 5.12.095zm44.182 38.114v-12.8h-5.5v12.8h5.5zm-16.497-29.202v7.11h-5.5v5.5h-5.5v-10.998h5.5v-4.646l5.5 3.034zm-44.276 1.612h5.5v11.093h-5.5v10.998h-5.5v5.594h5.5v5.5h-5.5v-5.5h-5.5V152.36h-10.998v-5.5h5.5v-5.5h-5.5v-3.413a35.19 35.19 0 0 1 3.034-2.181h2.465v-1.612l5.5-3.13v4.74h5.5v-5.5h5.5v5.5zm-5.5 11.093v-5.594h-5.5v5.594h5.5zm38.683-18.11l3.698 1.517h-3.698v-1.517zM103.817 314.58h-5.404v-6.163c1.896-1.327 3.792-2.37 5.5-3.413.948-.57 1.896-1.043 2.844-1.517l.38-.2 2.275-1.233v7.016h-5.5v5.5h5.404v5.5h5.5v5.5h5.5v5.5h-5.5v5.5h-5.5v5.5h-5.5v5.5h-5.5v11.282h22.09v10.998h-5.5v-5.5h-5.5v5.5h5.5v5.5h-5.5v5.5h-5.5v-5.5h-5.5v6.92l-1.517-1.422-3.982-3.982c-.57-.474-1.043-1.043-1.517-1.612h1.517v-27.6h-5.5v-5.5h-5.5v-5.5h22.09v-5.5h5.5v-5.5h-5.5v5.5H92.82v-5.5h5.5v-5.594h5.5v-5.5zm287.465 31.572v-5.404h5.5v5.5h.758c-.095 1.422-.38 2.75-.758 4.172v-4.172h-5.5v5.404l5.12.095c-.474 1.517-1.043 2.94-1.707 4.36-.2.38-.38.758-.474 1.138-.853 1.896-1.896 3.698-2.94 5.5l-3.698 5.5h-1.8v-22.09h5.5zm-10.903-21.996v5.5H369.38v-5.5h-5.5v5.5h5.5v5.5h21.9v5.5h-5.5v5.5h-5.5v27.685h2.94l-2.94 3.318-2.086 2.275c-1.043 1.138-2.275 2.275-3.413 3.318v-8.912h-5.5v5.5h-5.5v-5.5h-5.5v-5.5h5.5v-5.5h-5.5v5.5h-5.594v-11.093h22.09v-11.093h-5.5v-5.5h-5.5v-5.5h-5.404v-5.5h-5.5v-5.5h5.5v-5.5h-5.5v-16.592h5.5v16.592h5.5v-5.5h5.5v5.5h5.5v5.5h5.31v-5.5h5.5v-5.5c1.707 1.707 3.224 3.603 4.55 5.5.284.474.57.853.948 1.327.853 1.327 1.707 2.75 2.37 4.172.2.474.474.948.758 1.517l1.517 4.077-4.55-.095v-5.5H380.38zM253.902 163.453v-5.69h-5.5v-5.5h5.5v-5.5h-5.5v-5.5h5.594v-5.5h.664l4.835-2.94v13.937h5.5v-5.5h5.5v5.594h5.5v10.998h-5.5v-5.5H259.4v5.5h11.093v5.594h-16.592zm27.685-38.02v10.334h-5.5v-9.29c1.8-.474 3.603-.758 5.5-1.043zm-11.093 4.835v5.5h-5.5v-5.69c1.707-.758 3.603-1.517 5.5-2.086v2.275zm0 5.5h5.5v5.5h-5.5v-5.5zm5.594 27.685v-5.594h10.998v11.093h-10.998v-5.5zm27.6-35.46c1.896.664 3.698 1.422 5.5 2.275h-5.5v-2.275zm11.093 5.215v2.56h-5.5v-5.5l5.5 2.94zm30.245 27.874c.57.758 1.138 1.517 1.517 2.465h-4.36v5.5h-22.09v-5.5h-5.5v5.5h-5.5v-5.5h-5.5v5.5h-5.5v-5.5h-5.5v-11.093h-5.5v-11.093h-5.5v-5.5h5.69V125.15h1.233c1.422 0 2.844.095 4.266.284 1.8.2 3.698.474 5.5.948v3.982h-5.5v5.5h5.5v-5.5h5.5v5.5h5.5v11.093h-5.5v10.998h-5.5v5.5h5.5v-5.5h5.5v5.5h5.5v-5.5h5.5v5.5h5.5v-5.5h-5.5v-5.5H309.27v-5.5h11.093v-10.05l5.5 4.172v5.878h6.542l4.456 4.55v.948h-5.5v5.5h11.188l2.465 3.13zM292.68 146.86v-.095h5.5v-5.5h-5.5v5.594zm55.274 22.09v-3.887l2.655 3.887h-2.655zM151.98 141.267v5.594h-5.5v-4.55l1.233-1.043h4.266zm200.524 105.43h5.5v5.5h-5.5v-5.5zm0 11.093h5.5v5.5h-5.5v-5.5zm5.5-76.417v4.36h-5.5v-13.937l1.8 2.94 3.13 5.5.57 1.138zm5.594 26.547v5.5h-11.093V202.42h5.5v5.5h5.594zm0-5.5h-5.5v-5.5h-5.5v-5.5h5.5v-5.594h2.275l2.56 5.5c.284.57.474 1.233.758 1.8v3.698h1.422c.758 1.8 1.327 3.698 1.99 5.5s1.233 3.698 1.707 5.5h-5.215v-5.404zm0 10.998h5.5v5.5h-5.5v-5.5zm4.36 60.963c-.474 1.043-.948 1.896-1.422 2.75 0 .095-.095.095-.095.2-.2.284-.284.57-.474.853s-.2.38-.38.57c-.284.38-.474.758-.758 1.138 0 0 0 .095-.095.095-.38.57-.758 1.043-1.138 1.517l-.853 1.043c-.758.948-1.422 1.896-2.086 2.94h-2.56v5.5h.853v.2c0 1.99.758 3.887 2.086 5.31H352.6V279.88h5.5v-5.5h-5.5v-5.5h11.093v5.5h4.266zm-4.36-11.093h5.5v5.5h-5.5v-5.5zm5.594-54.232l1.138 4.456h-1.138v-4.456zm0 32.14l-.095 5.5h4.55l-.38 5.5-.664 5.5h-3.508v5.5h-5.5v-16.592h-5.5v-5.5h-5.5v-22.09h5.5v5.69h14.41l.664 5.5.474 5.5c.2 1.8.2 3.698.2 5.5h-4.646zm-5.594-5.5v-5.5h-5.5v5.5h5.5zm5.594 35.933v-2.844h1.043l-1.043 2.844zm-5.594 118.797v1.8l-2.844 2.18-1.99 1.517-.664.474-1.043.758-1.8 1.327-2.655 1.8v-9.86h10.998zm0-5.5l8.723-.095-3.224 2.844-3.224 2.75h-2.275v-5.5zm11.093-80.4v8.533h-5.5v-5.5h-5.5v-8.912l4.55 2.465 1.043.474.853.38c.664.284 1.327.664 1.99 1.043.095.095.284.095.38.2l.2.095c.57.38 1.233.853 1.99 1.233zm-11.093 36.123v5.594h-5.594v5.5h-5.5v-16.592h5.5v5.5h5.594zm-11.093 38.777h11.093v5.5h-11.093v-5.5zm11.093-33.184h5.5v5.5h-5.5v-5.5zm22.186-33.184h-5.5v-4.835c1.896 1.422 3.792 3.034 5.5 4.835zM120.41 173.313v14.032h-5.5v-4.266c.2-.474.474-.853.664-1.327l2.37-4.36.095-.095.57-1.043.284-.474 1.517-2.465zm-5.5 47.216v-.095h5.31v22.09h-5.5v5.5h-5.5v22.09h-4.93l-.57-1.8v-9.29h-2.275l-.758-5.5-.474-5.5h3.508v-5.5h-3.698v-1.327l.095-4.172.38-5.5.664-5.5H114.9v-5.5zm0 16.687v-5.5h-5.5v5.5h5.5zm0 10.998h5.5v5.5h-5.5v-5.5zm0 11.093h5.5v5.5h-5.5v-5.5zm-11.093-44.37h5.5v5.5h-5.5v-5.5zm11.093-16.497v5.5h5.5v11.093H109.41v-5.5h5.5v-5.5h-5.5v5.5h-4.74l1.612-5.5 1.896-5.5h1.233v-3.13c.284-.853.664-1.612.948-2.37l2.465-5.5h2.086v5.5h5.5v5.5h-5.5v-.095zm0 77.46v5.5h5.5v16.592h-5.5v-.664a7.04 7.04 0 0 0 1.043-4.172v-.758c-.095-1.233-.474-2.465-1.043-3.508l-1.138-1.99-1.138-1.707c-.095-.095-.2-.284-.284-.38s0 0 0 0c-.758-.948-1.517-2.086-2.37-3.413-.2-.284-.38-.57-.474-.853l-2.655-4.74h2.655v-5.5h10.903v5.5h-5.5v.095zm-11.188-63.618v2.75h-.474l.474-2.75zm11.188 96.8v-5.594h5.5v16.592h-5.5v-10.998zm0 82.864h5.594v5.5h-2.94c-.948-.57-1.8-1.233-2.655-1.8l-5.025-3.698h5.025zm-11.093-44.182h5.5v5.5h-5.5v-5.5zm11.093-11.093h5.5v16.497h-5.5v-5.5h-5.5v-5.5h5.5v-5.5zm-5.5 44.276h10.998v5.5H109.41v-5.5zm163.453 41.717v-16.592h-5.5v-5.5h11.093v5.5h5.5v5.5h-5.5v5.594h11.093v-11.093h-5.5v-5.5h16.592v5.5h-5.5v5.5h5.5v-5.5h5.5v5.5h5.5v-5.5h5.5v5.5h5.404v5.5h-5.5v2.37l-5.5 2.275-2.37.948c-1.043.474-2.18.853-3.224 1.233l-5.5 1.99-5.5 1.8-1.896.57-3.698 1.043-5.5 1.422-5.5 1.327-5.5 1.138v-5.025h-5.404v-5.5h5.404zm.095 0v5.5h5.404v-5.5h-5.404zm-49.775 0v-5.5h5.5v-5.594h-10.998v5.594h-5.5v-11.093h5.5v-5.5h5.5v5.5h5.5v-5.5h5.594v5.5h10.998v5.5h-5.5v5.594h-5.5v5.5h-10.808v5.5h-5.5v5.5h5.5v-5.5h5.5v5.5l5.31.095v2.844c-1.8 0-3.698-.095-5.5-.2l-5.5-.38-5.5-.57-5.5-.758v-6.542h-5.5v5.594l-.38-.095-5.12-.948-5.5-1.138v-8.912h27.4zM109.41 386.447v5.12l-6.542-5.12h6.542zM92.82 312.685v1.896h-2.18l2.18-1.896zm0 7.395v5.5H81.916c1.138-1.896 2.37-3.792 3.698-5.5l1.612-1.99v1.99h5.594zm-11.093 11.093v5.404H77.46c.38-1.896.948-3.698 1.707-5.5l1.422-3.034 1.138-2.086v5.215zm5.594 16.592v22.09h-.758l-4.077-5.5c-.2-.38-.474-.664-.664-1.043-.948-1.422-1.8-2.94-2.56-4.456l-1.517-3.413-.758-2.086h4.74v-5.5h5.594v-.095zm-5.594-5.5v5.5h-5.5v-1.612c0-1.327.095-2.655.284-3.887h5.215zm42 59.35v-1.043h5.5v4.456l-5.5-3.413zm44.182 4.456l.095 11.282h5.5v5.5h-5.5v.57l-1.99-.57-3.603-1.422v-4.172h-9.765l-1.327-.57-5.5-2.655v-2.37h-4.646l-.853-.474v-5.12h-5.594v-5.5h38.683v5.5h-5.5zm-5.5 5.5v-5.5h-11.093v5.5H162.4zm10.998 0v-5.5h5.594v11.093h-5.594v-5.594zm27.685-10.998v10.998h-5.5v11.093h-5.5v7.585l-5.5-1.517v-.2l-1.99-.38-3.508-1.043v-4.456h5.5v-22.09h5.5v5.5h5.5v-5.5h5.5zm0 10.998h5.5v5.5h-5.5v-5.5zm44.182-10.998h5.5v5.5h-5.5v-5.5zm11.093 10.998h-5.5v-5.5h5.5v-5.5h5.5v10.998h-5.5zm-11.093 0h5.5v5.5h-5.5v-5.5zm16.592 11.093v5.5h-5.5v5.5h-5.5v-5.5h-5.5v8.25l-1.896.095-3.698.095v-2.844h-5.5v-5.5h5.5V417.26h5.5v5.5h5.5v-5.5h5.5v5.5h5.594v-.095zm0-11.093h5.5v11.093h-5.5v-11.093zm5.594 16.592v5.973l-5.5.853-5.5.664v-1.896h5.5v-5.594h5.5zm33.184-5.5v-5.5h-5.5v5.5h5.5zm5.5-22.09h5.5v5.5h-5.5v-5.5zm10.998 0h5.5v5.5h-5.5v-5.5zm33.184 0v1.138l-5.5 3.508-1.422.853-4.077 2.37-.2.095-5.31 2.94v.095h-5.5V400.48h5.5v5.5h5.5v-5.5l10.998.095z"/><path d="M70.538 327.72l1.136-2.688c-14.39-28.076-22.182-57.763-22.088-83.646a147.19 147.19 0 0 1 .384-10.606l-.574.082c-11.756 0-21.617 3.508-28.633 10.145C9.386 251.722 8.438 267.65 9.576 279.122c1.612 14.6 6.637 28.538 14.696 40.863 9.837 14.755 25.712 27.246 43.203 34.083-.428-1.913-.676-3.87-.728-5.83-.08-7.053 1.166-14.04 3.792-20.517zm-1.213 32.056c-19.742-6.758-37.928-20.617-49.036-37.233-8.25-12.894-13.558-27.6-15.264-42.854-2.275-22.565 5.5-35.27 12.515-41.906 8.096-7.736 19.434-11.63 32.802-11.443 2.014-21.65 8.112-43.2 18.206-64.215 10.334-21.427 24.082-41.148 40.674-58.12 35.554-36.786 80.873-58.782 127.804-62.3 43.044-3.13 67.98.948 82.77 3.413 11.472 1.896 16.213 2.56 19.247-.57.284-.284.474-.57.474-.948-.095-2.844-6.257-8.343-11.188-12.705-7.774-6.92-15.74-14.032-15.833-21.143-.095-2.18 1.233-4.172 3.224-4.93 9.102-3.413 38.493 14.41 54.232 32.9 10.903 12.894 14.032 24.366 9.007 33.278-1.233 2.37-3.034 4.55-5.12 6.163-3.318 2.56-7.774 4.172-13.463 4.835-8.628 1.138-20.384.095-34.9-2.94 22.85 11.377 41.906 25.504 56.98 42.285 25.013 27.813 39 63.068 41.602 104.68 12.93-.23 24.01 3.56 31.97 10.894 7.11 6.542 15.17 19.057 13.273 41.717-1.517 15.36-6.447 30.055-14.6 43.14-11.34 17.806-31.203 32.834-51.988 39.313-8.734 19.002-30.764 39.83-59.13 55.972-31.477 17.824-65.893 27.97-98.982 28.917-3.034.095-6.068 0-6.068 0-35.27 0-73.288-10.24-107.515-29.107-30.72-16.942-54.22-38.73-61.702-57.104zm6.64-33.364c-3.175 6.727-4.756 14.134-4.573 21.54.095 3.034.664 6.068 1.8 8.912 6.637 17.35 30.15 39.25 60.015 55.75 35.175 19.436 74.426 29.486 110.36 28.443 69.022-1.99 138.992-45.604 155.584-83.244 2.18-4.74 3.413-9.765 3.508-14.98a47.58 47.58 0 0 0-2.391-15.588c-.416-1.236-.884-2.456-1.4-3.658-.05-.114-.1-.23-.122-.343-7.034-15.35-19.467-22.297-26.998-26.07l-1.228-.61-.544-.272c-3.95-1.975-6.188-3.117-6.188-5.512 0-1.99 1.138-3.508 2.844-5.69 4.172-5.31 11.756-15.17 11.946-43.234v-.853c0-28.253-10.903-58.593-29.676-83.15-10.938-14.317-23.536-25.14-36.145-31.467-8.202-4.087-16.406-6.268-24.155-6.268-21.332 0-36.028 10.903-43.802 16.78-3.508 2.56-5.215 3.887-6.92 3.887-.8 0-1.585-.23-2.452-.676-1.337-.648-2.86-1.83-4.943-3.495-7.585-5.69-21.427-16.402-44.94-16.402-3.634 0-7.364.48-11.146 1.4-16.63 4.222-34.227 17.135-48.964 36.324-18.867 24.65-29.77 55-29.676 83.15v.664c.2 27.78 8.912 39.915 13.084 45.7 1.707 2.275 2.75 3.887 2.75 5.5 0 2.37-2.275 3.603-6.447 5.783-7.11 3.887-20.48 11.093-28.443 26.83a5.29 5.29 0 0 1-.736.834zm79.582-201.81c10.098-5.736 20.344-8.838 29.996-8.838 25.03 0 39.726 11.377 47.595 17.54 1.327 1.138 2.844 2.18 4.36 3.13 1.517-.853 2.844-1.896 4.266-2.94 8.25-6.163 23.703-17.635 46.552-17.635 21.143 0 45.13 14.8 64.092 39.726 19.436 25.41 30.624 56.79 30.624 85.993v1.138c-.2 29.58-8.817 40.674-12.99 45.983-.54.72-1.078 1.437-1.617 2.236.79.483 2.334 1.297 3.703 1.935 7.233 3.573 20.074 10.03 28.508 24.893 12.19-25.652 18.802-52.525 18.897-75.996 0-4.36-.095-8.723-.284-12.894-2.18-41.432-15.833-76.322-40.484-103.817-21.9-24.366-52.62-43.044-91.208-55.654-1.233-.474-1.8-1.8-1.327-2.94.38-1.138 1.612-1.707 2.75-1.422 32.425 10.05 56.128 14.41 70.73 12.6 10.998-1.422 13.653-5.973 15.17-8.723 5.12-8.912-1.8-20.195-8.533-28.064C349.66 21.332 322.545 7.3 317.236 9.29c-.2.095-.284.095-.284.57 0 5.025 7.964 12.136 14.316 17.73 6.732 5.973 12.515 11.188 12.705 16.023.095 1.612-.57 3.224-1.707 4.36-4.835 4.93-11.377 3.792-23.323 1.896-17.16-3.224-34.606-4.74-52.05-4.646-8.723 0-18.583.284-29.58 1.138-45.793 3.413-90.07 24.935-124.865 60.773-16.307 16.687-29.77 35.933-39.82 56.98-10.04 21.02-16.088 42.596-17.957 64.087a2.01 2.01 0 0 1 .038.574v.095c-.38 4.172-.474 8.343-.57 12.515-.1 24.23 7.062 51.997 20.14 78.53 8.72-14.364 21.207-21.08 28.212-24.867 1.422-.758 3.034-1.612 3.792-2.18-.38-.664-1.043-1.612-1.707-2.465-4.456-6.163-13.748-19.057-13.937-48.258v-.664c0-29.202 11.188-60.49 30.624-85.993 10.384-13.535 22.232-24.087 34.285-30.887zm247.933 198.19c2.613 6.405 3.918 13.365 3.824 20.23 0 4.172-.758 8.25-2.086 12.136 18.298-6.732 35.46-20.29 45.604-36.028 7.774-12.42 12.515-26.452 13.842-41.053.948-11.472-.284-27.4-11.85-37.924-7.07-6.505-16.86-9.822-28.527-9.674.15 3.567.274 7.173.274 10.716-.094 25.288-7.552 54.212-21.08 81.595z" fill-rule="nonzero"/></g><path d="M119.935 167.814h234.182v234.182H119.935z" fill="#fff"/></svg>