<?xml version="1.0" encoding="UTF-8"?>
<svg width="475px" height="451px" viewBox="0 0 475 451" version="1.1" xmlns="http://www.w3.org/2000/svg" xmlns:xlink="http://www.w3.org/1999/xlink">
    <!-- Generator: Sketch 52.1 (67048) - http://www.bohemiancoding.com/sketch -->
    <title>monkeyQR</title>
    <desc>Created with Sketch.</desc>
    <g id="Page-1" stroke="none" stroke-width="1" fill="none" fill-rule="evenodd">
        <g id="Artboard" transform="translate(0.000000, -12.000000)">
            <g id="monkeyQR" transform="translate(0.000000, 12.000000)">
                <path d="M238.258483,450.349301 C202.230539,450.349301 163.547904,440.01497 128.847305,420.863273 C97.9391218,403.892216 74.7105788,382.46507 65.8932136,363.408184 C46.0778443,356.107784 27.6846307,341.886228 16.5918164,325.10479 C7.7744511,311.546906 2.2754491,296.187625 0.474051896,280.164671 C-2.08582834,255.703593 6.63672655,241.861277 14.4111776,234.466068 C22.4700599,226.786427 33.4680639,222.42515 46.2674651,221.856287 C48.9221557,200.429142 54.99002,179.665669 64.4710579,160.229541 C74.99501,138.328343 89.0269461,118.228543 105.998004,100.878244 C142.310379,63.4281437 188.767465,40.8632735 236.741517,37.3552894 C247.265469,36.5968064 257.50499,36.2175649 267.080838,36.2175649 C285,36.1227545 302.919162,37.7345309 320.553892,40.7684631 C326.052894,41.7165669 330.03493,42.2854291 332.689621,42.2854291 C332.974052,42.2854291 333.258483,42.2854291 333.448104,42.2854291 C330.888224,39.5359281 328.138723,36.8812375 325.199601,34.4161677 C316.666667,26.8313373 307.944112,18.9620758 307.849301,9.86027944 C307.754491,5.78343313 309.93513,2.18063872 313.822355,0.758483034 C315.149701,0.284431138 317.045908,0.0948103792 318.468064,0.0948103792 C331.457086,0.0948103792 358.193613,16.8762475 373.458084,34.7954092 C389.006986,53.0938124 387.205589,65.8932136 382.939122,73.3832335 C381.422156,76.3223553 379.241517,78.8822355 376.586826,80.9680639 C372.60479,84.001996 367.48503,85.8982036 360.848303,86.751497 C358.193613,87.0359281 355.444112,87.2255489 352.789421,87.2255489 C351.367265,87.2255489 349.94511,87.2255489 348.522954,87.1307385 C362.270459,95.8532934 374.785429,106.377246 385.783433,118.512974 C410.623752,146.102794 424.845309,180.708583 428.163673,221.477046 C440.489022,222.045908 451.107784,226.217565 459.071856,233.517964 C467.035928,240.818363 475.853293,254.471058 473.767465,278.932136 C472.250499,294.95509 466.941118,310.503992 458.408184,324.156687 C446.936128,342.075848 427.025948,357.43513 406.167665,364.640719 C396.497006,383.982036 374.216567,404.840319 345.963074,420.768463 C313.822355,438.972056 278.363273,449.306387 244.610778,450.254491 C242.714571,450.349301 238.258483,450.349301 238.258483,450.349301 Z" id="Fill-1" fill="#FFFFFF"></path>
                <path d="M223.942116,141.362275 L223.942116,146.766467 L229.441118,146.766467 L229.441118,145.05988 L234.94012,145.05988 L234.94012,149.421158 L240.439122,149.421158 L240.439122,146.861277 L245.938124,146.861277 L245.938124,157.859281 L240.439122,157.859281 L240.439122,163.358283 L245.938124,163.358283 L245.938124,168.857285 L229.346307,168.857285 L229.346307,163.358283 L223.847305,163.358283 L223.847305,168.857285 L218.348303,168.857285 L218.348303,163.358283 L212.849301,163.358283 L212.849301,168.857285 L190.758483,168.857285 L190.758483,163.358283 L185.259481,163.358283 L185.259481,168.857285 L179.760479,168.857285 L179.760479,163.358283 L174.261477,163.358283 L174.261477,157.859281 L179.760479,157.859281 L179.760479,163.358283 L185.259481,163.358283 L185.259481,157.859281 L190.758483,157.859281 L190.758483,163.358283 L196.257485,163.358283 L196.257485,157.859281 L190.758483,157.859281 L190.758483,152.45509 L179.665669,152.45509 L179.665669,146.956088 L190.758483,146.956088 L190.758483,130.364271 L196.257485,130.364271 L196.257485,126.002994 C198.153693,126.287425 199.95509,126.666667 201.756487,127.140719 L201.756487,130.364271 L207.255489,130.364271 L207.255489,135.863273 L201.756487,135.863273 L201.756487,130.364271 L196.257485,130.364271 L196.257485,146.766467 L207.350299,146.766467 L207.350299,152.265469 L201.851297,152.265469 L201.851297,157.764471 L218.443114,157.764471 L218.443114,141.267465 L223.847305,141.267465 L223.847305,137.949102 C225.07984,138.897206 226.312375,139.750499 227.355289,140.603792 L228.303393,141.362275 L223.942116,141.362275 Z M140.888224,157.859281 L140.888224,168.952096 L135.389222,168.952096 L135.389222,163.453094 L128.847305,163.453094 L128.847305,168.952096 L123.253493,168.952096 L123.253493,168.857285 C124.486028,167.055888 125.718563,165.254491 127.045908,163.453094 C127.61477,162.694611 128.183633,161.841317 128.847305,161.082834 L129.795409,159.755489 C130.269461,159.091816 130.838323,158.522954 131.312375,157.859281 L140.888224,157.859281 Z M146.387226,146.861277 L146.387226,157.859281 L140.888224,157.859281 L140.888224,152.360279 L136.052894,152.360279 C137.664671,150.653693 139.276447,148.947106 140.888224,147.43014 L141.457086,146.861277 L146.387226,146.861277 Z M146.387226,157.859281 L157.48004,157.859281 L157.48004,168.952096 L146.387226,168.952096 L146.387226,157.859281 Z M168.572854,128.562874 L168.572854,130.269461 L164.685629,130.269461 C166.012974,129.605788 167.245509,129.036926 168.572854,128.562874 Z M190.663673,125.244511 L190.663673,130.174651 L185.164671,130.174651 L185.164671,135.768463 L179.665669,135.768463 L179.665669,130.269461 L174.166667,130.269461 L174.166667,126.761477 C175.968064,126.287425 177.864271,125.813373 179.665669,125.623752 C181.467066,125.339321 183.363273,125.149701 185.164671,125.149701 L185.543912,125.149701 C187.345309,125.05489 189.051896,125.149701 190.663673,125.244511 Z M234.845309,163.358283 L234.845309,150.558882 L229.346307,150.558882 L229.346307,163.358283 L234.845309,163.358283 Z M218.348303,134.156687 L218.348303,141.267465 L212.849301,141.267465 L212.849301,146.766467 L207.350299,146.766467 L207.350299,135.768463 L212.849301,135.768463 L212.849301,131.122754 C214.745509,132.070858 216.641717,133.113772 218.348303,134.156687 Z M174.071856,135.768463 L179.570858,135.768463 L179.570858,146.861277 L174.071856,146.861277 L174.071856,157.859281 L168.572854,157.859281 L168.572854,163.453094 L174.071856,163.453094 L174.071856,168.952096 L168.572854,168.952096 L168.572854,163.453094 L163.073852,163.453094 L163.073852,152.360279 L152.075848,152.360279 L152.075848,146.861277 L157.57485,146.861277 L157.57485,141.362275 L152.075848,141.362275 L152.075848,137.949102 C153.023952,137.190619 154.066866,136.432136 155.10978,135.768463 L157.57485,135.768463 L157.57485,134.156687 C159.376248,133.018962 161.272455,131.976048 163.073852,131.027944 L163.073852,135.768463 L168.572854,135.768463 L168.572854,130.269461 L174.071856,130.269461 L174.071856,135.768463 Z M168.572854,146.861277 L168.572854,141.267465 L163.073852,141.267465 L163.073852,146.861277 L168.572854,146.861277 Z M207.255489,128.752495 C208.582834,129.226547 209.720559,129.700599 210.953094,130.269461 L207.255489,130.269461 L207.255489,128.752495 Z M103.817365,314.580838 L98.4131737,314.580838 L98.4131737,308.418164 C100.309381,307.090818 102.205589,306.047904 103.912176,305.00499 C104.860279,304.436128 105.808383,303.962076 106.756487,303.488024 L107.135729,303.298403 C107.894212,302.919162 108.652695,302.44511 109.411178,302.065868 L109.411178,309.081836 L103.912176,309.081836 L103.912176,314.580838 L109.316367,314.580838 L109.316367,320.07984 L114.815369,320.07984 L114.815369,325.578842 L120.314371,325.578842 L120.314371,331.077844 L114.815369,331.077844 L114.815369,336.576846 L109.316367,336.576846 L109.316367,342.075848 L103.817365,342.075848 L103.817365,347.57485 L98.3183633,347.57485 L98.3183633,358.857285 L120.409182,358.857285 L120.409182,369.855289 L114.91018,369.855289 L114.91018,364.356287 L109.411178,364.356287 L109.411178,369.855289 L114.91018,369.855289 L114.91018,375.354291 L109.411178,375.354291 L109.411178,380.853293 L103.912176,380.853293 L103.912176,375.354291 L98.4131737,375.354291 L98.4131737,382.275449 C97.9391218,381.801397 97.3702595,381.327345 96.8962076,380.853293 C95.4740519,379.525948 94.1467066,378.198603 92.9141717,376.871257 C92.3453094,376.397206 91.8712575,375.828343 91.3972056,375.259481 L92.9141717,375.259481 L92.9141717,347.669661 L87.4151697,347.669661 L87.4151697,342.170659 L81.9161677,342.170659 L81.9161677,336.671657 L104.006986,336.671657 L104.006986,331.172655 L109.505988,331.172655 L109.505988,325.673653 L104.006986,325.673653 L104.006986,331.172655 L92.8193613,331.172655 L92.8193613,325.673653 L98.3183633,325.673653 L98.3183633,320.07984 L103.817365,320.07984 L103.817365,314.580838 Z M391.282435,346.152695 L391.282435,340.748503 L396.781437,340.748503 L396.781437,346.247505 L397.53992,346.247505 C397.44511,347.669661 397.160679,348.997006 396.781437,350.419162 L396.781437,346.247505 L391.282435,346.247505 L391.282435,351.651697 L396.402196,351.746507 C395.928144,353.263473 395.359281,354.685629 394.695609,356.107784 C394.505988,356.487026 394.316367,356.866267 394.221557,357.245509 C393.368263,359.141717 392.325349,360.943114 391.282435,362.744511 C390.144711,364.545908 388.912176,366.442116 387.58483,368.243513 L385.783433,368.243513 L385.783433,346.152695 L391.282435,346.152695 Z M380.379242,324.156687 L380.379242,329.655689 L369.381238,329.655689 L369.381238,324.156687 L363.882236,324.156687 L363.882236,329.655689 L369.381238,329.655689 L369.381238,335.154691 L391.282435,335.154691 L391.282435,340.653693 L385.783433,340.653693 L385.783433,346.152695 L380.284431,346.152695 L380.284431,373.837325 L383.223553,373.837325 C382.275449,374.88024 381.327345,376.017964 380.284431,377.155689 C379.620758,377.914172 378.862275,378.672655 378.198603,379.431138 C377.155689,380.568862 375.923154,381.706587 374.785429,382.749501 L374.785429,373.837325 L369.286427,373.837325 L369.286427,379.336327 L363.787425,379.336327 L363.787425,373.837325 L358.288423,373.837325 L358.288423,368.338323 L363.787425,368.338323 L363.787425,362.839321 L358.288423,362.839321 L358.288423,368.338323 L352.694611,368.338323 L352.694611,357.245509 L374.785429,357.245509 L374.785429,346.152695 L369.286427,346.152695 L369.286427,340.653693 L363.787425,340.653693 L363.787425,335.154691 L358.383234,335.154691 L358.383234,329.655689 L352.884232,329.655689 L352.884232,324.156687 L358.383234,324.156687 L358.383234,318.657685 L352.884232,318.657685 L352.884232,302.065868 L358.383234,302.065868 L358.383234,318.657685 L363.882236,318.657685 L363.882236,313.158683 L369.381238,313.158683 L369.381238,318.657685 L374.88024,318.657685 L374.88024,324.156687 L380.189621,324.156687 L380.189621,318.657685 L385.688623,318.657685 L385.688623,313.158683 C387.39521,314.865269 388.912176,316.761477 390.239521,318.657685 C390.523952,319.131737 390.808383,319.510978 391.187625,319.98503 C392.040918,321.312375 392.894212,322.734531 393.557884,324.156687 C393.747505,324.630739 394.031936,325.10479 394.316367,325.673653 C394.88523,327.000998 395.454092,328.328343 395.833333,329.750499 L391.282435,329.655689 L391.282435,324.156687 L380.379242,324.156687 Z M253.902196,163.453094 L253.902196,157.764471 L248.403194,157.764471 L248.403194,152.265469 L253.902196,152.265469 L253.902196,146.766467 L248.403194,146.766467 L248.403194,141.267465 L253.997006,141.267465 L253.997006,135.768463 L254.660679,135.768463 C256.082834,134.820359 257.694611,133.777445 259.496008,132.829341 L259.496008,135.768463 L259.496008,141.267465 L259.496008,146.766467 L264.99501,146.766467 L264.99501,141.267465 L270.494012,141.267465 L270.494012,146.861277 L275.993014,146.861277 L275.993014,152.360279 L275.993014,157.859281 L270.494012,157.859281 L270.494012,152.360279 L259.401198,152.360279 L259.401198,157.859281 L270.494012,157.859281 L270.494012,163.453094 L253.902196,163.453094 Z M281.586826,125.434132 L281.586826,135.768463 L276.087824,135.768463 L276.087824,130.269461 L276.087824,126.477046 C277.889222,126.002994 279.690619,125.718563 281.586826,125.434132 Z M270.494012,130.269461 L270.494012,135.768463 L264.99501,135.768463 L264.99501,130.07984 C266.701597,129.321357 268.597804,128.562874 270.494012,127.994012 L270.494012,130.269461 Z M270.494012,135.768463 L275.993014,135.768463 L275.993014,141.267465 L270.494012,141.267465 L270.494012,135.768463 Z M276.087824,163.453094 L276.087824,157.859281 L281.586826,157.859281 L287.085828,157.859281 L287.085828,163.453094 L287.085828,168.952096 L281.586826,168.952096 L276.087824,168.952096 L276.087824,163.453094 Z M303.677645,127.994012 C305.573852,128.657685 307.37525,129.416168 309.176647,130.269461 L303.677645,130.269461 L303.677645,127.994012 Z M314.770459,133.208583 L314.770459,135.768463 L309.271457,135.768463 L309.271457,130.269461 C311.072854,131.122754 312.969062,132.165669 314.770459,133.208583 Z M345.01497,161.082834 C345.583832,161.841317 346.152695,162.5998 346.531936,163.547904 L342.170659,163.547904 L342.170659,169.046906 L320.07984,169.046906 L320.07984,163.547904 L314.580838,163.547904 L314.580838,169.046906 L309.081836,169.046906 L309.081836,163.547904 L303.582834,163.547904 L303.582834,169.046906 L298.083832,169.046906 L298.083832,163.547904 L292.58483,163.547904 L292.58483,152.45509 L287.085828,152.45509 L287.085828,141.362275 L281.586826,141.362275 L281.586826,135.863273 L287.275449,135.863273 L287.275449,125.149701 L288.507984,125.149701 C289.93014,125.149701 291.352295,125.244511 292.774451,125.434132 C294.575848,125.623752 296.472056,125.908184 298.273453,126.382236 L298.273453,130.364271 L292.774451,130.364271 L292.774451,135.863273 L298.273453,135.863273 L298.273453,130.364271 L303.772455,130.364271 L303.772455,135.863273 L309.271457,135.863273 L309.271457,146.956088 L303.772455,146.956088 L303.772455,157.954092 L298.273453,157.954092 L298.273453,163.453094 L303.772455,163.453094 L303.772455,157.954092 L309.271457,157.954092 L309.271457,163.453094 L314.770459,163.453094 L314.770459,157.954092 L320.269461,157.954092 L320.269461,163.453094 L325.768463,163.453094 L325.768463,157.954092 L320.269461,157.954092 L320.269461,152.45509 L309.271457,152.45509 L309.271457,146.956088 L320.364271,146.956088 L320.364271,141.457086 L320.364271,136.906188 C322.165669,138.138723 324.061876,139.560878 325.863273,141.077844 L325.863273,146.956088 L332.40519,146.956088 C333.922156,148.378244 335.344311,149.89521 336.861277,151.506986 L336.861277,152.45509 L331.362275,152.45509 L331.362275,157.954092 L342.5499,157.954092 C343.403194,158.997006 344.161677,160.03992 345.01497,161.082834 Z M292.679641,146.861277 L292.679641,146.766467 L298.178643,146.766467 L298.178643,141.267465 L292.679641,141.267465 L292.679641,146.861277 Z M347.954092,168.952096 L347.954092,165.06487 C348.807385,166.297405 349.755489,167.62475 350.608782,168.952096 L347.954092,168.952096 Z M151.981038,141.267465 L151.981038,146.861277 L146.482036,146.861277 L146.482036,142.310379 L147.714571,141.267465 L151.981038,141.267465 Z M352.50499,246.696607 L358.003992,246.696607 L358.003992,252.195609 L352.50499,252.195609 L352.50499,246.696607 Z M352.50499,257.789421 L358.003992,257.789421 L358.003992,263.288423 L352.50499,263.288423 L352.50499,257.789421 Z M358.003992,181.372255 L358.003992,185.733533 L352.50499,185.733533 L352.50499,171.796407 C353.073852,172.744511 353.737525,173.787425 354.306387,174.735529 C355.444112,176.536926 356.487026,178.433134 357.43513,180.234531 L358.003992,181.372255 Z M363.597804,207.919162 L363.597804,213.418164 L352.50499,213.418164 L352.50499,202.42016 L358.003992,202.42016 L358.003992,207.919162 L363.597804,207.919162 Z M363.597804,202.42016 L358.098802,202.42016 L358.098802,196.921158 L352.5998,196.921158 L352.5998,191.422156 L358.098802,191.422156 L358.098802,185.828343 L360.374251,185.828343 C361.227545,187.629741 362.080838,189.525948 362.934132,191.327345 C363.218563,191.896208 363.408184,192.55988 363.692615,193.128743 L363.692615,196.826347 L365.11477,196.826347 C365.873253,198.627745 366.442116,200.523952 367.105788,202.325349 C367.769461,204.126747 368.338323,206.022954 368.812375,207.824351 L363.597804,207.824351 L363.597804,202.42016 Z M363.597804,213.418164 L369.096806,213.418164 L369.096806,218.917166 L363.597804,218.917166 L363.597804,213.418164 Z M367.959082,274.381238 C367.48503,275.424152 367.010978,276.277445 366.536926,277.130739 C366.536926,277.225549 366.442116,277.225549 366.442116,277.320359 C366.252495,277.60479 366.157685,277.889222 365.968064,278.173653 C365.778443,278.458084 365.778443,278.552894 365.588822,278.742515 C365.304391,279.121756 365.11477,279.500998 364.830339,279.88024 C364.830339,279.88024 364.830339,279.97505 364.735529,279.97505 C364.356287,280.543912 363.977046,281.017964 363.597804,281.492016 C363.218563,281.966068 363.028942,282.250499 362.744511,282.53493 C361.986028,283.483034 361.322355,284.431138 360.658683,285.474052 L358.098802,285.474052 L358.098802,290.973054 L358.952096,290.973054 L358.952096,291.162675 C358.952096,293.153693 359.710579,295.0499 361.037924,296.472056 L352.5998,296.472056 L352.5998,279.88024 L358.098802,279.88024 L358.098802,274.381238 L352.5998,274.381238 L352.5998,268.882236 L363.692615,268.882236 L363.692615,274.381238 L367.959082,274.381238 Z M363.597804,263.288423 L369.096806,263.288423 L369.096806,268.787425 L363.597804,268.787425 L363.597804,263.288423 Z M369.191617,209.056886 C369.570858,210.479042 369.9501,211.996008 370.329341,213.512974 L369.191617,213.512974 L369.191617,209.056886 Z M369.191617,241.197605 L369.096806,246.696607 L373.647705,246.696607 C373.552894,248.592814 373.458084,250.489022 373.268463,252.195609 C373.078842,254.186627 372.889222,255.988024 372.60479,257.694611 L369.096806,257.694611 L369.096806,263.193613 L363.597804,263.193613 L363.597804,246.601796 L358.098802,246.601796 L358.098802,241.102794 L352.5998,241.102794 L352.5998,219.011976 L358.098802,219.011976 L358.098802,224.700599 L372.50998,224.700599 C372.794411,226.501996 372.984032,228.398204 373.173653,230.199601 C373.363273,232.000998 373.458084,233.897206 373.647705,235.698603 C373.837325,237.5 373.837325,239.396208 373.837325,241.197605 L369.191617,241.197605 Z M363.597804,235.698603 L363.597804,230.199601 L358.098802,230.199601 L358.098802,235.698603 L363.597804,235.698603 Z M369.191617,271.631737 L369.191617,268.787425 L370.234531,268.787425 C369.855289,269.830339 369.570858,270.778443 369.191617,271.631737 Z M363.597804,390.429142 L363.597804,392.230539 C362.649701,392.989022 361.701597,393.747505 360.753493,394.411178 L358.762475,395.928144 L358.098802,396.402196 C357.719561,396.686627 357.43513,396.876248 357.055888,397.160679 L355.254491,398.488024 C354.401198,399.056886 353.453094,399.720559 352.5998,400.289421 L352.5998,390.429142 L363.597804,390.429142 Z M363.597804,384.93014 L372.320359,384.835329 C371.277445,385.783433 370.139721,386.731537 369.096806,387.679641 C368.053892,388.627745 367.010978,389.481038 365.873253,390.429142 L363.597804,390.429142 L363.597804,384.93014 Z M374.690619,304.530938 L374.690619,313.063872 L369.191617,313.063872 L369.191617,307.56487 L363.692615,307.56487 L363.692615,298.652695 C365.11477,299.505988 366.631737,300.359281 368.243513,301.117764 L369.286427,301.591816 L370.139721,301.971058 C370.803393,302.255489 371.467066,302.634731 372.130739,303.013972 C372.225549,303.108782 372.41517,303.108782 372.50998,303.203593 L372.699601,303.298403 C373.268463,303.677645 373.932136,304.151697 374.690619,304.530938 Z M363.597804,340.653693 L363.597804,346.247505 L358.003992,346.247505 L358.003992,351.746507 L352.50499,351.746507 L352.50499,335.154691 L358.003992,335.154691 L358.003992,340.653693 L363.597804,340.653693 Z M352.50499,379.431138 L363.597804,379.431138 L363.597804,384.93014 L352.50499,384.93014 L352.50499,379.431138 Z M363.597804,346.247505 L369.096806,346.247505 L369.096806,351.746507 L363.597804,351.746507 L363.597804,346.247505 Z M385.783433,313.063872 L380.284431,313.063872 L380.284431,308.228543 C382.180639,309.650699 384.076846,311.262475 385.783433,313.063872 Z M120.409182,173.313373 L120.409182,187.345309 L114.91018,187.345309 L114.91018,183.078842 C115.0998,182.60479 115.384232,182.225549 115.573852,181.751497 C116.332335,180.234531 117.185629,178.812375 117.944112,177.39022 L118.038922,177.295409 C118.228543,176.916168 118.418164,176.631737 118.607784,176.252495 L118.892216,175.778443 C119.461078,174.92515 119.93513,174.071856 120.409182,173.313373 Z M114.91018,220.528942 L114.91018,220.434132 L120.219561,220.434132 L120.219561,242.52495 L114.720559,242.52495 L114.720559,248.023952 L109.221557,248.023952 L109.221557,270.11477 L104.291417,270.11477 C104.101796,269.451098 103.912176,268.882236 103.722555,268.313373 L103.722555,259.021956 L101.447106,259.021956 C101.162675,257.315369 100.878244,255.513972 100.688623,253.522954 C100.499002,251.816367 100.309381,250.01497 100.214571,248.023952 L103.722555,248.023952 L103.722555,242.52495 L100.02495,242.52495 C100.02495,242.240519 100.02495,241.956088 100.02495,241.766467 L100.02495,241.197605 C100.02495,239.870259 100.02495,238.448104 100.11976,237.025948 C100.214571,235.224551 100.309381,233.423154 100.499002,231.526946 C100.688623,229.725549 100.878244,227.924152 101.162675,226.027944 L114.91018,226.027944 L114.91018,220.528942 Z M114.91018,237.215569 L114.91018,231.716567 L109.411178,231.716567 L109.411178,237.215569 L114.91018,237.215569 Z M114.91018,248.213573 L120.409182,248.213573 L120.409182,253.712575 L114.91018,253.712575 L114.91018,248.213573 Z M114.91018,259.306387 L120.409182,259.306387 L120.409182,264.805389 L114.91018,264.805389 L114.91018,259.306387 Z M103.817365,214.93513 L109.316367,214.93513 L109.316367,220.434132 L103.817365,220.434132 L103.817365,214.93513 Z M114.91018,198.438124 L114.91018,203.937126 L120.409182,203.937126 L120.409182,215.02994 L109.411178,215.02994 L109.411178,209.530938 L114.91018,209.530938 L114.91018,204.031936 L109.411178,204.031936 L109.411178,209.530938 L104.670659,209.530938 C105.144711,207.729541 105.713573,205.833333 106.282435,204.031936 C106.851297,202.230539 107.51497,200.334331 108.178643,198.532934 L109.411178,198.532934 L109.411178,195.404192 C109.695609,194.550898 110.07485,193.792415 110.359281,193.033932 C111.117764,191.137725 111.971058,189.336327 112.824351,187.53493 L114.91018,187.53493 L114.91018,193.033932 L120.409182,193.033932 L120.409182,198.532934 L114.91018,198.532934 L114.91018,198.438124 Z M114.91018,275.898204 L114.91018,281.397206 L120.409182,281.397206 L120.409182,297.989022 L114.91018,297.989022 L114.91018,297.325349 C115.668663,296.092814 116.047904,294.670659 115.953094,293.153693 C115.953094,292.869261 115.953094,292.679641 115.953094,292.39521 C115.858283,291.162675 115.479042,289.93014 114.91018,288.887226 C114.530938,288.223553 114.151697,287.55988 113.772455,286.896208 C113.393214,286.327345 113.013972,285.758483 112.634731,285.189621 C112.53992,285.09481 112.44511,284.90519 112.350299,284.810379 C112.255489,284.715569 112.350299,284.810379 112.350299,284.810379 C111.591816,283.862275 110.833333,282.724551 109.98004,281.397206 C109.790419,281.112774 109.600798,280.828343 109.505988,280.543912 C108.557884,279.026946 107.704591,277.41517 106.851297,275.803393 L109.505988,275.803393 L109.505988,270.304391 L120.409182,270.304391 L120.409182,275.803393 L114.91018,275.803393 L114.91018,275.898204 Z M103.722555,212.280439 L103.722555,215.02994 L103.248503,215.02994 C103.438124,214.081836 103.532934,213.228543 103.722555,212.280439 Z M114.91018,309.081836 L114.91018,303.488024 L120.409182,303.488024 L120.409182,309.081836 L120.409182,314.580838 L120.409182,320.07984 L114.91018,320.07984 L114.91018,314.580838 L114.91018,309.081836 Z M114.91018,391.946108 L120.503992,391.946108 L120.503992,397.44511 L117.56487,397.44511 C116.616766,396.876248 115.763473,396.212575 114.91018,395.643713 C113.203593,394.411178 111.497006,393.178643 109.88523,391.946108 L114.91018,391.946108 Z M103.817365,347.764471 L109.316367,347.764471 L109.316367,353.263473 L103.817365,353.263473 L103.817365,347.764471 Z M114.91018,336.671657 L120.409182,336.671657 L120.409182,353.168663 L114.91018,353.168663 L114.91018,347.669661 L109.411178,347.669661 L109.411178,342.170659 L114.91018,342.170659 L114.91018,336.671657 Z M109.411178,380.948104 L120.409182,380.948104 L120.409182,386.447106 L109.411178,386.447106 L109.411178,380.948104 Z M272.864271,422.664671 L272.864271,406.072854 L267.365269,406.072854 L267.365269,400.573852 L278.458084,400.573852 L278.458084,406.072854 L283.957086,406.072854 L283.957086,411.571856 L278.458084,411.571856 L278.458084,417.165669 L289.550898,417.165669 L289.550898,406.072854 L284.051896,406.072854 L284.051896,400.573852 L300.643713,400.573852 L300.643713,406.072854 L295.144711,406.072854 L295.144711,411.571856 L300.643713,411.571856 L300.643713,406.072854 L306.142715,406.072854 L306.142715,411.571856 L311.641717,411.571856 L311.641717,406.072854 L317.140719,406.072854 L317.140719,411.571856 L322.54491,411.571856 L322.54491,417.070858 L317.045908,417.070858 L317.045908,419.441118 C315.244511,420.199601 313.443114,420.958084 311.546906,421.716567 C310.693613,422.095808 309.93513,422.38024 309.176647,422.664671 C308.133733,423.138723 306.996008,423.517964 305.953094,423.897206 C304.151697,424.560878 302.255489,425.224551 300.454092,425.888224 C298.652695,426.551896 296.851297,427.120758 294.95509,427.689621 L293.058882,428.258483 C291.826347,428.637725 290.593812,428.922156 289.361277,429.301397 C287.55988,429.775449 285.663673,430.249501 283.862275,430.723553 C282.060878,431.197605 280.164671,431.671657 278.363273,432.050898 C276.561876,432.43014 274.760479,432.809381 272.864271,433.188623 L272.864271,428.163673 L267.46008,428.163673 L267.46008,422.664671 L272.864271,422.664671 Z M272.959082,422.664671 L272.959082,428.163673 L278.363273,428.163673 L278.363273,422.664671 L272.959082,422.664671 Z M223.183633,422.664671 L223.183633,417.165669 L228.682635,417.165669 L228.682635,411.571856 L217.684631,411.571856 L217.684631,417.165669 L212.185629,417.165669 L212.185629,406.072854 L217.684631,406.072854 L217.684631,400.573852 L223.183633,400.573852 L223.183633,406.072854 L228.682635,406.072854 L228.682635,400.573852 L234.276447,400.573852 L234.276447,406.072854 L245.274451,406.072854 L245.274451,411.571856 L239.775449,411.571856 L239.775449,417.165669 L234.276447,417.165669 L234.276447,422.664671 L223.468064,422.664671 L223.468064,428.163673 L217.969062,428.163673 L217.969062,433.662675 L223.468064,433.662675 L223.468064,428.163673 L228.967066,428.163673 L228.967066,433.662675 L234.276447,433.757485 L234.276447,436.601796 C232.47505,436.601796 230.578842,436.506986 228.777445,436.412176 C226.976048,436.317365 225.07984,436.222555 223.278443,436.032934 C221.477046,435.843313 219.580838,435.653693 217.779441,435.464072 C215.978044,435.274451 214.081836,434.99002 212.280439,434.705589 L212.280439,428.163673 L206.781437,428.163673 L206.781437,433.757485 L206.402196,433.662675 C204.695609,433.378244 202.989022,433.093812 201.282435,432.714571 C199.575848,432.335329 197.58483,431.956088 195.783433,431.576846 L195.783433,428.163673 L195.783433,422.664671 L223.183633,422.664671 Z M109.411178,386.447106 L109.411178,391.566866 C107.51497,390.144711 103.153693,386.636727 102.869261,386.447106 L109.411178,386.447106 Z M92.8193613,312.684631 L92.8193613,314.580838 L90.6387226,314.580838 C91.3972056,313.917166 92.0608782,313.253493 92.8193613,312.684631 Z M92.8193613,320.07984 L92.8193613,325.578842 L81.9161677,325.578842 C83.0538922,323.682635 84.2864271,321.786427 85.6137725,320.07984 C86.1826347,319.416168 86.6566866,318.752495 87.2255489,318.088822 L87.2255489,320.07984 L92.8193613,320.07984 Z M81.7265469,331.172655 L81.7265469,336.576846 L77.4600798,336.576846 C77.8393214,334.680639 78.4081836,332.879242 79.1666667,331.077844 C79.6407186,330.03493 80.1147705,328.992016 80.5888224,328.043912 C80.9680639,327.38024 81.3473054,326.621756 81.7265469,325.958084 L81.7265469,331.172655 Z M87.3203593,347.764471 L87.3203593,369.855289 L86.5618762,369.855289 C85.0449102,367.959082 83.7175649,366.157685 82.4850299,364.356287 C82.2954092,363.977046 82.010978,363.692615 81.8213573,363.313373 C80.8732535,361.891218 80.0199601,360.374251 79.261477,358.857285 C78.6926148,357.719561 78.2185629,356.581836 77.744511,355.444112 C77.4600798,354.685629 77.2704591,354.021956 76.9860279,353.358283 L81.7265469,353.358283 L81.7265469,347.859281 L87.3203593,347.859281 L87.3203593,347.764471 Z M81.7265469,342.265469 L81.7265469,347.764471 L76.2275449,347.764471 L76.2275449,346.152695 C76.2275449,344.825349 76.3223553,343.498004 76.511976,342.265469 L81.7265469,342.265469 Z M123.727545,401.616766 L123.727545,400.573852 L129.226547,400.573852 L129.226547,405.02994 C127.42515,403.892216 125.528942,402.754491 123.727545,401.616766 Z M167.909182,406.072854 L168.003992,417.355289 L173.502994,417.355289 L173.502994,422.854291 L168.003992,422.854291 L168.003992,423.423154 C167.340319,423.233533 166.676647,423.043912 166.012974,422.854291 L162.41018,421.432136 L162.41018,417.260479 L152.644711,417.260479 C152.170659,417.070858 151.696607,416.881238 151.317365,416.691617 C149.515968,415.838323 147.61976,414.89022 145.818363,414.036926 L145.818363,411.666667 L141.172655,411.666667 L140.319361,411.192615 L140.319361,406.072854 L134.725549,406.072854 L134.725549,400.573852 L173.408184,400.573852 L173.408184,406.072854 L167.909182,406.072854 Z M162.41018,411.571856 L162.41018,406.072854 L151.317365,406.072854 L151.317365,411.571856 L162.41018,411.571856 Z M173.408184,411.571856 L173.408184,406.072854 L179.001996,406.072854 L179.001996,411.571856 L179.001996,417.165669 L173.408184,417.165669 L173.408184,411.571856 Z M201.092814,400.573852 L201.092814,411.571856 L195.593812,411.571856 L195.593812,422.664671 L190.09481,422.664671 L190.09481,428.163673 L190.09481,430.249501 C188.198603,429.775449 186.397206,429.301397 184.595808,428.732535 L184.595808,428.542914 C183.932136,428.448104 183.268463,428.258483 182.60479,428.163673 C181.467066,427.784431 180.234531,427.5 179.096806,427.120758 L179.096806,422.664671 L184.595808,422.664671 L184.595808,400.573852 L190.09481,400.573852 L190.09481,406.072854 L195.593812,406.072854 L195.593812,400.573852 L201.092814,400.573852 Z M201.092814,411.571856 L206.591816,411.571856 L206.591816,417.070858 L201.092814,417.070858 L201.092814,411.571856 Z M245.274451,400.573852 L250.773453,400.573852 L250.773453,406.072854 L245.274451,406.072854 L245.274451,400.573852 Z M256.367265,411.571856 L250.868263,411.571856 L250.868263,406.072854 L256.367265,406.072854 L256.367265,400.573852 L261.866267,400.573852 L261.866267,406.072854 L261.866267,411.571856 L256.367265,411.571856 Z M245.274451,411.571856 L250.773453,411.571856 L250.773453,417.070858 L245.274451,417.070858 L245.274451,411.571856 Z M261.866267,422.664671 L261.866267,428.163673 L256.367265,428.163673 L256.367265,433.662675 L250.868263,433.662675 L250.868263,428.163673 L245.369261,428.163673 L245.369261,436.412176 L243.473054,436.506986 C242.240519,436.506986 241.007984,436.601796 239.775449,436.601796 L239.775449,433.757485 L234.276447,433.757485 L234.276447,428.258483 L239.775449,428.258483 L239.775449,417.260479 L245.274451,417.260479 L245.274451,422.759481 L250.773453,422.759481 L250.773453,417.260479 L256.272455,417.260479 L256.272455,422.759481 L261.866267,422.759481 L261.866267,422.664671 Z M261.866267,411.571856 L267.365269,411.571856 L267.365269,422.664671 L261.866267,422.664671 L261.866267,411.571856 Z M267.46008,428.163673 L267.46008,434.136727 C265.658683,434.421158 263.762475,434.705589 261.961078,434.99002 C260.159681,435.274451 258.263473,435.464072 256.462076,435.653693 L256.462076,433.757485 L261.961078,433.757485 L261.961078,428.163673 L267.46008,428.163673 Z M300.643713,422.664671 L300.643713,417.165669 L295.144711,417.165669 L295.144711,422.664671 L300.643713,422.664671 Z M306.142715,400.573852 L311.641717,400.573852 L311.641717,406.072854 L306.142715,406.072854 L306.142715,400.573852 Z M317.140719,400.573852 L322.639721,400.573852 L322.639721,406.072854 L317.140719,406.072854 L317.140719,400.573852 Z M350.324351,400.573852 L350.324351,401.711577 C348.522954,402.944112 346.721557,404.081836 344.825349,405.219561 C344.351297,405.503992 343.877246,405.788423 343.403194,406.072854 C342.075848,406.926148 340.653693,407.684631 339.326347,408.443114 L339.136727,408.537924 C337.335329,409.486028 335.628743,410.528942 333.827345,411.477046 L333.827345,411.571856 L328.328343,411.571856 L328.328343,400.479042 L333.827345,400.479042 L333.827345,405.978044 L339.326347,405.978044 L339.326347,400.479042 L350.324351,400.573852 Z" id="Combined-Shape" fill="#010101"></path>
                <path d="M70.5383665,327.721379 C70.8924204,326.814857 71.2710733,325.918413 71.673976,325.033269 C57.282944,296.957002 49.4920483,267.270516 49.5858283,241.387226 C49.5858283,237.880867 49.7139026,234.310472 49.970051,230.781296 L49.3962076,230.863273 C37.6397206,230.863273 27.7794411,234.371257 20.7634731,241.007984 C9.38622754,251.721557 8.43812375,267.649701 9.5758483,279.121756 C11.1876248,293.722555 16.2125749,307.659681 24.2714571,319.98503 C34.1081812,334.740116 49.9838131,347.230612 67.4741243,354.067747 C67.0456555,352.155123 66.7980412,350.196823 66.746507,348.238523 C66.6672607,341.185601 67.9127592,334.198916 70.5383665,327.721379 Z M69.3255076,359.777454 C49.5831661,353.019546 31.3978305,339.16085 20.2894212,322.54491 C12.0409182,309.650699 6.73153693,294.95509 5.0249501,279.690619 C2.749501,257.125749 10.5239521,244.421158 17.5399202,237.784431 C25.6355897,230.048569 36.9742688,226.153113 50.3414219,226.340971 C52.3556801,204.689529 58.4531673,183.141155 68.5479042,162.125749 C78.8822355,140.698603 92.6297405,120.978044 109.221557,104.006986 C144.775449,67.2205589 190.09481,45.2245509 237.025948,41.7165669 C280.06986,38.5878244 305.00499,42.6646707 319.795409,45.1297405 C331.267465,47.0259481 336.007984,47.6896208 339.041916,44.5608782 C339.326347,44.2764471 339.515968,43.992016 339.515968,43.6127745 C339.421158,40.7684631 333.258483,35.2694611 328.328343,30.9081836 C320.553892,23.9870259 312.58982,16.8762475 312.49501,9.76546906 C312.4002,7.58483034 313.727545,5.59381238 315.718563,4.83532934 C324.820359,1.42215569 354.211577,19.246507 369.9501,37.7345309 C380.853293,50.6287425 383.982036,62.1007984 378.957086,71.0129741 C377.724551,73.3832335 375.923154,75.5638723 373.837325,77.1756487 C370.518962,79.7355289 366.062874,81.3473054 360.374251,82.010978 C351.746507,83.1487026 339.99002,82.1057884 325.484032,79.0718563 C348.333333,90.4491018 367.39022,104.575848 382.46507,121.357285 C407.478194,149.170386 421.465986,184.425585 424.066665,226.037534 C436.99646,225.806913 448.078011,229.597285 456.037924,236.931138 C463.148703,243.473054 471.207585,255.988024 469.311377,278.647705 C467.794411,294.006986 462.864271,308.702595 454.710579,321.786427 C443.370665,339.592904 423.507982,354.620216 402.722983,361.099346 C393.989166,380.101743 371.959295,400.928091 343.592814,417.070858 C312.115768,434.89521 277.699601,445.03992 244.610778,445.988024 C241.576846,446.082834 238.542914,445.988024 238.542914,445.988024 C203.273453,445.988024 165.254491,435.748503 131.027944,416.881238 C100.30813,399.938795 76.8090365,378.152072 69.3255076,359.777454 Z M75.9656096,326.412961 C72.7905022,333.139604 71.2093207,340.546848 71.3922156,347.954092 C71.4870259,350.988024 72.0558882,354.021956 73.1936128,356.866267 C79.8303393,374.216567 103.343313,396.117764 133.208583,412.61477 C168.383234,432.050898 207.634731,442.100798 243.567864,441.057884 C312.58982,439.066866 382.55988,395.454092 399.151697,357.814371 C401.332335,353.073852 402.56487,348.048902 402.659681,342.834331 C402.734577,337.516703 401.922001,332.25824 400.268691,327.245893 C399.852536,326.010372 399.385159,324.790077 398.867265,323.587824 C398.818205,323.47335 398.777607,323.358875 398.745471,323.2444 C391.711846,307.893491 379.278254,300.9471 371.747412,297.175818 C371.32092,296.962893 370.910791,296.760237 370.518962,296.566866 C370.334152,296.474461 370.152877,296.383917 369.975188,296.295036 C366.023796,294.319937 363.787425,293.177869 363.787425,290.783433 C363.787425,288.792415 364.92515,287.275449 366.631737,285.09481 C370.803393,279.785429 378.388224,269.92515 378.577844,241.861277 C378.577844,241.576846 378.577844,241.292415 378.577844,241.007984 C378.577844,212.754491 367.674651,182.41517 348.902196,157.859281 C337.964144,143.54246 325.365747,132.719283 312.757578,126.392631 C304.555127,122.306088 296.352043,120.12475 288.602794,120.12475 C267.270459,120.12475 252.57485,131.027944 244.800399,136.906188 C241.292415,139.466068 239.585828,140.793413 237.879242,140.793413 C237.079262,140.793413 236.294588,140.563822 235.426822,140.11694 C234.089433,139.468725 232.566878,138.288034 230.484032,136.621756 C222.899202,130.933134 209.056886,120.219561 185.543912,120.219561 C181.910119,120.219561 178.179753,120.69921 174.397894,121.630037 C157.767098,125.852021 140.171384,138.764962 125.434132,157.954092 C106.566866,182.60479 95.6636727,212.944112 95.758483,241.102794 C95.758483,241.292415 95.758483,241.576846 95.758483,241.766467 C95.9481038,269.545908 104.670659,281.681637 108.842315,287.46507 C110.548902,289.740519 111.591816,291.352295 111.591816,292.964072 C111.591816,295.334331 109.316367,296.566866 105.144711,298.747505 C98.0339321,302.634731 84.6656687,309.840319 76.7015968,325.578842 C76.4583525,325.913303 76.2151082,326.189258 75.9656096,326.412961 Z M155.547869,124.601777 C165.646197,118.865949 175.89147,115.763473 185.543912,115.763473 C210.573852,115.763473 225.269461,127.140719 233.138723,133.303393 C234.466068,134.441118 235.983034,135.484032 237.5,136.432136 C239.016966,135.578842 240.344311,134.535928 241.766467,133.493014 C250.01497,127.330339 265.469062,115.858283 288.318363,115.858283 C309.461078,115.858283 333.448104,130.648703 352.41018,155.583832 C371.846307,180.993014 383.033932,212.37525 383.033932,241.576846 L383.033932,242.145709 L383.033932,242.714571 C382.844311,272.295409 374.216567,283.388224 370.04491,288.697605 C369.506018,289.416128 368.967125,290.134652 368.428232,290.933776 C369.218771,291.416736 370.762511,292.230755 372.130739,292.869261 C379.364061,296.442348 392.204784,302.899241 400.638937,317.76235 C412.827935,292.109997 419.441286,265.237699 419.535928,241.766467 C419.535928,237.40519 419.441118,233.043912 419.251497,228.872255 C417.070858,187.44012 403.418164,152.5499 378.767465,125.05489 C356.866267,100.688623 326.147705,82.010978 287.55988,69.4011976 C286.327345,68.9271457 285.758483,67.5998004 286.232535,66.4620758 C286.611776,65.3243513 287.844311,64.755489 288.982036,65.0399202 C321.407186,75.0898204 345.10978,79.4510978 359.710579,77.6497006 C370.708583,76.2275449 373.363273,71.6766467 374.88024,68.9271457 C380,60.0149701 373.078842,48.7325349 366.347305,40.8632735 C349.660679,21.3323353 322.54491,7.3003992 317.235529,9.29141717 C317.045908,9.38622754 316.951098,9.38622754 316.951098,9.86027944 C316.951098,14.8852295 324.91517,21.996008 331.267465,27.5898204 C337.999002,33.5628743 343.782435,38.7774451 343.972056,43.6127745 C344.066866,45.2245509 343.403194,46.8363273 342.265469,47.9740519 C337.43014,52.9041916 330.888224,51.7664671 318.942116,49.8702595 C301.781437,46.6467066 284.336327,45.1297405 266.891218,45.2245509 C258.168663,45.2245509 248.308383,45.508982 237.310379,46.3622754 C191.516966,49.7754491 147.240519,71.2974052 112.44511,107.135729 C96.1377246,123.822355 82.6746507,143.068862 72.6247505,164.116766 C62.5841903,185.136257 56.5371964,206.71299 54.6676093,228.203523 C54.7068036,228.387905 54.7207578,228.580248 54.7055888,228.777445 C54.7055888,228.777445 54.7055888,228.777445 54.7055888,228.872255 C54.3263473,233.043912 54.2315369,237.215569 54.1367265,241.387226 C54.0463121,265.618295 61.1985725,293.38448 74.2779146,319.916755 C82.9986291,305.552581 95.485141,298.836321 102.49002,295.0499 C103.912176,294.291417 105.523952,293.438124 106.282435,292.869261 C105.903194,292.205589 105.239521,291.257485 104.575848,290.404192 C100.11976,284.241517 90.8283433,271.347305 90.6387226,242.145709 L90.6387226,241.482036 C90.6387226,212.280439 101.826347,180.993014 121.262475,155.489022 C131.646404,141.953751 143.494124,131.40236 155.547869,124.601777 Z M403.481012,322.793066 C406.093798,329.197993 407.399448,336.15763 407.305389,343.023952 C407.305389,347.195609 406.546906,351.272455 405.219561,355.159681 C423.517964,348.428144 440.678643,334.870259 450.823353,319.131737 C458.597804,306.711577 463.338323,292.679641 464.665669,278.078842 C465.613772,266.606786 464.381238,250.678643 452.814371,240.154691 C445.743999,233.649948 435.955284,230.332228 424.287057,230.481139 C424.435704,234.04808 424.560878,237.654136 424.560878,241.197605 C424.466869,266.486025 417.008923,295.409807 403.481012,322.793066 Z" id="Combined-Shape" fill="#010101" fill-rule="nonzero"></path>
                <rect id="Rectangle" fill="#FFFFFF" x="119.93513" y="167.814371" width="234.181637" height="234.181637"></rect>
            </g>
        </g>
    </g>
</svg>