<svg xmlns="http://www.w3.org/2000/svg" width="476" height="451" fill-rule="evenodd"><path d="M238.7 451c-36.1 0-74.86-10.35-109.63-29.53-31-17-54.24-38.47-63.08-57.55-19.85-7.32-38.28-21.56-49.4-38.37a103.63 103.63 0 0 1-16.15-45c-2.57-24.5 6.17-38.36 14-45.77 8.08-7.7 19.1-12.06 31.92-12.62a195.45 195.45 0 0 1 18.2-61.76 223.23 223.23 0 0 1 41.61-59.4c36.38-37.5 82.93-60.1 131-63.63 10.54-.75 20.8-1.14 30.4-1.14a307.31 307.31 0 0 1 53.58 4.56 82.32 82.32 0 0 0 12.16 1.52h.76a93.65 93.65 0 0 0-8.27-7.88c-8.55-7.6-17.3-15.48-17.38-24.6a9.15 9.15 0 0 1 6-9.11 15.19 15.19 0 0 1 4.64-.72c13 0 39.8 16.8 55.1 34.76 15.6 18.33 13.78 31.15 9.5 38.65a23.32 23.32 0 0 1-6.36 7.6c-4 3-9.12 4.93-15.77 5.8a78.17 78.17 0 0 1-8.08.47c-1.42 0-2.85 0-4.27-.1a182.06 182.06 0 0 1 37.33 31.43c24.9 27.65 39.14 62.3 42.47 103.14 12.34.57 23 4.74 31 12.06s16.82 21 14.73 45.5a104.24 104.24 0 0 1-15.39 45.3c-11.5 17.95-31.45 33.33-52.34 40.55-9.7 19.37-32 40.26-60.33 56.22-32.24 18.23-67.77 28.63-101.6 29.53-1.9.1-6.37.1-6.37.1z" fill="#fff"/><g fill="#010101"><path d="M70.2 327.9l1.14-2.7c-14.42-28.13-22.23-57.86-22.14-83.8a144.73 144.73 0 0 1 .39-10.62l-.58.08c-11.78 0-21.66 3.5-28.7 10.16C8.93 251.77 8 267.72 9.13 279.2a93.34 93.34 0 0 0 14.72 40.93c9.86 14.78 25.76 27.3 43.3 34.14a30.3 30.3 0 0 1-.73-5.84 53.1 53.1 0 0 1 3.8-20.55zM69 360c-19.78-6.77-38-20.65-49.13-37.3a100.38 100.38 0 0 1-15.3-42.92c-2.28-22.6 5.5-35.33 12.53-42 8.12-7.75 19.48-11.65 32.87-11.46A188.73 188.73 0 0 1 68.21 162 220.26 220.26 0 0 1 109 103.8c35.6-36.8 81-58.87 128-62.4 43.12-3.13 68.1 1 82.93 3.42 11.5 1.9 16.24 2.56 19.28-.57a1.32 1.32 0 0 0 .48-1c-.1-2.85-6.27-8.36-11.2-12.73-7.8-6.93-15.77-14-15.87-21.17a5.07 5.07 0 0 1 3.23-4.94c9.16-3.4 38.6 14.48 54.37 33 10.93 12.92 14.06 24.4 9 33.33a19.08 19.08 0 0 1-5.13 6.18c-3.33 2.56-7.8 4.18-13.5 4.84-8.65 1.14-20.43.1-35-2.94 22.9 11.4 42 25.54 57.1 42.35C407.8 149 421.82 184.34 424.43 226c12.95-.23 24.05 3.57 32 10.92 7.12 6.55 15.2 19.08 13.3 41.78a100 100 0 0 1-14.63 43.21c-11.36 17.84-31.26 32.9-52.1 39.38-8.75 19-30.83 39.9-59.25 56.07-31.54 17.85-66 28-99.17 29-3 .1-6.08 0-6.08 0-35.34 0-73.44-10.26-107.73-29.15C100 400.22 76.48 378.4 69 360zm6.66-33.42a47.83 47.83 0 0 0-4.59 21.57 26.38 26.38 0 0 0 1.81 8.93c6.65 17.38 30.2 39.32 60.13 55.84 35.25 19.47 74.57 29.54 110.58 28.5 69.16-2 139.27-45.68 155.9-83.38A37.34 37.34 0 0 0 403 343a47.91 47.91 0 0 0-2.4-15.62c-.42-1.23-.9-2.46-1.4-3.66a2.92 2.92 0 0 1-.13-.34c-7-15.38-19.5-22.34-27.05-26.12l-1.23-.6-.54-.27c-4-2-6.2-3.12-6.2-5.52 0-2 1.14-3.52 2.85-5.7 4.18-5.32 11.78-15.2 12-43.3V241c0-28.3-10.93-58.7-29.74-83.3-11-14.34-23.58-25.18-36.2-31.52-8.22-4.1-16.44-6.28-24.2-6.28-21.37 0-36.1 10.92-43.9 16.8-3.5 2.57-5.22 3.9-6.93 3.9a5.42 5.42 0 0 1-2.46-.68 30.67 30.67 0 0 1-4.95-3.5c-7.6-5.7-21.47-16.43-45-16.43a47.39 47.39 0 0 0-11.17 1.4c-16.66 4.23-34.3 17.16-49.06 36.38-18.9 24.7-29.83 55.1-29.73 83.3v.67c.2 27.82 8.93 40 13.1 45.77 1.7 2.28 2.75 3.9 2.75 5.5 0 2.38-2.28 3.6-6.46 5.8-7.12 3.9-20.52 11.12-28.5 26.88a5.85 5.85 0 0 1-.74.83l-.06.05zm79.73-202.14c10.12-5.75 20.4-8.86 30.06-8.86 25.08 0 39.8 11.4 47.7 17.57a36.45 36.45 0 0 0 4.37 3.14 42.16 42.16 0 0 0 4.27-2.95c8.27-6.17 23.75-17.66 46.65-17.66 21.18 0 45.22 14.82 64.22 39.8 19.47 25.45 30.68 56.88 30.68 86.13v1.14c-.2 29.63-8.83 40.75-13 46.06-.54.72-1.08 1.44-1.62 2.24.8.5 2.34 1.3 3.7 1.94 7.25 3.58 20.12 10 28.57 24.94 12.2-25.7 18.84-52.62 18.93-76.13 0-4.36-.1-8.73-.28-12.9-2.2-41.5-15.87-76.45-40.57-104-21.94-24.4-52.72-43.12-91.38-55.75a2.23 2.23 0 0 1-1.33-2.94 2.29 2.29 0 0 1 2.75-1.43c32.46 10.08 56.2 14.45 70.9 12.64 11-1.43 13.68-6 15.2-8.74 5.13-8.93-1.8-20.23-8.55-28.1C349.88 21 322.7 6.94 317.4 8.93c-.2.1-.28.1-.28.57 0 5 8 12.16 14.34 17.76 6.75 6 12.54 11.2 12.73 16.05a5.77 5.77 0 0 1-1.71 4.37c-4.84 4.94-11.4 3.8-23.37 1.9a274 274 0 0 0-52.1-4.65c-8.74 0-18.62.28-29.64 1.13-45.88 3.42-90.25 25-125.1 60.88A212.92 212.92 0 0 0 72.3 164a186.35 186.35 0 0 0-18 64.2 2.16 2.16 0 0 1 0 .57v.1c-.38 4.17-.48 8.35-.57 12.53-.1 24.27 7.07 52.08 20.18 78.66 8.73-14.4 21.25-21.1 28.26-24.9A37.47 37.47 0 0 0 106 293a22 22 0 0 0-1.71-2.47c-4.46-6.17-13.77-19.1-14-48.34v-.66c0-29.25 11.2-60.6 30.68-86.14 10.4-13.56 22.28-24.12 34.36-30.94l.06-.01zM403.8 323a52.13 52.13 0 0 1 3.83 20.27 37.51 37.51 0 0 1-2.09 12.15c18.33-6.74 35.53-20.32 45.7-36.1a93.31 93.31 0 0 0 13.87-41.12c.95-11.5-.28-27.44-11.87-38-7.08-6.52-16.9-9.84-28.58-9.7.15 3.57.27 7.18.27 10.73-.1 25.33-7.57 54.3-21.12 81.73v.02z" fill-rule="nonzero"/><path d="M363.85 263.26h-.01v-16.62h-5.5v-5.5H355V219h3.33v5.7h14.44l.67 5.5.47 5.5a50.65 50.65 0 0 1 .2 5.51h-4.66l-.1 5.5h4.56l-.38 5.5-.67 5.5h-3.5v11.1h-5.5v-5.6zM261.9 411.88H250.9v-5.5h5.5v-3.87h5.52v9.38h5.5V423h-5.5v-11.1zm-76.75-248.63v-5.5h5.5v5.5h5.5v-5.5h-5.5v-5.42h-11.12v-5.5h11.12v-16.62h5.5v-4.36a49.33 49.33 0 0 1 5.51 1.14v3.2h-5.5v16.44h11.1v-11h5.5V131l5.5 3v7.15h-5.5v5.5h-5.5v5.5h-5.5v5.5h16.67v-16.52h5.4v-3.32l3.52 2.65.95.76h-4.37v5.42h5.5v-1.7h5.5v4.36h5.5v-2.56h5.5v11h-5.5v5.5h5.5v4.25h-16.67v-4.24h5.5v-12.82h-5.5v12.8h-5.5v4.25h-5.5v-4.25h-5.5v4.25h-22.13v-4.24h-5.5v4.24h-5.5v-4.25h5.5zM306.28 402.5h5.5v3.87h-5.5v-3.87zm-35.72-272.4v5.5h-5.5v-5.7a47.28 47.28 0 0 1 5.51-2.09v2.28zm102.2 173.23l.23.1a19.25 19.25 0 0 0 2 1.23v8.54h-5.52v-5.5h-5.5v-8.92l4.56 2.47 1 .47.86.38a21.21 21.21 0 0 1 2 1.05c.1.1.3.1.38.2zm-118.84-140v-.01.01zm0-.01v-5.7h-5.5v-5.5h5.5v-5.5h-5.5v-5.5h5.6v-5.5h.66l4.85-2.95v13.96h5.5v-5.5h5.5v-5.5h5.5v5.5h-5.5v5.6h5.5v11.02h-5.5v-5.5h-11.12v5.5h11.12v5.6h-16.63zm22.23.01v-5.6h11.02v9.75h-11.02v-4.15zm5.5-38.08v10.3h-5.5v-9.3a51.56 51.56 0 0 1 5.51-1zm98.9 183.1a43.71 43.71 0 0 1 5.51 4.84h-5.5v-4.84zm-206.44-150.6h5.5v5.5h-5.5v-5.5zm33.07-29.16l3.7 1.52h-3.7v-1.52zm-5.5 1.62h5.5v5.5h-5.5v-5.5zM355 185.67v-10.2l2.67 4.7.57 1.14v4.37H355zm0 11.2v-5.5h3.33v-5.6h2.28l2.56 5.5c.3.57.48 1.23.76 1.8v3.7h1.43c.76 1.8 1.34 3.7 2 5.5l1.7 5.5h-5.23v-5.4h-5.5v-5.5H355zm-5.1-29.37h-1.74v-2.54l1.74 2.54zm-34.98-34.44v2.56h-5.5v-5.5l5.5 2.95zm48.92 74.83v5.5h5.5v5.5h-5.5v-5.5H355v-11.02h3.24v5.5h5.6zm-60.03-80.06l5.5 2.28h-5.5v-2.28zm54.5 102.37v5.5h5.5v-5.5h-5.5zm11.12-21.17l1.14 4.46h-1.14v-4.46zm-8.55 76.56l-2.56.03v5.5h.85v.2a7.78 7.78 0 0 0 2.09 5.31H355V280h3.34v-5.5H355V269h8.94v5.5h4.28l-1.43 2.76c0 .1-.1.1-.1.2-.2.28-.3.57-.48.85a3.74 3.74 0 0 1-.38.57l-.76 1.14s0 .1-.1.1l-1.14 1.52-.86 1a33.22 33.22 0 0 0-2.09 2.95zm-73.7-133.26v-11.17h-5.5v-5.5h5.7v-10.73h1.24a32.24 32.24 0 0 1 4.27.29 37.82 37.82 0 0 1 5.51 1v4h-5.5v5.5h5.5v-5.5h5.5v5.5h5.5v11.06h11.07V136.7l5.5 4.18v5.9h6.6l4.47 4.55v1h-5.5v5.5h11.22l2.47 3.14a10.71 10.71 0 0 1 1.52 2.46h-4.37v4.06h-22.13v-4.06h-5.5v4.06h-5.52v-4.06h-5.5v4.06h-5.5v-4.06h-5.5v-11.1h-5.5zm11.2 5.5v5.52h5.55v-5.5h5.5v5.5h5.5v-5.5h5.52v5.5h5.5v-5.5h-5.6v-5.5h-11v-5.5h-5.5v11h-5.5zm-5.6-16.7v5.5h5.5v-5.5h-5.5zm62.2 194.2h3.24v5.5h5.6v5.6h5.5v5.5h-5.5v-5.5h-5.6v5.5H355v-16.62zm14.45-66.47h1.05l-1.05 2.84v-2.84zM355 257.84h3.24v5.5H355v-5.5zm0-11.1h3.24v5.5H355v-5.5zm-240.33 12.63H120v5.5h-5.33v-5.5zm9.8 143.14H129v2.82l-4.55-2.82zm43.3 3.87l.1 11.3h5.5v5.5h-5.5v.57l-2-.57-3.6-1.43v-4.17h-9.78l-1.33-.58-5.5-2.65v-2.38h-4.66l-.85-.47v-5.13h-5.6v-3.87h38.76v3.87h-5.5zm-5.5 5.5v-5.5h-11.1v5.5h11.1zm-80.84-58.3l-.02-5.52H87v22h-.7l-4.08-5.5c-.2-.34-.48-.62-.67-1a42.1 42.1 0 0 1-2.56-4.46l-1.57-3.42-.76-2.1h4.75zm119.6 48.93v9.38h-5.5V423H190v7.6l-5.5-1.52v-.2l-2-.38-3.5-1.05v-4.46h5.5V402.5h5.5v3.86h5.5v-3.86h5.5zm0 9.38h5.5v5.5h-5.5v-5.5zM120 381.2v5.5h-10.84v5.13l-6.56-5.13h6.56v-5.5H120zm0 11.02v5.5h-2.7c-.95-.57-1.8-1.23-2.66-1.8l-5-3.7H120zm-16.45-44.25h5.5v5.5h-5.5v-5.5zm.1 33.14l.01-5.5h-5.5v6.95l-1.52-1.43-4-4a13 13 0 0 1-1.52-1.62h1.52v-27.6h-5.5v-5.5h-5.5v-5.5h22.13v-5.5h5.5v-5.5h-5.5v5.5h-11.2v-5.5H98v-5.6h5.55v-5.5h-5.4v-6.18c1.9-1.33 3.8-2.4 5.5-3.4a28.86 28.86 0 0 1 2.85-1.52l.38-.2 2.28-1.24v7h-5.5v5.5h5.4v5.5h5.5v5.5H120v5.5h-5.47v5.5h-5.5v5.5h-5.5v5.5H98v11.3h22v11h-5.34v-5.5h-5.5v5.5h5.5v5.5h-5.5v5.5h-5.5zM261.9 423.1v5.4h-5.5v5.5h-5.5v-5.5h-5.5v8.3l-1.9.1-3.7.1v-2.9h-5.5v2.8c-1.8 0-3.7-.1-5.5-.2l-5.5-.38-5.5-.57-5.5-.76v-6.5h-5.5v5.6l-.38-.1-5.13-.95-5.5-1.14V423h27.5v-5.52h5.52v-5.6h-11v5.6h-5.52v-11.1h5.52v-3.87h5.5v3.87h5.5v-3.87h5.6v3.87h11v-3.87h5.5v3.88h-5.5v5.5h5.5v5.5h-5.5v-5.5h-5.5v5.6h-5.5v5.5H223.5v5.5h-5.5v5.5h5.5v-5.5h5.5v5.5l5.27.08v-5.5h5.5v-11h5.5v5.5h5.5v-5.5h5.5v5.5h5.6zm-88.63-11.2v-5.5h5.6v11.1h-5.6v-5.6zM355 302.2h3.6v16.62H355V302.2zm36.6 38.75h5.5v5.5h-5.5v5.4l5.13.1a35.86 35.86 0 0 1-1.71 4.36 5.55 5.55 0 0 0-.48 1.14 60.59 60.59 0 0 1-2.94 5.51l-3.7 5.5h-1.8v-22.13h5.5v-5.4zm-.01-5.6l-.03 5.5h-5.5v5.5h-5.5v27.72h2.95l-2.95 3.32-2.1 2.28c-1.04 1.14-2.28 2.32-3.42 3.32v-8.9h-5.5v5.5H364v-5.5h-5.5v-5.5h5.5v-5.5h-5.48v5.5H355v-11.12h20.02v-11.1h-5.5v-5.5H364v-5.5h-5.4v-5.5H355v-5.5h3.63v-5.5h5.5v-5.5h5.5v5.5h5.5v5.5h5.33v-5.5h5.5v-5.5a41.27 41.27 0 0 1 4.52 5.51 13.06 13.06 0 0 0 .94 1.33 34.58 34.58 0 0 1 2.38 4.18c.2.52.47.95.76 1.52l1.52 4.08-4.56-.1v-5.5h-10.92v5.5h-11v-5.5h-5.5v5.5h5.5v5.5h21.94zm6.28 11.1a22 22 0 0 1-.76 4.18v-4.18h.76zM317.3 402.5h5.5v3.87h-5.5v-3.87zm22.22 0h10.24l-4.72 3.02-1.43.85-4.08 2.37-.2.1-5.32 2.94v.1h-5.5v-9.38h5.5v3.78h5.5v-3.78zm-22.22 3.87v5.45h5.4v5.5h-5.5v2.37l-5.5 2.28-2.37.95c-1.05.48-2.23.86-3.23 1.24l-5.5 2-5.52 1.8-1.9.57-3.7 1.05-5.5 1.42-5.5 1.33-5.5 1.14v-5h-5.4v6l-5.5.86-5.5.66v-1.9h5.5v-5.6h5.5V423h5.42v-16.63h-5.5v-3.87h11.12v3.87h5.5v5.5h-5.5v5.6h11.1v-11.1h-5.5v-3.87h16.63v3.87h-5.5v5.5h5.5v-5.5h5.5v5.5h5.5v-5.5h5.5zm-38.86 22.13l-.03-5.5H273v5.5h5.44zm22.33-5.5v-5.5h-5.5v5.5h5.5zm63.08-43.32v5.5H355v-5.5h8.85zm0 11v-5.5l8.74-.1-3.23 2.85-3.23 2.76h-2.28v1.8l-2.85 2.2-2 1.5-.66.48-1.05.76-1.8 1.33-.5.33v-8.4h8.85zM92.53 320.24v5.5H81.6a55.74 55.74 0 0 1 3.7-5.51l1.62-2v2h5.6zm75.9-156.9h5.5v4.15h-5.5v-4.15zm-22.23 4.15v-9.75h11.1v9.75h-11.1zm0-20.77v11.02h-5.5v-5.5h-4.85l4.85-4.94.57-.57h4.94zm33.34-11.1l-.04-5.5H174v-3.5a37 37 0 0 1 5.55-1.16 35.24 35.24 0 0 1 5.51-.48h.38a45.32 45.32 0 0 1 5.13.1V130h-5.5v5.62h-5.5zm-27.74 5.5v5.6h-5.5v-4.56l1.23-1.04h4.28zm11.12 22.22l.07-11.1h-11v-5.5h5.5v-5.5H152v-3.42a32.91 32.91 0 0 1 3-2.18h2.42V134l5.56-3.13v4.75h5.5v-5.5h-3.9a36.69 36.69 0 0 1 3.9-1.71v1.7h5.5v5.5h5.5v11.13H174v11h-5.56v5.6h-5.5zm0-22.22v5.6h5.5v-5.6h-5.5zM120 303.62v16.62h-5.33v-16.62H120zM113.53 287l-1.14-1.7c-.1-.1-.2-.28-.3-.38a40.36 40.36 0 0 1-2.37-3.42 3.66 3.66 0 0 1-.48-.85l-2.66-4.75h2.66v-5.5H120v5.5h-5.33v5.6H120v16.63h-5.33v-.66a7.06 7.06 0 0 0 1-4.18v-.76a8.83 8.83 0 0 0-1-3.52l-1.14-2zm1.14-38.75H120v5.5h-5.33v-5.5zm5.33-74.73v13.76h-5.33V183c.2-.48.47-.86.66-1.33l2.38-4.37.1-.1.57-1.05.3-.47 1.34-2.18zm-16.54 74.54v-5.55h-3.7v-1.33l.1-4.18.38-5.5.66-5.5h13.8v-5.57H120v22.12h-5.5v5.5H109v22.13h-4.97l-.57-1.8v-9.3h-2.28l-.76-5.5-.48-5.5h3.52zm5.7-16.33v5.5h5.5v-5.5h-5.5zm19.47-64.23h-4.77l2.92-4.15 1.8-2.37 1-1.33 1.52-1.9h9.6v9.75h-5.5v-4.15h-6.56v4.15zm-36.1 145.33v1.9h-2.18l2.18-1.9zm-11.1 18.52v5.37h-4.28a28.55 28.55 0 0 1 1.71-5.51l1.43-3 1.14-2.1v5.23zM120 353.38h-5.33v-5.5h-5.5v-5.5h5.5v-5.5H120v16.52zm-38.58-10.92V348h-5.5v-1.65a25.81 25.81 0 0 1 .28-3.89h5.23zM109.16 204l-.02 5.5h-4.75l1.6-5.5 1.87-5.5h1.24v-3.14l1-2.37 2.47-5.5h2.1v5.5H120v5.5h-5.33v5.4H120V215h-10.84v-5.5h5.5V204h-5.5zm-5.6 10.92h5.5v5.5h-5.5v-5.5zm-.1-2.66V215h-.48l.48-2.75z"/></g></svg>