<svg id="Layer_1" data-name="Layer 1" xmlns="http://www.w3.org/2000/svg" viewBox="0 0 476 476">
  <title>QR</title>
  <g id="Page-1">
    <g id="_15.2-Receive-Screen-Celery-Copy-4" data-name="15.2-Receive-Screen-Celery-Copy-4">
      <g id="QRNano">
        <g id="background">
          <circle id="Oval-4" cx="238" cy="238" r="219.87" style="fill: #fff"/>
          <path id="Combined-Shape" d="M238,476C106.56,476,0,369.44,0,238S106.56,0,238,0,476,106.56,476,238,369.44,476,238,476Zm0-6.55c127.83,0,231.45-103.62,231.45-231.45S365.83,6.55,238,6.55,6.55,110.17,6.55,238,110.17,469.45,238,469.45Z" style="fill: #a3cdff"/>
          <g id="nanoQR">
            <polygon id="Shape" points="116.95 90.58 123.87 90.58 130.78 90.58 130.78 86.78 130.78 86.78 137.7 86.78 137.7 79.86 130.78 79.86 123.87 79.86 123.87 86.78 123.87 86.78 116.95 86.78 110.03 86.78 110.03 86.78 110.03 79.86 103.11 79.86 103.11 86.78 103.11 90.58 110.03 90.58 116.95 90.58"/>
            <polygon id="Shape-2" data-name="Shape" points="130.78 66.02 137.7 66.02 144.62 66.02 144.62 59.11 137.7 59.11 130.78 59.11 130.78 66.02 123.87 66.02 123.87 72.94 130.78 72.94 130.78 66.02"/>
            <rect id="Rectangle-path" x="137.7" y="86.78" width="6.92" height="3.8"/>
            <path id="Shape-3" data-name="Shape" d="M151.53,52.18v-4c-2.32,1.06-4.63,2.17-6.91,3.32l-1.37.7h8.28Z"/>
            <polygon id="Shape-4" data-name="Shape" points="151.54 79.86 151.54 72.94 144.62 72.94 137.7 72.94 137.7 79.86 144.62 79.86 151.54 79.86"/>
            <polygon id="Shape-5" data-name="Shape" points="158.45 45.27 158.45 52.19 165.37 52.19 172.29 52.19 172.29 45.27 165.37 45.27 158.45 45.27"/>
            <polygon id="Shape-6" data-name="Shape" points="158.45 72.94 158.45 79.86 165.37 79.86 165.37 86.78 172.29 86.78 172.29 86.78 172.29 90.58 179.2 90.58 179.2 86.78 179.21 86.78 179.21 79.86 172.29 79.86 172.29 72.94 172.29 66.02 172.29 66.02 172.29 59.11 165.37 59.11 158.45 59.11 151.54 59.11 151.54 66.02 158.45 66.02 158.45 72.94"/>
            <path id="Shape-7" data-name="Shape" d="M172.29,45.27V40c-2.33.77-4.63,1.58-6.92,2.42s-4.63,1.77-6.92,2.72v.09Z"/>
            <path id="Shape-8" data-name="Shape" d="M179.21,38.35v6.92h6.91V38.35H193v6.92h-6.92v6.91H200V38.35h6.91V52.18h6.92V31.43h-4.54c-.8.11-1.6.22-2.39.35-2.31.34-4.62.73-6.91,1.15s-4.6.89-6.92,1.4-4.63,1.06-6.92,1.64-4.63,1.24-6.92,1.9c-.53.16-1.07.3-1.6.48h1.62Z"/>
            <path id="Shape-9" data-name="Shape" d="M213.79,38.35h6.92V31.43h6.91V45.27h6.92v6.91h-6.92v6.93h20.76V66h-6.92V73h6.92V66H276V73H283V66h20.75V59.11h-6.92V52.18h6.92v6.93h6.92V45.27h-6.92V40q-2.64-.87-5.31-1.68h-1.61v-.48c-2.29-.67-4.59-1.31-6.91-1.9s-4.6-1.13-6.92-1.64-4.6-1-6.92-1.4V59.12h-6.91V52.2h-6.92v6.92H255.3V52.2h-6.92V38.35h-6.92V31.43h6.92v6.92h6.92V31.43h6.91v-.57c-2.29-.27-4.6-.5-6.91-.69s-4.63-.34-6.92-.45-4.6-.18-6.92-.22v1.93h-6.92V29.5c-2.32,0-4.62.11-6.92.22s-4.6.26-6.91.45-4.62.42-6.92.69v7.49ZM283,52.18h6.92v6.93H283Z"/>
            <polygon id="Shape-10" data-name="Shape" points="193.04 86.78 193.04 86.78 193.04 79.86 186.12 79.86 186.12 86.78 186.12 90.58 193.04 90.58 193.04 86.78"/>
            <polygon id="Shape-11" data-name="Shape" points="199.96 59.11 193.04 59.11 186.12 59.11 186.12 52.19 179.21 52.19 179.21 59.11 179.21 66.02 186.12 66.02 186.12 72.94 193.04 72.94 193.04 66.02 199.96 66.02 206.87 66.02 206.87 59.11 206.87 52.19 199.96 52.19 199.96 59.11"/>
            <polygon id="Shape-12" data-name="Shape" points="213.79 72.94 206.87 72.94 199.96 72.94 199.96 79.86 199.96 86.78 206.87 86.78 206.87 79.86 213.79 79.86 213.79 86.78 220.71 86.78 220.71 86.78 220.71 90.58 227.63 90.58 227.63 86.78 234.54 86.78 241.46 86.78 241.46 90.58 248.38 90.58 248.38 86.78 248.38 86.78 248.38 79.86 241.46 79.86 234.54 79.86 227.63 79.86 227.63 72.94 220.71 72.94 213.79 72.94"/>
            <rect id="Rectangle-path-2" data-name="Rectangle-path" x="220.71" y="45.27" width="6.92" height="6.92"/>
            <polygon id="Shape-13" data-name="Shape" points="220.71 66.02 227.63 66.02 227.63 72.94 234.54 72.94 234.54 66.02 227.63 66.02 227.63 59.11 220.71 59.11 220.71 66.02"/>
            <rect id="Rectangle-path-3" data-name="Rectangle-path" x="255.29" y="38.35" width="6.92" height="6.92"/>
            <polygon id="Shape-14" data-name="Shape" points="255.29 86.78 255.29 86.78 255.29 90.58 262.21 90.58 262.21 86.78 262.21 86.78 262.21 79.86 255.29 79.86 255.29 86.78"/>
            <rect id="Rectangle-path-4" data-name="Rectangle-path" x="262.21" y="72.94" width="6.92" height="6.92"/>
            <rect id="Rectangle-path-5" data-name="Rectangle-path" x="269.13" y="86.78" width="6.92" height="3.8"/>
            <rect id="Rectangle-path-6" data-name="Rectangle-path" x="282.96" y="72.94" width="6.92" height="6.92"/>
            <rect id="Rectangle-path-7" data-name="Rectangle-path" x="282.96" y="86.78" width="6.91" height="3.8"/>
            <path id="Shape-15" data-name="Shape" d="M317.54,52.18h6.92v-4c-2.21-1-4.45-2-6.69-2.91a1.09,1.09,0,0,0-.23-.09q-3.42-1.43-6.91-2.72v2.8h6.91Z"/>
            <path id="Shape-16" data-name="Shape" d="M310.63,66V73H296.79v6.92h6.92v6.92h-6.92v3.8h13.84V79.86h6.92V72.94h41.5V68.18c-1-.73-2-1.45-3.07-2.16H345.22V59.11c-2.28-1.37-4.59-2.69-6.92-4V66Z"/>
            <polygon id="Shape-17" data-name="Shape" points="317.55 86.78 317.55 90.58 324.46 90.58 331.38 90.58 338.3 90.58 345.21 90.58 352.13 90.58 352.13 86.78 359.05 86.78 359.05 79.86 352.13 79.86 345.22 79.86 345.22 86.78 345.21 86.78 338.3 86.78 331.38 86.78 331.38 86.78 331.38 79.86 324.46 79.86 317.55 79.86 317.55 86.78 317.55 86.78"/>
            <rect id="Rectangle-path-8" data-name="Rectangle-path" x="359.05" y="86.78" width="6.91" height="3.8"/>
            <polygon id="Shape-18" data-name="Shape" points="372.88 79.86 365.97 79.86 365.97 86.78 365.97 86.78 365.97 90.58 372.88 90.58 379.8 90.58 379.8 86.78 372.88 86.78 372.88 79.86"/>
            <path id="Shape-19" data-name="Shape" d="M372.88,79v.91h1.05C373.59,79.56,373.24,79.26,372.88,79Z"/>
            <rect id="Rectangle-path-9" data-name="Rectangle-path" x="123.22" y="404.01" width="6.92" height="6.92"/>
            <rect id="Rectangle-path-10" data-name="Rectangle-path" x="137.05" y="410.93" width="6.92" height="6.92"/>
            <rect id="Rectangle-path-11" data-name="Rectangle-path" x="137.05" y="385.41" width="6.91" height="4.76"/>
            <path id="Shape-20" data-name="Shape" d="M150.89,427.52v-2.75h-5.74C147,425.72,149,426.64,150.89,427.52Z"/>
            <polygon id="Shape-21" data-name="Shape" points="130.14 390.18 130.14 385.42 102.47 385.42 102.47 390.18 102.47 390.18 102.47 396.49 103.18 397.09 109.39 397.09 109.39 390.18 123.22 390.18 123.22 397.09 137.06 397.09 137.06 390.18 130.14 390.18"/>
            <polygon id="Shape-22" data-name="Shape" points="150.89 397.1 143.97 397.1 137.06 397.1 137.06 404.02 143.97 404.02 150.89 404.02 150.89 397.1"/>
            <path id="Shape-23" data-name="Shape" d="M164.72,424.77h-6.91v5.79l2.76,1.13c1.38.55,2.76,1.09,4.15,1.61,2.29.86,4.59,1.68,6.92,2.45v-11Z"/>
            <polygon id="Shape-24" data-name="Shape" points="178.56 390.18 178.56 390.18 178.56 385.42 171.64 385.42 171.64 390.18 164.72 390.18 164.72 397.1 157.81 397.1 157.81 404.02 157.81 410.94 150.89 410.94 150.89 417.85 157.81 417.85 164.72 417.85 171.64 417.85 171.64 410.94 171.64 404.02 171.64 397.1 178.56 397.1 178.56 390.18"/>
            <polygon id="Shape-25" data-name="Shape" points="192.39 417.85 199.31 417.85 199.31 424.77 206.22 424.77 206.22 417.85 206.22 410.94 199.31 410.94 192.39 410.94 192.39 404.02 185.47 404.02 185.47 410.94 178.56 410.94 178.56 417.85 178.56 424.77 185.47 424.77 185.47 417.85 192.39 417.85"/>
            <polygon id="Shape-26" data-name="Shape" points="185.47 390.18 185.47 390.18 185.47 397.1 192.39 397.1 192.39 390.18 192.39 390.18 192.39 385.42 185.47 385.42 185.47 390.18"/>
            <rect id="Rectangle-path-12" data-name="Rectangle-path" x="192.39" y="431.69" width="6.92" height="6.92"/>
            <rect id="Rectangle-path-13" data-name="Rectangle-path" x="206.22" y="431.69" width="6.92" height="6.92"/>
            <rect id="Rectangle-path-14" data-name="Rectangle-path" x="206.22" y="424.77" width="6.92" height="6.92"/>
            <path id="Shape-27" data-name="Shape" d="M240.81,431.69H227v13.84h-6.92v-6.92H185.47v-6.92h13.85v-6.92H185.47v6.92h-6.91v6.25l2.31.67c1.53.44,3.06.85,4.6,1.25,2.29.61,4.6,1.16,6.92,1.67s4.6,1,6.92,1.42,4.62.83,6.91,1.18,4.61.66,6.92.94c1.41.17,2.82.32,4.23.46l2.68.24c2.3.21,4.6.36,6.92.48s4.62.2,6.91.25v-1h6.92v-6.92h6.92v-6.92Z"/>
            <rect id="Rectangle-path-15" data-name="Rectangle-path" x="240.81" y="404.01" width="6.92" height="6.92"/>
            <path id="Shape-28" data-name="Shape" d="M247.73,445.53h-6.92v1c2.32,0,4.62-.09,6.92-.2s4.6-.25,6.91-.43c1.33-.11,2.66-.22,4-.35h-4v-6.92h-6.92Z"/>
            <rect id="Rectangle-path-16" data-name="Rectangle-path" x="254.65" y="431.69" width="6.92" height="6.92"/>
            <polygon id="Shape-29" data-name="Shape" points="261.56 385.42 254.64 385.42 254.64 390.18 254.65 390.18 254.65 397.1 261.56 397.1 261.56 390.18 261.56 385.42"/>
            <rect id="Rectangle-path-17" data-name="Rectangle-path" x="261.56" y="397.1" width="6.92" height="6.92"/>
            <rect id="Rectangle-path-18" data-name="Rectangle-path" x="268.48" y="385.41" width="6.92" height="4.76"/>
            <rect id="Rectangle-path-19" data-name="Rectangle-path" x="282.31" y="397.1" width="6.92" height="6.92"/>
            <rect id="Rectangle-path-20" data-name="Rectangle-path" x="282.31" y="385.41" width="6.92" height="4.76"/>
            <path id="Shape-30" data-name="Shape" d="M310,424.77v-6.92h-6.91v6.92h-6.92v-6.92h6.92v-6.92H282.31V404H275.4v6.92H247.73v6.92H227v-6.92h6.91V404H227V397.1h20.75V385.41h-6.92v4.77H227v-4.77h-6.91v4.77h-6.92v6.92h-6.92v-6.92h-6.9V404H227v6.92h-6.92v6.92H227v6.92h-6.92v6.92H227v-6.92h6.91v6.92h13.84v-6.92h6.92v-6.92h6.92v6.92h6.92v-6.92h6.92v25.34q3.48-.63,6.91-1.37t6.92-1.63c2-.5,3.95-1,5.9-1.58h1v-.3q3.48-1,6.92-2.14v-4.49H310v2.08q2.75-1,5.44-2.08H310Zm-20.75,0h-6.92v-6.92h6.92Z"/>
            <path id="Shape-31" data-name="Shape" d="M316.9,431.09c2.33-.95,4.63-1.94,6.92-3v-3.34H316.9Z"/>
            <path id="Shape-32" data-name="Shape" d="M337.65,417.85v3.38q3-1.64,6-3.38l1-.57v-6.34h-6.92Z"/>
            <path id="Shape-33" data-name="Shape" d="M351.48,410.93h3.09q1.94-1.31,3.83-2.65V404h-6.92Z"/>
            <polygon id="Shape-34" data-name="Shape" points="351.48 397.1 358.4 397.1 358.4 390.18 351.48 390.18 351.48 385.42 344.57 385.42 337.65 385.42 330.73 385.42 323.82 385.42 316.9 385.42 316.9 390.18 316.9 390.18 316.9 397.1 323.82 397.1 330.73 397.1 330.73 390.18 330.73 390.18 337.65 390.18 344.57 390.18 344.57 390.18 344.57 397.1 351.48 397.1"/>
            <polygon id="Shape-35" data-name="Shape" points="309.98 390.18 309.98 390.18 309.98 385.42 303.06 385.42 296.15 385.42 296.15 390.18 303.06 390.18 303.06 397.1 296.15 397.1 296.15 404.02 303.06 404.02 309.98 404.02 309.98 410.94 316.9 410.94 323.82 410.94 330.73 410.94 337.65 410.94 344.57 410.94 351.48 410.94 351.48 404.02 344.57 404.02 337.65 404.02 330.73 404.02 323.82 404.02 316.9 404.02 316.9 397.1 309.98 397.1 309.98 390.18"/>
            <polygon id="Shape-36" data-name="Shape" points="365.32 385.42 358.4 385.42 358.4 390.18 365.32 390.18 365.32 397.1 372.24 397.1 372.24 397.59 372.82 397.1 372.24 397.1 372.24 390.18 379.15 390.18 379.15 385.42 365.32 385.42"/>
            <polygon id="Shape-37" data-name="Shape" points="389.19 116.95 389.19 110.03 389.19 110.03 396.11 110.03 396.11 103.11 389.19 103.11 389.19 103.11 385.42 103.11 385.42 110.03 385.42 116.95 385.42 123.87 385.42 130.78 389.19 130.78 389.19 130.78 389.19 137.7 396.11 137.7 396.11 130.78 396.11 123.87 389.19 123.87 389.19 123.87 389.19 116.95"/>
            <rect id="Rectangle-path-21" data-name="Rectangle-path" x="403.03" y="123.87" width="6.92" height="6.92"/>
            <rect id="Rectangle-path-22" data-name="Rectangle-path" x="396.11" y="116.95" width="6.92" height="6.92"/>
            <rect id="Rectangle-path-23" data-name="Rectangle-path" x="409.95" y="137.7" width="6.92" height="6.92"/>
            <rect id="Rectangle-path-24" data-name="Rectangle-path" x="385.41" y="137.7" width="3.77" height="6.92"/>
            <path id="Shape-38" data-name="Shape" d="M424.51,144.61l-.73-1.43v8.35h4Q426.23,148.05,424.51,144.61Z"/>
            <polygon id="Shape-39" data-name="Shape" points="396.11 151.54 403.03 151.54 403.03 144.62 403.03 137.7 396.11 137.7 396.11 144.62 396.11 151.54"/>
            <path id="Shape-40" data-name="Shape" d="M430.7,172.29H436c-.77-2.33-1.58-4.63-2.42-6.92s-1.77-4.63-2.72-6.92h-7v13.84Z"/>
            <polygon id="Shape-41" data-name="Shape" points="396.11 172.29 403.03 172.29 409.95 172.29 416.86 172.29 416.86 165.37 416.86 158.45 416.86 151.54 409.95 151.54 409.95 158.45 403.03 158.45 396.11 158.45 396.11 165.37 389.19 165.37 389.19 172.29 389.19 172.29 385.42 172.29 385.42 179.2 389.19 179.2 389.19 179.21 396.11 179.21 396.11 172.29"/>
            <polygon id="Shape-42" data-name="Shape" points="385.42 186.12 385.42 193.04 389.19 193.04 389.19 193.04 396.11 193.04 396.11 186.12 389.19 186.12 389.19 186.12 385.42 186.12"/>
            <polygon id="Shape-43" data-name="Shape" points="416.86 199.96 416.86 193.04 416.86 186.12 423.78 186.12 423.78 179.21 416.86 179.21 409.95 179.21 409.95 186.12 403.03 186.12 403.03 193.04 409.95 193.04 409.95 199.96 409.95 206.87 416.86 206.87 423.78 206.87 423.78 199.96 416.86 199.96"/>
            <path id="Shape-44" data-name="Shape" d="M437.62,213.79h6.92v-6.92h-.3c-.35-2.32-.73-4.62-1.16-6.92s-.89-4.6-1.39-6.91-1.06-4.63-1.65-6.92-1.24-4.63-1.9-6.92l-.51-1.72v1.72h-6.91v6.92h6.91V193h-6.91v-6.92h-6.93V200h13.84v6.91H423.79v6.92h13.84v6.91h6.92v-6.91Z"/>
            <path id="Shape-45" data-name="Shape" d="M444.54,227.62v6.92h2c0-2.31-.11-4.62-.22-6.92s-.26-4.6-.45-6.91-.42-4.62-.69-6.92h-.6Z"/>
            <rect id="Rectangle-path-25" data-name="Rectangle-path" x="423.78" y="220.71" width="6.92" height="6.92"/>
            <rect id="Rectangle-path-26" data-name="Rectangle-path" x="409.95" y="220.71" width="6.92" height="6.92"/>
            <polygon id="Shape-46" data-name="Shape" points="403.03 213.79 403.03 213.79 403.03 206.87 403.03 199.96 396.11 199.96 389.19 199.96 389.19 206.87 396.11 206.87 396.11 213.79 389.19 213.79 389.19 220.71 389.19 220.71 385.42 220.71 385.42 227.63 389.19 227.63 389.19 234.54 389.19 241.46 385.42 241.46 385.42 248.38 389.19 248.38 389.19 248.38 396.11 248.38 396.11 241.46 396.11 234.54 396.11 227.63 403.03 227.63 403.03 220.71 403.03 213.79"/>
            <path id="Shape-47" data-name="Shape" d="M430.7,227.62v6.92h-6.92v-6.92h-6.92v20.76H410V276H403V283H410v20.75h6.91v-6.92h6.92v6.92h-6.92v6.92H430.7v-6.92H436q.85-2.58,1.65-5.2v-1.72h.51c.67-2.28,1.31-4.59,1.9-6.91s1.13-4.6,1.64-6.92,1-4.6,1.4-6.92H416.85v-6.91h6.92v-6.92h-6.92V255.3h6.92v-6.92h13.84v-6.92h6.92V227.62H430.7ZM423.78,283v6.92h-6.92V283Z"/>
            <rect id="Rectangle-path-27" data-name="Rectangle-path" x="403.03" y="227.62" width="6.92" height="6.92"/>
            <path id="Shape-48" data-name="Shape" d="M444.54,248.38v13.83h.6q.41-3.43.69-6.92t.45-6.91q.17-3.45.22-6.92h-2Z"/>
            <rect id="Rectangle-path-28" data-name="Rectangle-path" x="403.03" y="241.46" width="6.92" height="6.92"/>
            <rect id="Rectangle-path-29" data-name="Rectangle-path" x="437.62" y="248.38" width="6.92" height="6.92"/>
            <rect id="Rectangle-path-30" data-name="Rectangle-path" x="430.7" y="255.29" width="6.92" height="6.92"/>
            <polygon id="Shape-49" data-name="Shape" points="389.19 255.29 389.19 255.29 385.42 255.29 385.42 262.21 389.19 262.21 389.19 262.21 396.11 262.21 396.11 255.29 389.19 255.29"/>
            <rect id="Rectangle-path-31" data-name="Rectangle-path" x="396.11" y="262.21" width="6.92" height="6.92"/>
            <rect id="Rectangle-path-32" data-name="Rectangle-path" x="385.41" y="269.13" width="3.77" height="6.92"/>
            <rect id="Rectangle-path-33" data-name="Rectangle-path" x="396.11" y="282.96" width="6.92" height="6.92"/>
            <rect id="Rectangle-path-34" data-name="Rectangle-path" x="385.41" y="282.96" width="3.77" height="6.91"/>
            <path id="Shape-50" data-name="Shape" d="M430.7,317.55h-6.92v6.91h4q1.51-3.27,2.88-6.62.06-.13.12-.3,1.43-3.42,2.72-6.92h-2.83Z"/>
            <polygon id="Shape-51" data-name="Shape" points="389.19 317.55 385.42 317.55 385.42 324.46 385.42 331.38 385.42 338.3 385.42 345.21 385.42 352.13 389.19 352.13 389.19 352.13 389.19 359.05 396.11 359.05 396.11 352.13 396.11 345.22 389.19 345.22 389.19 345.21 389.19 338.3 389.19 331.38 389.19 331.38 396.11 331.38 396.11 324.46 396.11 317.55 389.19 317.55 389.19 317.55"/>
            <path id="Shape-52" data-name="Shape" d="M410,331.39V310.64H403V296.8h-6.92v6.92h-6.92V296.8h-3.78v13.84h10.7v6.91H403v41.51h4.79c.72-1,1.43-2,2.12-3v-10.8h6.92v-6.92h-6.92Z"/>
            <path id="Shape-53" data-name="Shape" d="M416.86,345.22h0c1.36-2.28,2.69-4.59,4-6.92h-4Z"/>
            <path id="Shape-54" data-name="Shape" d="M389.19,359.05h-3.78v26.36h-3.14v3.16c.64-.6,1.28-1.22,1.91-1.85q2.55-2.5,5-5.1v-8.74h6.92V366h-6.92Z"/>
            <path id="Shape-55" data-name="Shape" d="M396.11,374l.93-1.09h-.93Z"/>
            <path id="Shape-56" data-name="Shape" d="M382.27,87.43v1.85h1.91Z"/>
            <path id="Shape-57" data-name="Shape" d="M382.27,90.58h3.14V96.2h3.78V94.39q-2.46-2.6-5-5.1h-1.91Z"/>
            <rect id="Rectangle-path-35" data-name="Rectangle-path" x="79.89" y="103.12" width="6.92" height="6.92"/>
            <rect id="Rectangle-path-36" data-name="Rectangle-path" x="66.05" y="123.87" width="6.92" height="6.92"/>
            <polygon id="Shape-58" data-name="Shape" points="79.89 130.78 79.89 137.7 86.81 137.7 86.81 130.78 86.81 123.87 79.89 123.87 79.89 130.78"/>
            <polygon id="Shape-59" data-name="Shape" points="90.58 123.87 90.58 116.95 90.58 110.03 90.58 103.11 86.81 103.11 86.81 110.03 86.81 116.95 86.81 123.87 86.81 130.78 90.58 130.78 90.58 123.87"/>
            <rect id="Rectangle-path-37" data-name="Rectangle-path" x="59.14" y="137.7" width="6.92" height="6.92"/>
            <polygon id="Shape-60" data-name="Shape" points="72.97 144.62 72.97 151.54 79.89 151.54 79.89 144.62 79.89 137.7 72.97 137.7 72.97 144.62"/>
            <rect id="Rectangle-path-38" data-name="Rectangle-path" x="86.81" y="137.7" width="3.77" height="6.92"/>
            <path id="Shape-61" data-name="Shape" d="M52.21,144.61v-1.43l-.72,1.43c-1.14,2.29-2.25,4.59-3.32,6.92h4Z"/>
            <polygon id="Shape-62" data-name="Shape" points="79.89 158.45 72.97 158.45 66.05 158.45 66.05 151.54 59.14 151.54 59.14 158.45 59.14 165.37 59.14 172.29 66.05 172.29 72.97 172.29 79.89 172.29 79.89 179.21 86.81 179.21 86.81 172.29 86.81 165.37 79.89 165.37 79.89 158.45"/>
            <path id="Shape-63" data-name="Shape" d="M45.3,165.37v-6.92h-.12c-.94,2.29-1.85,4.59-2.72,6.92S40.81,170,40,172.29h5.27Z"/>
            <polygon id="Shape-64" data-name="Shape" points="52.22 165.37 52.22 158.45 45.3 158.45 45.3 165.37 45.3 172.29 52.22 172.29 52.22 165.37"/>
            <rect id="Rectangle-path-39" data-name="Rectangle-path" x="86.81" y="172.29" width="3.77" height="6.91"/>
            <polygon id="Shape-65" data-name="Shape" points="59.14 193.04 59.14 199.96 52.22 199.96 52.22 206.87 59.14 206.87 66.05 206.87 66.05 199.96 66.05 193.04 72.97 193.04 72.97 186.12 66.05 186.12 66.05 179.21 59.14 179.21 52.22 179.21 52.22 186.12 59.14 186.12 59.14 193.04"/>
            <rect id="Rectangle-path-40" data-name="Rectangle-path" x="79.89" y="186.12" width="6.92" height="6.92"/>
            <rect id="Rectangle-path-41" data-name="Rectangle-path" x="86.81" y="186.12" width="3.77" height="6.92"/>
            <polygon id="Shape-66" data-name="Shape" points="72.97 199.96 72.97 206.87 72.97 213.79 72.97 213.79 72.97 220.71 72.97 227.63 79.89 227.63 79.89 234.54 79.89 241.46 79.89 248.38 86.81 248.38 86.81 241.46 86.81 234.54 86.81 227.63 86.81 220.71 86.81 213.79 79.89 213.79 79.89 206.87 86.81 206.87 86.81 199.96 79.89 199.96 72.97 199.96"/>
            <rect id="Rectangle-path-42" data-name="Rectangle-path" x="66.05" y="241.46" width="6.92" height="6.92"/>
            <rect id="Rectangle-path-43" data-name="Rectangle-path" x="45.3" y="220.71" width="6.92" height="6.92"/>
            <rect id="Rectangle-path-44" data-name="Rectangle-path" x="86.81" y="220.71" width="3.77" height="6.92"/>
            <path id="Shape-67" data-name="Shape" d="M52.22,234.54H45.3v-6.92H31.46v-6.91h6.92v-6.92H52.22v-6.92H38.38V200H52.22V186.12H45.3V193H38.38v-6.92H45.3v-6.91H38.38V177.5q-.26.84-.51,1.71c-.67,2.28-1.31,4.59-1.9,6.91s-1.13,4.6-1.64,6.92-1,4.6-1.4,6.92-.81,4.62-1.15,6.91h-.31v6.92h-.6c-.27,2.29-.49,4.6-.68,6.91s-.34,4.63-.46,6.92-.18,4.6-.22,6.92h2v6.91h-2q.06,3.48.22,6.92t.46,6.92c.19,2.32.42,4.62.68,6.92h.6v-6.92h6.92v-6.92H31.46v-6.92h6.92v6.92H52.22v6.92h6.92v6.92H52.22v6.92h6.92v6.92H32.93c.43,2.31.89,4.62,1.4,6.91s1.05,4.61,1.64,6.92,1.24,4.63,1.9,6.92h.51v1.71q.79,2.61,1.65,5.21H45.3v6.91H59.14v-6.91H52.22V296.8h6.92v6.92h6.91V283H73v-6.91H66.05V248.38H59.14V227.62H52.22Zm6.92,55.34H52.22V283h6.92Z"/>
            <rect id="Rectangle-path-45" data-name="Rectangle-path" x="66.05" y="227.62" width="6.92" height="6.92"/>
            <rect id="Rectangle-path-46" data-name="Rectangle-path" x="59.14" y="220.71" width="6.92" height="6.92"/>
            <rect id="Rectangle-path-47" data-name="Rectangle-path" x="86.81" y="241.46" width="3.77" height="6.92"/>
            <rect id="Rectangle-path-48" data-name="Rectangle-path" x="38.38" y="255.29" width="6.92" height="6.92"/>
            <rect id="Rectangle-path-49" data-name="Rectangle-path" x="79.89" y="255.29" width="6.92" height="6.92"/>
            <rect id="Rectangle-path-50" data-name="Rectangle-path" x="86.81" y="255.29" width="3.77" height="6.91"/>
            <rect id="Rectangle-path-51" data-name="Rectangle-path" x="72.97" y="262.21" width="6.92" height="6.92"/>
            <rect id="Rectangle-path-52" data-name="Rectangle-path" x="86.81" y="269.13" width="3.77" height="6.92"/>
            <rect id="Rectangle-path-53" data-name="Rectangle-path" x="72.97" y="282.96" width="6.92" height="6.92"/>
            <rect id="Rectangle-path-54" data-name="Rectangle-path" x="86.81" y="282.96" width="3.77" height="6.91"/>
            <path id="Shape-68" data-name="Shape" d="M79.89,296.79H73v13.84H66.05V338.3H55.13c1.28,2.34,2.6,4.64,4,6.92h6.95V356c.7,1,1.41,2,2.12,3H73v-41.5h6.92v-6.91h6.92v-6.92H79.89Z"/>
            <polygon id="Shape-69" data-name="Shape" points="90.58 303.71 90.58 296.79 86.81 296.79 86.81 303.71 86.81 310.63 90.58 310.63 90.58 303.71"/>
            <path id="Shape-70" data-name="Shape" d="M45.3,310.63H42.46c.87,2.33,1.77,4.63,2.72,6.92q.06.13.12.3,1.39,3.34,2.89,6.62h4v-6.91H45.3Z"/>
            <polygon id="Shape-71" data-name="Shape" points="79.89 331.38 86.81 331.38 86.81 324.46 86.81 317.55 79.89 317.55 79.89 324.46 79.89 331.38"/>
            <polygon id="Shape-72" data-name="Shape" points="79.89 352.13 79.89 359.05 86.81 359.05 86.81 352.13 86.81 345.22 79.89 345.22 79.89 352.13"/>
            <polygon id="Shape-73" data-name="Shape" points="90.58 345.21 90.58 338.3 90.58 331.38 90.58 324.46 90.58 317.55 86.81 317.55 86.81 324.46 86.81 331.38 86.81 338.3 86.81 345.21 86.81 352.13 90.58 352.13 90.58 345.21"/>
            <rect id="Rectangle-path-55" data-name="Rectangle-path" x="79.89" y="365.97" width="6.92" height="6.92"/>
            <path id="Shape-74" data-name="Shape" d="M79.89,374v-1.09H79Z"/>
            <path id="Shape-75" data-name="Shape" d="M93.73,87.43c-.64.6-1.28,1.22-1.91,1.85h1.91Z"/>
            <path id="Shape-76" data-name="Shape" d="M86.81,94.38v1.81h3.77V90.58h3.15v-1.3H91.82Q89.27,91.79,86.81,94.38Z"/>
            <path id="Shape-77" data-name="Shape" d="M90.58,379.8V359.05H86.81v22.57q2.46,2.6,5,5.1c.63.62,1.26,1.24,1.91,1.85v-3.16H90.58Z"/>
          </g>
        </g>
      </g>
    </g>
  </g>
</svg>
