<svg id="Layer_1" data-name="Layer 1" xmlns="http://www.w3.org/2000/svg" viewBox="0 0 476 476"><title>Artboard 1</title><g id="QRNano"><g id="background"><circle id="Oval-4" cx="238" cy="238" r="238" style="fill:#fff"/><g id="nanoQR"><polygon id="Shape" points="106.97 78.42 114.46 78.42 121.94 78.42 121.94 74.31 121.94 74.31 129.43 74.31 129.43 66.82 121.94 66.82 114.46 66.82 114.46 74.31 114.46 74.31 106.97 74.31 99.48 74.31 99.48 74.31 99.48 66.82 91.99 66.82 91.99 74.31 91.99 78.42 99.48 78.42 106.97 78.42"/><polygon id="Shape-2" points="121.94 51.84 129.43 51.84 136.92 51.84 136.92 44.36 129.43 44.36 121.94 44.36 121.94 51.84 114.46 51.84 114.46 59.33 121.94 59.33 121.94 51.84"/><rect id="Rectangle-path" x="129.43" y="74.31" width="7.49" height="4.11"/><path id="Shape-3" d="M144.4,36.86V32.53c-2.51,1.15-5,2.35-7.48,3.59l-1.48.76h9Z"/><polygon id="Shape-4" points="144.41 66.82 144.41 59.33 136.92 59.33 129.43 59.33 129.43 66.82 136.92 66.82 144.41 66.82"/><polygon id="Shape-5" points="151.89 29.38 151.89 36.87 159.38 36.87 166.87 36.87 166.87 29.38 159.38 29.38 151.89 29.38"/><polygon id="Shape-6" points="151.89 59.33 151.89 66.82 159.38 66.82 159.38 74.31 166.87 74.31 166.87 74.31 166.87 78.42 174.35 78.42 174.35 74.31 174.36 74.31 174.36 66.82 166.87 66.82 166.87 59.33 166.87 51.84 166.87 51.84 166.87 44.36 159.38 44.36 151.89 44.36 144.41 44.36 144.41 51.84 151.89 51.84 151.89 59.33"/><path id="Shape-7" d="M166.87,29.38V23.67c-2.52.84-5,1.71-7.49,2.62s-5,1.92-7.49,2.95v.09Z"/><path id="Shape-8" d="M174.36,21.89v7.49h7.48V21.89h7.45v7.49H181.8v7.48h15.07v-15h7.48v15h7.49V14.4h-4.92c-.86.12-1.73.23-2.58.38-2.5.36-5,.79-7.48,1.24s-5,1-7.49,1.52-5,1.14-7.5,1.77-5,1.34-7.49,2.06c-.57.17-1.15.32-1.73.52h1.71Z"/><path id="Shape-9" d="M211.79,21.89h7.49V14.4h7.48v15h7.49v7.48h-7.49v7.5h22.48v7.46h-7.49v7.57h7.49V51.82h29.89v7.57h7.58V51.82h22.46V44.36h-7.49v-7.5h7.49v7.5h7.49v-15h-7.49V23.67q-2.85-.93-5.75-1.82h-1.74v-.51q-3.72-1.1-7.48-2.06c-2.51-.64-5-1.22-7.49-1.78s-5-1.08-7.49-1.51V44.37h-7.48V36.88h-7.49v7.49h-7.52V36.88h-7.49v-15h-7.49V14.4h7.49v7.49h7.49V14.4h7.48v-.62c-2.48-.29-5-.54-7.48-.75s-5-.37-7.49-.48-5-.2-7.49-.24V14.4h-7.5V12.31c-2.51,0-5,.12-7.49.24s-5,.28-7.48.48-5,.46-7.49.75Zm74.92,15h7.49v7.5h-7.49Z"/><polygon id="Shape-10" points="189.33 74.31 189.33 74.31 189.33 66.82 181.84 66.82 181.84 74.31 181.84 78.42 189.33 78.42 189.33 74.31"/><polygon id="Shape-11" points="196.82 44.36 189.33 44.36 181.84 44.36 181.84 36.87 174.36 36.87 174.36 44.36 174.36 51.84 181.84 51.84 181.84 59.33 189.33 59.33 189.33 51.84 196.82 51.84 204.3 51.84 204.3 44.36 204.3 36.87 196.82 36.87 196.82 44.36"/><polygon id="Shape-12" points="211.79 59.33 204.3 59.33 196.82 59.33 196.82 66.82 196.82 74.31 204.3 74.31 204.3 66.82 211.79 66.82 211.79 74.31 219.28 74.31 219.28 74.31 219.28 78.42 226.78 78.42 226.78 74.31 234.25 74.31 241.75 74.31 241.75 78.42 249.24 78.42 249.24 74.31 249.24 74.31 249.24 66.82 241.75 66.82 234.25 66.82 226.78 66.82 226.78 59.33 219.28 59.33 211.79 59.33"/><rect id="Rectangle-path-2" x="219.28" y="29.38" width="7.49" height="7.49"/><polygon id="Shape-13" points="219.28 51.84 226.78 51.84 226.78 59.33 234.25 59.33 234.25 51.84 226.78 51.84 226.78 44.36 219.28 44.36 219.28 51.84"/><rect id="Rectangle-path-3" x="256.72" y="21.89" width="7.49" height="7.49"/><polygon id="Shape-14" points="256.72 74.31 256.72 74.31 256.72 78.42 264.21 78.42 264.21 74.31 264.21 74.31 264.21 66.82 256.72 66.82 256.72 74.31"/><rect id="Rectangle-path-4" x="264.21" y="59.33" width="7.49" height="7.49"/><rect id="Rectangle-path-5" x="271.7" y="74.31" width="7.49" height="4.11"/><rect id="Rectangle-path-6" x="286.67" y="59.33" width="7.49" height="7.49"/><rect id="Rectangle-path-7" x="286.67" y="74.31" width="7.48" height="4.11"/><path id="Shape-15" d="M324.1,36.86h7.49V32.53c-2.39-1.08-4.82-2.17-7.24-3.15a1.09,1.09,0,0,0-.25-.1q-3.71-1.55-7.48-2.94v3h7.48Z"/><path id="Shape-16" d="M316.62,51.82v7.57h-15v7.5h7.49v7.49h-7.49v4.11h15V66.82h7.49V59.33H369V54.18c-1.08-.79-2.16-1.57-3.32-2.34H354.06V44.36c-2.47-1.48-5-2.91-7.49-4.33V51.82Z"/><polygon id="Shape-17" points="324.11 74.31 324.11 78.42 331.59 78.42 339.08 78.42 346.57 78.42 354.05 78.42 361.54 78.42 361.54 74.31 369.03 74.31 369.03 66.82 361.54 66.82 354.06 66.82 354.06 74.31 354.05 74.31 346.57 74.31 339.08 74.31 339.08 74.31 339.08 66.82 331.59 66.82 324.11 66.82 324.11 74.31 324.11 74.31"/><rect id="Rectangle-path-8" x="369.03" y="74.31" width="7.48" height="4.11"/><polygon id="Shape-18" points="384 66.82 376.52 66.82 376.52 74.31 376.52 74.31 376.52 78.42 384 78.42 391.49 78.42 391.49 74.31 384 74.31 384 66.82"/><path id="Shape-19" d="M384,65.89v1h1.14A9.28,9.28,0,0,0,384,65.89Z"/><rect id="Rectangle-path-9" x="113.76" y="417.7" width="7.49" height="7.49"/><rect id="Rectangle-path-10" x="128.73" y="425.19" width="7.49" height="7.49"/><rect id="Rectangle-path-11" x="128.73" y="397.57" width="7.48" height="5.15"/><path id="Shape-20" d="M143.71,443.15v-3h-6.22C139.5,441.2,141.66,442.19,143.71,443.15Z"/><polygon id="Shape-21" points="121.25 402.73 121.25 397.58 91.29 397.58 91.29 402.73 91.29 402.73 91.29 409.56 92.06 410.21 98.78 410.21 98.78 402.73 113.75 402.73 113.75 410.21 128.74 410.21 128.74 402.73 121.25 402.73"/><polygon id="Shape-22" points="143.71 410.22 136.22 410.22 128.74 410.22 128.74 417.71 136.22 417.71 143.71 417.71 143.71 410.22"/><path id="Shape-23" d="M158.68,440.17H151.2v6.27l3,1.22c1.49.6,3,1.18,4.49,1.74,2.48.93,5,1.82,7.49,2.66V440.15Z"/><polygon id="Shape-24" points="173.66 402.73 173.66 402.73 173.66 397.58 166.17 397.58 166.17 402.73 158.68 402.73 158.68 410.22 151.2 410.22 151.2 417.71 151.2 425.2 143.71 425.2 143.71 432.68 151.2 432.68 158.68 432.68 166.17 432.68 166.17 425.2 166.17 417.71 166.17 410.22 173.66 410.22 173.66 402.73"/><polygon id="Shape-25" points="188.63 432.68 196.12 432.68 196.12 440.17 203.6 440.17 203.6 432.68 203.6 425.2 196.12 425.2 188.63 425.2 188.63 417.71 181.14 417.71 181.14 425.2 173.66 425.2 173.66 432.68 173.66 440.17 181.14 440.17 181.14 432.68 188.63 432.68"/><polygon id="Shape-26" points="181.14 402.73 181.14 402.73 181.14 410.22 188.63 410.22 188.63 402.73 188.63 402.73 188.63 397.58 181.14 397.58 181.14 402.73"/><rect id="Rectangle-path-12" x="188.63" y="447.66" width="7.49" height="7.49"/><rect id="Rectangle-path-13" x="203.6" y="447.66" width="7.49" height="7.49"/><rect id="Rectangle-path-14" x="203.6" y="440.17" width="7.49" height="7.49"/><path id="Shape-27" d="M241,447.66H226.09v15H218.6v-7.49H181.14v-7.49h15v-7.49h-15v7.49h-7.48v6.77l2.5.72c1.66.48,3.31.92,5,1.35,2.48.67,5,1.26,7.49,1.81s5,1.09,7.49,1.54,5,.9,7.48,1.28,5,.71,7.49,1c1.53.19,3,.35,4.58.5l2.9.26c2.49.23,5,.39,7.49.52s5,.22,7.48.27v-1.08H241v-7.49h7.49v-7.49Z"/><rect id="Rectangle-path-15" x="241.04" y="417.7" width="7.49" height="7.49"/><path id="Shape-28" d="M248.53,462.64H241v1.08c2.51,0,5-.09,7.49-.21s5-.27,7.48-.47c1.44-.12,2.88-.24,4.33-.38H256v-7.49h-7.49Z"/><rect id="Rectangle-path-16" x="256.02" y="447.66" width="7.49" height="7.49"/><polygon id="Shape-29" points="263.5 397.58 256.01 397.58 256.01 402.73 256.02 402.73 256.02 410.22 263.5 410.22 263.5 402.73 263.5 397.58"/><rect id="Rectangle-path-17" x="263.5" y="410.22" width="7.49" height="7.49"/><rect id="Rectangle-path-18" x="270.99" y="397.57" width="7.49" height="5.15"/><rect id="Rectangle-path-19" x="285.96" y="410.22" width="7.49" height="7.49"/><rect id="Rectangle-path-20" x="285.96" y="397.57" width="7.49" height="5.15"/><path id="Shape-30" d="M315.94,440.17v-7.49h-7.48v7.49H301v-7.49h7.49v-7.49H286v-7.5h-7.48v7.49h-30v7.49H226.09v-7.49h7.48v-7.49h-7.48v-7.47h22.46V397.57h-7.49v5.16h-15v-5.16h-7.48v5.16h-7.49v7.49h-7.49v-7.49h-7.47v15h29.93v7.49H218.6v7.49h7.49v7.49H218.6v7.49h7.49v-7.49h7.48v7.49h15v-7.49H256v-7.49h7.5v7.49H271v-7.49h7.49V460.1q3.76-.69,7.48-1.48t7.49-1.77c2.16-.54,4.27-1.08,6.38-1.71H301v-.32c2.51-.73,5-1.5,7.49-2.32v-4.86h7.49v2.25q3-1.08,5.89-2.25h-5.89Zm-22.46,0H286v-7.49h7.49Z"/><path id="Shape-31" d="M323.41,447c2.52-1,5-2.1,7.49-3.25v-3.61h-7.49Z"/><path id="Shape-32" d="M345.87,432.68v3.66c2.16-1.18,4.33-2.4,6.49-3.66l1.08-.62V425.2H346Z"/><path id="Shape-33" d="M360.84,425.19h3.34c1.4-.95,2.78-1.9,4.15-2.87v-4.63h-7.49Z"/><polygon id="Shape-34" points="360.84 410.22 368.33 410.22 368.33 402.73 360.84 402.73 360.84 397.58 353.36 397.58 345.87 397.58 338.38 397.58 330.9 397.58 323.41 397.58 323.41 402.73 323.41 402.73 323.41 410.22 330.9 410.22 338.38 410.22 338.38 402.73 338.38 402.73 345.87 402.73 353.36 402.73 353.36 402.73 353.36 410.22 360.84 410.22"/><polygon id="Shape-35" points="315.92 402.73 315.92 402.73 315.92 397.58 308.43 397.58 300.94 397.58 300.94 402.73 308.43 402.73 308.43 410.22 300.94 410.22 300.94 417.71 308.43 417.71 315.92 417.71 315.92 425.2 323.41 425.2 330.9 425.2 338.38 425.2 345.87 425.2 353.36 425.2 360.84 425.2 360.84 417.71 353.36 417.71 345.87 417.71 338.38 417.71 330.9 417.71 323.41 417.71 323.41 410.22 315.92 410.22 315.92 402.73"/><polygon id="Shape-36" points="375.82 397.58 368.33 397.58 368.33 402.73 375.82 402.73 375.82 410.22 383.31 410.22 383.31 410.75 383.94 410.22 383.31 410.22 383.31 402.73 390.79 402.73 390.79 397.58 375.82 397.58"/><polygon id="Shape-37" points="401.66 106.97 401.66 99.48 401.66 99.48 409.15 99.48 409.15 91.99 401.66 91.99 401.66 91.99 397.58 91.99 397.58 99.48 397.58 106.97 397.58 114.46 397.58 121.94 401.66 121.94 401.66 121.94 401.66 129.43 409.15 129.43 409.15 121.94 409.15 114.46 401.66 114.46 401.66 114.46 401.66 106.97"/><rect id="Rectangle-path-21" x="416.64" y="114.46" width="7.49" height="7.49"/><rect id="Rectangle-path-22" x="409.15" y="106.97" width="7.49" height="7.49"/><rect id="Rectangle-path-23" x="424.13" y="129.43" width="7.49" height="7.49"/><rect id="Rectangle-path-24" x="397.57" y="129.43" width="4.08" height="7.49"/><path id="Shape-38" d="M439.89,136.91l-.79-1.55v9h4.33Q441.75,140.64,439.89,136.91Z"/><polygon id="Shape-39" points="409.15 144.41 416.64 144.41 416.64 136.92 416.64 129.43 409.15 129.43 409.15 136.92 409.15 144.41"/><path id="Shape-40" d="M446.59,166.87h5.74c-.84-2.52-1.71-5-2.62-7.49s-1.92-5-2.95-7.49h-7.57v15Z"/><polygon id="Shape-41" points="409.15 166.87 416.64 166.87 424.13 166.87 431.61 166.87 431.61 159.38 431.61 151.89 431.61 144.41 424.13 144.41 424.13 151.89 416.64 151.89 409.15 151.89 409.15 159.38 401.66 159.38 401.66 166.87 401.66 166.87 397.58 166.87 397.58 174.35 401.66 174.35 401.66 174.36 409.15 174.36 409.15 166.87"/><polygon id="Shape-42" points="397.58 181.84 397.58 189.33 401.66 189.33 401.66 189.33 409.15 189.33 409.15 181.84 401.66 181.84 401.66 181.84 397.58 181.84"/><polygon id="Shape-43" points="431.61 196.82 431.61 189.33 431.61 181.84 439.1 181.84 439.1 174.36 431.61 174.36 424.13 174.36 424.13 181.84 416.64 181.84 416.64 189.33 424.13 189.33 424.13 196.82 424.13 204.3 431.61 204.3 439.1 204.3 439.1 196.82 431.61 196.82"/><path id="Shape-44" d="M454.08,211.79h7.49V204.3h-.32c-.38-2.51-.79-5-1.26-7.49s-1-5-1.5-7.48-1.15-5-1.79-7.49-1.34-5-2.06-7.49l-.55-1.86v1.86h-7.48v7.49h7.48v7.45h-7.48V181.8h-7.5v15.07h15v7.48h-15v7.49h15v7.48h7.49v-7.48Z"/><path id="Shape-45" d="M461.57,226.76v7.49h2.17c0-2.5-.12-5-.24-7.49s-.28-5-.49-7.48-.45-5-.75-7.49h-.65Z"/><rect id="Rectangle-path-25" x="439.1" y="219.28" width="7.49" height="7.49"/><rect id="Rectangle-path-26" x="424.13" y="219.28" width="7.49" height="7.49"/><polygon id="Shape-46" points="416.64 211.79 416.64 211.79 416.64 204.3 416.64 196.82 409.15 196.82 401.66 196.82 401.66 204.3 409.15 204.3 409.15 211.79 401.66 211.79 401.66 219.28 401.66 219.28 397.58 219.28 397.58 226.78 401.66 226.78 401.66 234.25 401.66 241.75 397.58 241.75 397.58 249.24 401.66 249.24 401.66 249.24 409.15 249.24 409.15 241.75 409.15 234.25 409.15 226.78 416.64 226.78 416.64 219.28 416.64 211.79"/><path id="Shape-47" d="M446.59,226.76v7.49H439.1v-7.49h-7.49v22.48h-7.43v29.89h-7.57v7.58h7.57v22.46h7.48v-7.49h7.49v7.49h-7.49v7.49h14.93v-7.49h5.74c.61-1.86,1.21-3.74,1.78-5.63v-1.86h.55c.73-2.47,1.42-5,2.06-7.48s1.22-5,1.78-7.49,1.08-5,1.51-7.49H431.6v-7.48h7.49v-7.49H431.6v-7.52h7.49v-7.49h15v-7.49h7.49v-15Zm-7.49,59.95v7.49h-7.49v-7.49Z"/><rect id="Rectangle-path-27" x="416.64" y="226.76" width="7.49" height="7.49"/><path id="Shape-48" d="M461.57,249.24v15h.65q.45-3.72.75-7.49c.2-2.52.36-5,.48-7.48s.21-5,.24-7.49h-2.16Z"/><rect id="Rectangle-path-28" x="416.64" y="241.75" width="7.49" height="7.49"/><rect id="Rectangle-path-29" x="454.08" y="249.24" width="7.49" height="7.49"/><rect id="Rectangle-path-30" x="446.59" y="256.72" width="7.49" height="7.49"/><polygon id="Shape-49" points="401.66 256.72 401.66 256.72 397.58 256.72 397.58 264.21 401.66 264.21 401.66 264.21 409.15 264.21 409.15 256.72 401.66 256.72"/><rect id="Rectangle-path-31" x="409.15" y="264.21" width="7.49" height="7.49"/><rect id="Rectangle-path-32" x="397.57" y="271.7" width="4.08" height="7.49"/><rect id="Rectangle-path-33" x="409.15" y="286.67" width="7.49" height="7.49"/><rect id="Rectangle-path-34" x="397.57" y="286.67" width="4.08" height="7.48"/><path id="Shape-50" d="M446.59,324.11H439.1v7.48h4.33q1.63-3.54,3.12-7.17l.13-.32q1.54-3.71,2.94-7.49h-3.06Z"/><polygon id="Shape-51" points="401.66 324.11 397.58 324.11 397.58 331.59 397.58 339.08 397.58 346.57 397.58 354.05 397.58 361.54 401.66 361.54 401.66 361.54 401.66 369.03 409.15 369.03 409.15 361.54 409.15 354.06 401.66 354.06 401.66 354.05 401.66 346.57 401.66 339.08 401.66 339.08 409.15 339.08 409.15 331.59 409.15 324.11 401.66 324.11 401.66 324.11"/><path id="Shape-52" d="M424.18,339.09V316.63h-7.57v-15h-7.5v7.49h-7.49v-7.49h-4.09v15h11.58v7.48h7.5V369h5.18c.78-1.08,1.55-2.16,2.3-3.25V354.1h7.49v-7.49h-7.49Z"/><path id="Shape-53" d="M431.61,354.06h0q2.2-3.71,4.33-7.49h-4.33Z"/><path id="Shape-54" d="M401.66,369h-4.09v28.54h-3.4V401c.69-.65,1.38-1.32,2.06-2q2.76-2.7,5.42-5.52V384h7.49v-7.45h-7.49Z"/><path id="Shape-55" d="M409.15,385.21l1-1.18h-1Z"/><path id="Shape-56" d="M394.17,75v2h2.06Z"/><path id="Shape-57" d="M394.17,78.42h3.4v6.09h4.09v-2c-1.78-1.88-3.58-3.72-5.42-5.52h-2.06Z"/><rect id="Rectangle-path-35" x="66.85" y="92" width="7.49" height="7.49"/><rect id="Rectangle-path-36" x="51.87" y="114.46" width="7.49" height="7.49"/><polygon id="Shape-58" points="66.85 121.94 66.85 129.43 74.34 129.43 74.34 121.94 74.34 114.46 66.85 114.46 66.85 121.94"/><polygon id="Shape-59" points="78.42 114.46 78.42 106.97 78.42 99.48 78.42 91.99 74.34 91.99 74.34 99.48 74.34 106.97 74.34 114.46 74.34 121.94 78.42 121.94 78.42 114.46"/><rect id="Rectangle-path-37" x="44.39" y="129.43" width="7.49" height="7.49"/><polygon id="Shape-60" points="59.36 136.92 59.36 144.41 66.85 144.41 66.85 136.92 66.85 129.43 59.36 129.43 59.36 136.92"/><rect id="Rectangle-path-38" x="74.34" y="129.43" width="4.08" height="7.49"/><path id="Shape-61" d="M36.89,136.91v-1.55l-.78,1.55c-1.23,2.48-2.43,5-3.59,7.49h4.33Z"/><polygon id="Shape-62" points="66.85 151.89 59.36 151.89 51.87 151.89 51.87 144.41 44.39 144.41 44.39 151.89 44.39 159.38 44.39 166.87 51.87 166.87 59.36 166.87 66.85 166.87 66.85 174.36 74.34 174.36 74.34 166.87 74.34 159.38 66.85 159.38 66.85 151.89"/><path id="Shape-63" d="M29.41,159.38v-7.49h-.13c-1,2.48-2,5-2.94,7.49s-1.79,5-2.67,7.49h5.71Z"/><polygon id="Shape-64" points="36.9 159.38 36.9 151.89 29.41 151.89 29.41 159.38 29.41 166.87 36.9 166.87 36.9 159.38"/><rect id="Rectangle-path-39" x="74.34" y="166.87" width="4.08" height="7.48"/><polygon id="Shape-65" points="44.39 189.33 44.39 196.82 36.9 196.82 36.9 204.3 44.39 204.3 51.87 204.3 51.87 196.82 51.87 189.33 59.36 189.33 59.36 181.84 51.87 181.84 51.87 174.36 44.39 174.36 36.9 174.36 36.9 181.84 44.39 181.84 44.39 189.33"/><rect id="Rectangle-path-40" x="66.85" y="181.84" width="7.49" height="7.49"/><rect id="Rectangle-path-41" x="74.34" y="181.84" width="4.08" height="7.49"/><polygon id="Shape-66" points="59.36 196.82 59.36 204.3 59.36 211.79 59.36 211.79 59.36 219.28 59.36 226.78 66.85 226.78 66.85 234.25 66.85 241.75 66.85 249.24 74.34 249.24 74.34 241.75 74.34 234.25 74.34 226.78 74.34 219.28 74.34 211.79 66.85 211.79 66.85 204.3 74.34 204.3 74.34 196.82 66.85 196.82 59.36 196.82"/><rect id="Rectangle-path-42" x="51.87" y="241.75" width="7.49" height="7.49"/><rect id="Rectangle-path-43" x="29.41" y="219.28" width="7.49" height="7.49"/><rect id="Rectangle-path-44" x="74.34" y="219.28" width="4.08" height="7.49"/><path id="Shape-67" d="M36.9,234.25H29.41v-7.49h-15v-7.48h7.49v-7.49h15V204.3h-15v-7.43h15v-15H29.41v7.45H21.92V181.8h7.49v-7.48H21.92v-1.81c-.19.61-.37,1.22-.55,1.85-.73,2.47-1.42,5-2.06,7.48s-1.22,5-1.77,7.49-1.09,5-1.52,7.49-.88,5-1.24,7.48h-.34v7.49h-.65c-.29,2.48-.53,5-.74,7.48s-.36,5-.49,7.49-.2,5-.24,7.49h2.16v7.48H12.32c0,2.52.12,5,.24,7.5s.28,5,.49,7.49.46,5,.74,7.49h.65v-7.49h7.49v-7.49h-7.5v-7.5h7.49v7.5h15v7.49h7.49v7.49H36.9v7.49h7.49v7.49H16c.47,2.5,1,5,1.52,7.48s1.13,5,1.77,7.49,1.34,5,2.06,7.49h.55v1.85q.85,2.82,1.79,5.64h5.7v7.48h15v-7.48H36.9v-7.49h7.49v7.49h7.48V286.71h7.52v-7.48H51.87v-30H44.39V226.76H36.9Zm7.49,59.91H36.9v-7.45h7.49Z"/><rect id="Rectangle-path-45" x="51.87" y="226.76" width="7.49" height="7.49"/><rect id="Rectangle-path-46" x="44.39" y="219.28" width="7.49" height="7.49"/><rect id="Rectangle-path-47" x="74.34" y="241.75" width="4.08" height="7.49"/><rect id="Rectangle-path-48" x="21.92" y="256.72" width="7.49" height="7.49"/><rect id="Rectangle-path-49" x="66.85" y="256.72" width="7.49" height="7.49"/><rect id="Rectangle-path-50" x="74.34" y="256.72" width="4.08" height="7.48"/><rect id="Rectangle-path-51" x="59.36" y="264.21" width="7.49" height="7.49"/><rect id="Rectangle-path-52" x="74.34" y="271.7" width="4.08" height="7.49"/><rect id="Rectangle-path-53" x="59.36" y="286.67" width="7.49" height="7.49"/><rect id="Rectangle-path-54" x="74.34" y="286.67" width="4.08" height="7.48"/><path id="Shape-68" d="M66.85,301.64H59.39v15H51.87v29.95H40.05c1.39,2.53,2.82,5,4.33,7.49H51.9v11.67L54.2,369h5.19V324.06h7.5v-7.48h7.49v-7.5H66.85Z"/><polygon id="Shape-69" points="78.42 309.13 78.42 301.64 74.34 301.64 74.34 309.13 74.34 316.62 78.42 316.62 78.42 309.13"/><path id="Shape-70" d="M29.41,316.62H26.34c.94,2.52,1.91,5,2.94,7.49,0,.09.09.2.13.32,1,2.41,2.05,4.8,3.13,7.17h4.33v-7.48H29.41Z"/><polygon id="Shape-71" points="66.85 339.08 74.34 339.08 74.34 331.59 74.34 324.11 66.85 324.11 66.85 331.59 66.85 339.08"/><polygon id="Shape-72" points="66.85 361.54 66.85 369.03 74.34 369.03 74.34 361.54 74.34 354.06 66.85 354.06 66.85 361.54"/><polygon id="Shape-73" points="78.42 354.05 78.42 346.57 78.42 339.08 78.42 331.59 78.42 324.11 74.34 324.11 74.34 331.59 74.34 339.08 74.34 346.57 74.34 354.05 74.34 361.54 78.42 361.54 78.42 354.05"/><rect id="Rectangle-path-55" x="66.85" y="376.52" width="7.49" height="7.49"/><path id="Shape-74" d="M66.85,385.21V384h-1Z"/><path id="Shape-75" d="M81.83,75c-.69.65-1.38,1.32-2.06,2h2.06Z"/><path id="Shape-76" d="M74.34,82.54v2h4.08V78.42h3.41V77H79.77Q77,79.74,74.34,82.54Z"/><path id="Shape-77" d="M78.42,391.49V369H74.34v24.43c1.78,1.88,3.58,3.72,5.42,5.52.68.67,1.36,1.35,2.06,2v-3.42h-3.4Z"/></g></g></g></svg>