<svg id="Layer_1" data-name="Layer 1" xmlns="http://www.w3.org/2000/svg" viewBox="0 0 113 113">
  <title>QRlogo</title>
  <g id="Page-1">
    <g id="_15.2-Receive-Screen-Celery-Copy-4" data-name="15.2-Receive-Screen-Celery-Copy-4">
      <g id="QRNano">
        <g id="nano-mark">
          <circle id="Oval-4" cx="56.5" cy="56.5" r="56.5" style="fill: #fff"/>
          <circle id="Oval-4-2" data-name="Oval-4" cx="56.5" cy="56.5" r="48.59" style="fill: #a3cdff"/>
          <path id="Shape" d="M87.21,43.42H81.39a1.43,1.43,0,0,0-1.45,1.45v5.42l-1.86,1.85H72.66a1.47,1.47,0,0,0-1.45,1.45V59l-1.86,1.86H63.72l-2.87-2.42V54l1.86-1.85h5.42a1.45,1.45,0,0,0,1.45-1.45V44.87a1.42,1.42,0,0,0-.43-1,1.45,1.45,0,0,0-1-.42H62.31a1.43,1.43,0,0,0-1.45,1.45v5.42L59,52.14l-5.63,0L50.5,49.74V44.87a1.45,1.45,0,0,0-1.45-1.45H43.23a1.43,1.43,0,0,0-1.45,1.45v5.42l-1.86,1.85H34.51a1.45,1.45,0,0,0-1.45,1.45V59L31.2,60.86H25.79a1.47,1.47,0,0,0-1.46,1.46v5.81a1.47,1.47,0,0,0,1.46,1.45H31.6a1.45,1.45,0,0,0,1.46-1.45V62.71l1.85-1.85h5.42a1.45,1.45,0,0,0,1.45-1.45V54l1.85-1.85,5.63,0,2.88,2.42V59l-1.85,1.85H44.87a1.45,1.45,0,0,0-1,.42,1.5,1.5,0,0,0-.43,1v5.82a1.45,1.45,0,0,0,1.46,1.45h5.81a1.45,1.45,0,0,0,1.46-1.45V62.71L54,60.86l5.63,0,2.88,2.42v4.87a1.4,1.4,0,0,0,.42,1,1.42,1.42,0,0,0,1,.43h5.81a1.45,1.45,0,0,0,1.46-1.45V62.71l1.85-1.86h5.42a1.45,1.45,0,0,0,1.45-1.45V54l1.85-1.85h5.42a1.46,1.46,0,0,0,1.46-1.45V44.87a1.46,1.46,0,0,0-.43-1A1.44,1.44,0,0,0,87.21,43.42Z" style="fill: #2a3a4d"/>
        </g>
      </g>
    </g>
  </g>
</svg>
