<?xml version="1.0" encoding="UTF-8"?>
<svg width="385px" height="51px" viewBox="0 0 385 51" version="1.1" xmlns="http://www.w3.org/2000/svg" xmlns:xlink="http://www.w3.org/1999/xlink">
    <!-- Generator: Sketch 52.1 (67048) - http://www.bohemiancoding.com/sketch -->
    <title>sharecard_logo.svg</title>
    <desc>Created with Sketch.</desc>
    <g id="Page-1" stroke="none" stroke-width="1" fill="none" fill-rule="evenodd">
        <g id="sharecard-copy-2" transform="translate(-518.000000, -59.000000)" fill="#A3CDFF" fill-rule="nonzero">
            <path d="M713.368929,59.5297982 C714.03493,59.5297982 714.547239,59.731626 714.854624,60.1352818 C715.21324,60.5137091 715.392548,61.0687357 715.392548,61.7751333 L715.392548,107.564832 C715.392548,108.220773 715.21324,108.750571 714.829009,109.179455 C714.444777,109.60834 713.932468,109.810168 713.266467,109.810168 C712.549235,109.810168 711.908849,109.456969 711.345309,108.750571 L680.094478,67.1992574 L680.094478,107.564832 C680.094478,108.220773 679.91517,108.750571 679.530938,109.179455 C679.146707,109.60834 678.634398,109.810168 678.019627,109.810168 C677.302395,109.810168 676.790086,109.60834 676.457086,109.204684 C676.124085,108.801028 675.970393,108.246002 675.970393,107.539604 L675.970393,61.7751333 C675.970393,61.1191927 676.175316,60.5893945 676.585163,60.1605103 C676.99501,59.731626 677.55855,59.5297982 678.275782,59.5297982 C679.018629,59.5297982 679.6334,59.882997 680.120093,60.5893945 L711.294079,102.039794 L711.294079,61.7751333 C711.294079,61.1191927 711.473387,60.5893945 711.857618,60.1605103 C712.24185,59.731626 712.754158,59.5297982 713.368929,59.5297982 Z M877.179641,59.1765994 C891.344977,59.1765994 902.897538,70.5294174 902.897538,84.5059977 C902.897538,98.4825781 891.370592,109.835396 877.179641,109.835396 C862.988689,109.835396 851.461743,98.4825781 851.461743,84.5059977 C851.461743,70.5294174 862.988689,59.1765994 877.179641,59.1765994 Z M877.179641,105.697925 C889.039587,105.697925 898.696607,96.186786 898.696607,84.5059977 C898.696607,72.8252094 889.039587,63.3140708 877.179641,63.3140708 C865.319694,63.3140708 855.662675,72.8252094 855.662675,84.5059977 C855.662675,96.186786 865.319694,105.697925 877.179641,105.697925 Z M758.631404,61.0182788 L779.405522,107.135948 C779.533599,107.413462 779.610446,107.690975 779.610446,107.968488 C779.610446,108.473058 779.405522,108.901942 778.97006,109.255141 C778.534597,109.60834 778.022289,109.784939 777.458749,109.784939 C777.074518,109.784939 776.715902,109.658797 776.357285,109.43174 C775.998669,109.204684 775.7169,108.876714 775.537591,108.447829 L770.107119,96.2120145 L742.416833,96.2120145 L736.909514,108.447829 C736.474052,109.330826 735.808051,109.784939 734.91151,109.784939 C734.347971,109.784939 733.861277,109.60834 733.45143,109.255141 C733.041583,108.901942 732.83666,108.447829 732.83666,107.892803 C732.83666,107.564832 732.887891,107.287319 732.990353,107.11072 L753.841317,60.9930503 C754.27678,59.9586824 755.045243,59.4541127 756.197937,59.4541127 C756.710246,59.4541127 757.196939,59.6054836 757.658017,59.882997 C758.119095,60.1857388 758.452096,60.5389375 758.631404,61.0182788 Z M744.056221,92.4277418 L768.390885,92.4277418 L756.249168,65.2314356 L744.056221,92.4277418 Z M834.350632,59.5297982 C835.016633,59.5297982 835.528942,59.731626 835.836327,60.1352818 C836.194943,60.5137091 836.374251,61.0687357 836.374251,61.7751333 L836.374251,107.564832 C836.374251,108.220773 836.194943,108.750571 835.810712,109.179455 C835.42648,109.60834 834.914172,109.810168 834.24817,109.810168 C833.530938,109.810168 832.890552,109.456969 832.327013,108.750571 L801.076181,67.1992574 L801.076181,107.539604 C801.076181,108.195545 800.896873,108.725343 800.512641,109.154227 C800.12841,109.583111 799.616101,109.784939 799.001331,109.784939 C798.284098,109.784939 797.77179,109.583111 797.438789,109.179455 C797.105788,108.7758 796.952096,108.220773 796.952096,107.514375 L796.952096,61.7499048 C796.952096,61.0939642 797.157019,60.564166 797.566866,60.1352818 C797.976713,59.7063976 798.540253,59.5045697 799.257485,59.5045697 C800.000333,59.5045697 800.615103,59.8577685 801.101796,60.564166 L832.301397,102.039794 L832.301397,61.7751333 C832.301397,61.1191927 832.480705,60.5893945 832.864937,60.1605103 C833.223553,59.731626 833.735862,59.5297982 834.350632,59.5297982 Z M586.18829,84.5059977 C586.18829,89.1480388 582.37159,92.8818545 577.683965,92.8818545 C572.996341,92.8818545 569.179641,89.1228104 569.179641,84.5059977 C569.179641,78.2241051 567.05356,76.1301409 560.675316,76.1301409 C554.297073,76.1301409 552.170991,78.2241051 552.170991,84.5059977 C552.170991,89.1480388 548.354291,92.8818545 543.666667,92.8818545 C538.979042,92.8818545 535.162342,89.1228104 535.162342,84.5059977 C535.162342,79.8639566 538.979042,76.1301409 543.666667,76.1301409 C550.04491,76.1301409 552.170991,74.0361767 552.170991,67.7542841 C552.170991,63.112243 555.987691,59.3784273 560.675316,59.3784273 C565.362941,59.3784273 569.179641,63.1374714 569.179641,67.7542841 C569.179641,74.0361767 571.305722,76.1301409 577.683965,76.1301409 C582.397206,76.1301409 586.18829,79.8639566 586.18829,84.5059977 Z M526.606786,109.658797 C521.909978,109.658797 518.102462,105.908798 518.102462,101.28294 C518.102462,96.6570818 521.909978,92.907083 526.606786,92.907083 C531.303595,92.907083 535.111111,96.6570818 535.111111,101.28294 C535.111111,105.908798 531.303595,109.658797 526.606786,109.658797 Z M637.291084,67.7290556 C637.291084,72.3710967 633.474385,76.1049124 628.78676,76.1049124 C622.408516,76.1049124 620.282435,78.1988766 620.282435,84.4807692 C620.282435,89.1228104 616.465735,92.856626 611.77811,92.856626 C605.399867,92.856626 603.273786,94.9505903 603.273786,101.232483 C603.273786,105.874524 599.457086,109.60834 594.769461,109.60834 C590.081836,109.60834 586.265136,105.849296 586.265136,101.232483 C586.265136,96.5904417 590.081836,92.856626 594.769461,92.856626 C601.147705,92.856626 603.273786,90.7626618 603.273786,84.4807692 C603.273786,79.8387281 607.090486,76.1049124 611.77811,76.1049124 C618.156354,76.1049124 620.282435,74.0109482 620.282435,67.7290556 C620.282435,63.0870145 624.099135,59.3531988 628.78676,59.3531988 C633.474385,59.3531988 637.291084,63.112243 637.291084,67.7290556 Z" id="sharecard_logo.svg"></path>
        </g>
    </g>
</svg>