<?xml version="1.0" encoding="UTF-8"?>
<svg width="382px" height="37px" viewBox="0 0 382 37" version="1.1" xmlns="http://www.w3.org/2000/svg" xmlns:xlink="http://www.w3.org/1999/xlink">
    <!-- Generator: Sketch 52.1 (67048) - http://www.bohemiancoding.com/sketch -->
    <title>$BAN BANANO.CC</title>
    <desc>Created with Sketch.</desc>
    <g id="Page-1" stroke="none" stroke-width="1" fill="none" fill-rule="evenodd">
        <g id="sharecard-copy-3" transform="translate(-516.000000, -400.000000)" fill="#FBDD11">
            <path d="M535.649059,424.742 C535.649059,426.743343 534.939733,428.42166 533.521059,429.777 C532.102385,431.13234 530.202404,431.949332 527.821059,432.228 L527.821059,436.37 L525.161059,436.37 L525.161059,432.266 C523.438384,432.164666 521.8424,431.829003 520.373059,431.259 C518.903718,430.688997 517.611731,429.884672 516.497059,428.846 L517.675059,426.452 C518.992399,427.566672 520.328719,428.377331 521.684059,428.884 C523.039399,429.390669 524.527717,429.644 526.149059,429.644 C528.150402,429.644 529.708387,429.226004 530.823059,428.39 C531.937731,427.553996 532.495059,426.363341 532.495059,424.818 C532.495059,423.905995 532.210062,423.165003 531.640059,422.595 C531.070056,422.024997 530.348063,421.581668 529.474059,421.265 C528.600054,420.948332 527.415733,420.612668 525.921059,420.258 C523.995716,419.776664 522.444065,419.295336 521.266059,418.814 C520.088053,418.332664 519.081063,417.598005 518.245059,416.61 C517.409055,415.621995 516.991059,414.292008 516.991059,412.62 C516.991059,411.251993 517.333055,410.017006 518.017059,408.915 C518.701062,407.812994 519.657386,406.920003 520.886059,406.236 C522.114732,405.551997 523.527051,405.134001 525.123059,404.982 L525.123059,400.84 L527.783059,400.84 L527.783059,404.982 C529.227066,405.108667 530.614052,405.46333 531.944059,406.046 C533.274065,406.62867 534.407721,407.375995 535.345059,408.288 L534.167059,410.682 C531.937714,408.604656 529.35374,407.566 526.415059,407.566 C524.489716,407.566 522.969731,408.002996 521.855059,408.877 C520.740387,409.751004 520.183059,410.960659 520.183059,412.506 C520.183059,413.570005 520.493389,414.418663 521.114059,415.052 C521.734729,415.685336 522.501054,416.172998 523.413059,416.515 C524.325063,416.857002 525.579051,417.230665 527.175059,417.636 C529.024401,418.117336 530.506387,418.573331 531.621059,419.004 C532.735731,419.434669 533.685722,420.112329 534.471059,421.037 C535.256396,421.961671 535.649059,423.196659 535.649059,424.742 Z M555.95,418.244 C557.495341,418.649335 558.692329,419.409328 559.541,420.524 C560.389671,421.638672 560.814,423.031992 560.814,424.704 C560.814,427.060012 560.041341,428.864994 558.496,430.119 C556.950659,431.373006 554.759348,432 551.922,432 L540.75,432 L540.75,405.21 L551.504,405.21 C554.265347,405.21 556.405992,405.817994 557.926,407.034 C559.446008,408.250006 560.206,409.972656 560.206,412.202 C560.206,413.646007 559.832337,414.887328 559.085,415.926 C558.337663,416.964672 557.292673,417.737331 555.95,418.244 Z M543.828,417.104 L551.048,417.104 C553.049343,417.104 554.562995,416.698671 555.589,415.888 C556.615005,415.077329 557.128,413.899341 557.128,412.354 C557.128,409.313985 555.101354,407.794 551.048,407.794 L543.828,407.794 L543.828,417.104 Z M551.618,429.416 C553.720677,429.416 555.272328,429.029671 556.273,428.257 C557.273672,427.484329 557.774,426.274675 557.774,424.628 C557.774,421.33465 555.722021,419.688 551.618,419.688 L543.828,419.688 L543.828,429.416 L551.618,429.416 Z M586.510941,432 L583.546941,425.122 L569.562941,425.122 L566.598941,432 L563.406941,432 L575.186941,405.21 L577.884941,405.21 L589.664941,432 L586.510941,432 Z M570.664941,422.538 L582.444941,422.538 L576.554941,408.82 L570.664941,422.538 Z M612.131882,405.21 L615.057882,405.21 L615.057882,432 L612.663882,432 L596.513882,410.454 L596.513882,432 L593.587882,432 L593.587882,405.21 L595.981882,405.21 L612.131882,426.756 L612.131882,405.21 Z M695.224471,418.244 C696.769812,418.649335 697.9668,419.409328 698.815471,420.524 C699.664141,421.638672 700.088471,423.031992 700.088471,424.704 C700.088471,427.060012 699.315812,428.864994 697.770471,430.119 C696.22513,431.373006 694.033818,432 691.196471,432 L680.024471,432 L680.024471,405.21 L690.778471,405.21 C693.539818,405.21 695.680463,405.817994 697.200471,407.034 C698.720478,408.250006 699.480471,409.972656 699.480471,412.202 C699.480471,413.646007 699.106808,414.887328 698.359471,415.926 C697.612134,416.964672 696.567144,417.737331 695.224471,418.244 Z M683.102471,417.104 L690.322471,417.104 C692.323814,417.104 693.837465,416.698671 694.863471,415.888 C695.889476,415.077329 696.402471,413.899341 696.402471,412.354 C696.402471,409.313985 694.375824,407.794 690.322471,407.794 L683.102471,407.794 L683.102471,417.104 Z M690.892471,429.416 C692.995148,429.416 694.546799,429.029671 695.547471,428.257 C696.548142,427.484329 697.048471,426.274675 697.048471,424.628 C697.048471,421.33465 694.996491,419.688 690.892471,419.688 L683.102471,419.688 L683.102471,429.416 L690.892471,429.416 Z M725.785412,432 L722.821412,425.122 L708.837412,425.122 L705.873412,432 L702.681412,432 L714.461412,405.21 L717.159412,405.21 L728.939412,432 L725.785412,432 Z M709.939412,422.538 L721.719412,422.538 L715.829412,408.82 L709.939412,422.538 Z M751.406353,405.21 L754.332353,405.21 L754.332353,432 L751.938353,432 L735.788353,410.454 L735.788353,432 L732.862353,432 L732.862353,405.21 L735.256353,405.21 L751.406353,426.756 L751.406353,405.21 Z M781.359294,432 L778.395294,425.122 L764.411294,425.122 L761.447294,432 L758.255294,432 L770.035294,405.21 L772.733294,405.21 L784.513294,432 L781.359294,432 Z M765.513294,422.538 L777.293294,422.538 L771.403294,408.82 L765.513294,422.538 Z M806.980235,405.21 L809.906235,405.21 L809.906235,432 L807.512235,432 L791.362235,410.454 L791.362235,432 L788.436235,432 L788.436235,405.21 L790.830235,405.21 L806.980235,426.756 L806.980235,405.21 Z M827.661176,432.304 C825.178497,432.304 823.018852,431.746672 821.182176,430.632 C819.345501,429.517328 817.933181,427.93401 816.945176,425.882 C815.957172,423.82999 815.463176,421.410681 815.463176,418.624 C815.463176,415.811986 815.950838,413.373677 816.926176,411.309 C817.901515,409.244323 819.307501,407.661006 821.144176,406.559 C822.980852,405.456994 825.153164,404.906 827.661176,404.906 C830.169189,404.906 832.341501,405.456994 834.178176,406.559 C836.014852,407.661006 837.420838,409.244323 838.396176,411.309 C839.371515,413.373677 839.859176,415.799319 839.859176,418.586 C839.859176,421.372681 839.365181,423.798323 838.377176,425.863 C837.389172,427.927677 835.976852,429.517328 834.140176,430.632 C832.303501,431.746672 830.143856,432.304 827.661176,432.304 Z M827.661176,429.644 C830.498524,429.644 832.708835,428.687676 834.292176,426.775 C835.875518,424.862324 836.667176,422.132684 836.667176,418.586 C836.667176,415.039316 835.881851,412.316009 834.311176,410.416 C832.740502,408.51599 830.523857,407.566 827.661176,407.566 C824.823829,407.566 822.613518,408.522324 821.030176,410.435 C819.446835,412.347676 818.655176,415.064649 818.655176,418.586 C818.655176,422.107351 819.446835,424.830657 821.030176,426.756 C822.613518,428.681343 824.823829,429.644 827.661176,429.644 Z M843.326118,428.124 L847.202118,428.124 L847.202118,432 L843.326118,432 L843.326118,428.124 Z M863.133059,432.304 C860.599713,432.304 858.395735,431.753006 856.521059,430.651 C854.646383,429.548994 853.20873,427.965677 852.208059,425.901 C851.207387,423.836323 850.707059,421.398014 850.707059,418.586 C850.707059,415.773986 851.207387,413.34201 852.208059,411.29 C853.20873,409.23799 854.646383,407.661006 856.521059,406.559 C858.395735,405.456994 860.599713,404.906 863.133059,404.906 C864.982401,404.906 866.679718,405.190997 868.225059,405.761 C869.7704,406.331003 871.113053,407.173328 872.253059,408.288 L871.075059,410.682 C869.783052,409.592661 868.516398,408.807336 867.275059,408.326 C866.033719,407.844664 864.665733,407.604 863.171059,407.604 C860.232377,407.604 857.958734,408.560324 856.350059,410.473 C854.741384,412.385676 853.937059,415.089983 853.937059,418.586 C853.937059,422.107351 854.741384,424.824324 856.350059,426.737 C857.958734,428.649676 860.232377,429.606 863.171059,429.606 C864.665733,429.606 866.033719,429.365336 867.275059,428.884 C868.516398,428.402664 869.783052,427.617339 871.075059,426.528 L872.253059,428.922 C871.113053,430.036672 869.7704,430.878997 868.225059,431.449 C866.679718,432.019003 864.982401,432.304 863.133059,432.304 Z M888.374,432.304 C885.840654,432.304 883.636676,431.753006 881.762,430.651 C879.887324,429.548994 878.449672,427.965677 877.449,425.901 C876.448328,423.836323 875.948,421.398014 875.948,418.586 C875.948,415.773986 876.448328,413.34201 877.449,411.29 C878.449672,409.23799 879.887324,407.661006 881.762,406.559 C883.636676,405.456994 885.840654,404.906 888.374,404.906 C890.223343,404.906 891.920659,405.190997 893.466,405.761 C895.011341,406.331003 896.353994,407.173328 897.494,408.288 L896.316,410.682 C895.023994,409.592661 893.75734,408.807336 892.516,408.326 C891.27466,407.844664 889.906674,407.604 888.412,407.604 C885.473319,407.604 883.199675,408.560324 881.591,410.473 C879.982325,412.385676 879.178,415.089983 879.178,418.586 C879.178,422.107351 879.982325,424.824324 881.591,426.737 C883.199675,428.649676 885.473319,429.606 888.412,429.606 C889.906674,429.606 891.27466,429.365336 892.516,428.884 C893.75734,428.402664 895.023994,427.617339 896.316,426.528 L897.494,428.922 C896.353994,430.036672 895.011341,430.878997 893.466,431.449 C891.920659,432.019003 890.223343,432.304 888.374,432.304 Z" id="$BAN-BANANO.CC"></path>
        </g>
    </g>
</svg>