<svg xmlns="http://www.w3.org/2000/svg" width="388" height="60"><path d="M208.48 44.24h-18.55l-2.405 6.642h-7.055l16.683-41.854h4.102l16.736 41.854h-7.108l-2.404-6.642zm-2.05-5.64L199.23 18.84l-7.2 19.757h14.408zm82.708 5.64H270.6l-2.47 6.642h-7.055L277.81 9.027h4.102L298.66 50.88h-7.12l-2.404-6.642zm-2.05-5.64l-7.198-19.757-7.2 19.757h14.408zm67.75 9.88c-3.25-1.877-5.95-4.565-7.838-7.8-3.868-6.65-3.868-14.85 0-21.5 1.885-3.235 4.587-5.925 7.838-7.8a21.72 21.72 0 0 1 21.634 0c3.252 1.874 5.953 4.564 7.838 7.8 3.868 6.65 3.868 14.85 0 21.5-1.886 3.234-4.588 5.922-7.838 7.8a21.72 21.72 0 0 1-21.634 0zm18.525-5.394c4.7-2.71 7.6-7.73 7.54-13.14-.04-8.414-6.924-15.203-15.382-15.165a15.37 15.37 0 0 0-7.534 2.011c-4.72 2.7-7.606 7.725-7.55 13.14.035 8.414 6.916 15.206 15.372 15.173 2.652-.01 5.254-.706 7.555-2.02zm-197.475-9.84a10.37 10.37 0 0 1 1.933 6.422c.04 2.058-.502 4.084-1.568 5.85-1.045 1.662-2.527 3-4.285 3.9-1.86.967-3.926 1.47-6.022 1.47h-17.74V9.028h15.677c2.11-.027 4.194.455 6.075 1.404 1.798.923 3.3 2.328 4.337 4.055a11.05 11.05 0 0 1 1.581 5.927 10.62 10.62 0 0 1-1.385 5.537 9.67 9.67 0 0 1-3.919 3.626c2.112.642 3.97 1.924 5.317 3.664zm-7.6 10.855a5.92 5.92 0 0 0 2.325-2.158 5.67 5.67 0 0 0 .849-3.069c.01-1.085-.3-2.154-.862-3.08a6.26 6.26 0 0 0-2.325-2.223c-.98-.547-2.09-.83-3.214-.818h-10.595v12.14h10.556c1.14.022 2.264-.25 3.266-.792zm.405-26.23a5.96 5.96 0 0 0-2.312-2.08 6.65 6.65 0 0 0-3.201-.78h-8.714v12.088h8.674c1.116.008 2.214-.274 3.188-.82.958-.532 1.76-1.302 2.325-2.236a5.88 5.88 0 0 0 .862-3.12c.025-1.076-.26-2.137-.823-3.055zm87.672-8.84V50.88h-2.613l-24.495-28.388V50.88h-6.454V9.027h2.52l24.586 28.22V9.027h6.454zm80.657 0V50.88h-2.613l-24.482-28.388V50.88h-6.455V9.027h2.536l24.56 28.22V9.027h6.454zM82.112 59.402c-35.974 4.518-52.54-27.08-49.6-30.165 1.94-2.035 4.956-2.158 7.57-2.228 12.028-.325 29.053 13.686 32.506 13.617 6.687-.136 16.748-10.74 23.34-19.482 2.76-3.656 19.996-9.166 18.084.44-6.198 31.156-27.315 37.24-31.9 37.817zM32.048.44c35.974-4.518 52.54 27.08 49.6 30.165-1.94 2.035-4.955 2.158-7.57 2.228-12.028.325-29.053-13.687-32.506-13.617-6.687.136-16.748 10.74-23.34 19.482-2.758 3.656-19.994 9.166-18.083-.44C6.346 7.1 27.463 1.017 32.048.44z" fill="#FBDD11" fill-rule="nonzero"/></svg>