<svg id="Layer_1" data-name="Layer 1" xmlns="http://www.w3.org/2000/svg" viewBox="0 0 177 88"><title>asd</title><path d="M174,67.56a2,2,0,0,1,2,2v6a2,2,0,0,1-2,2v6a4,4,0,0,1-4,4H132a4,4,0,0,1-4-4v-26a5,5,0,0,1,4.76-5l2,2h-.25a1.5,1.5,0,0,0,0,3H166v-2a1,1,0,0,0-.71-1l1.42-1.42A3,3,0,0,1,168,55.56v2h2a4,4,0,0,1,4,4Zm-2,16v-6h-8a2,2,0,0,1-2-2v-6a2,2,0,0,1,2-2h8v-6a2,2,0,0,0-2-2H134.5A3.53,3.53,0,0,1,131,56h0a3.37,3.37,0,0,1,.18-1.09A2.51,2.51,0,0,0,130,57.06v26.5a2,2,0,0,0,2,2h38A2,2,0,0,0,172,83.56Zm2-8v-6H164v6ZM165.94,51.8,161.7,56h-2.93l1.13-1.13a3.69,3.69,0,0,0,1.09-3,3.8,3.8,0,0,0-1.08-2.37L153.45,43l1.88-1.88a2.32,2.32,0,0,1,3.26,0l7.35,7.35a2.32,2.32,0,0,1,0,3.27h0Zm-26.1,3.12L141,56.05h-2.62l-4.64-4.64a2.32,2.32,0,0,1,0-3.27L141,40.8a2.29,2.29,0,0,1,3.24,0h0l2.13,2.13-6.6,6.6a3.92,3.92,0,0,0-1.11,2.41,3.87,3.87,0,0,0,1.15,3Zm19-4.32a2.31,2.31,0,0,1,0,3.26l-2.2,2.2H143.1l-2.2-2.2a2.31,2.31,0,0,1,0-3.26l7.34-7.35a2.31,2.31,0,0,1,3.26,0l7.35,7.35Zm-2.32,17.46h-1.8a.47.47,0,0,0-.45.44v1.66l-.58.56H152a.45.45,0,0,0-.45.45v1.66l-.58.56h-1.75l-.9-.74V71.3l.57-.57h1.7a.44.44,0,0,0,.45-.43h0V68.5a.44.44,0,0,0-.44-.44h-1.81a.44.44,0,0,0-.45.43h0v1.66l-.58.56H146l-.9-.74V68.5a.47.47,0,0,0-.45-.44h-1.8a.47.47,0,0,0-.45.44v1.66l-.58.56h-1.7a.45.45,0,0,0-.45.45v1.66l-.57.56h-1.7a.45.45,0,0,0-.45.45v1.77a.45.45,0,0,0,.45.45h1.8a.48.48,0,0,0,.32-.13.42.42,0,0,0,.13-.32V74l.58-.57h1.68a.47.47,0,0,0,.45-.44v-1.7l.58-.57h1.75l.9.74v1.36l-.58.57h-1.68a.46.46,0,0,0-.46.45v1.77a.46.46,0,0,0,.46.45h1.8a.46.46,0,0,0,.46-.45V74l.57-.57h1.75l.9.74v1.48a.42.42,0,0,0,.13.32.48.48,0,0,0,.32.13h1.8a.45.45,0,0,0,.45-.45V74l.57-.57h1.7a.48.48,0,0,0,.32-.13.44.44,0,0,0,.13-.31V71.3l.58-.57h1.68a.44.44,0,0,0,.45-.43h0V68.5a.47.47,0,0,0-.45-.44Z" style="fill:#4affae"/></svg>