<svg id="Layer_1" data-name="Layer 1" xmlns="http://www.w3.org/2000/svg" viewBox="0 0 177 88">
  <title>Artboard 1</title>
  <g>
    <path d="M174,67.56a2,2,0,0,1,2,2v6a2,2,0,0,1-2,2v6a4,4,0,0,1-4,4H132a4,4,0,0,1-4-4v-26a5,5,0,0,1,4.76-5l2,2h-.25a1.5,1.5,0,0,0,0,3H166v-2a1,1,0,0,0-.71-1l1.42-1.42A3,3,0,0,1,168,55.56v2h2a4,4,0,0,1,4,4Zm-2,16v-6h-8a2,2,0,0,1-2-2v-6a2,2,0,0,1,2-2h8v-6a2,2,0,0,0-2-2H134.5A3.53,3.53,0,0,1,131,56h0a3.37,3.37,0,0,1,.18-1.09A2.51,2.51,0,0,0,130,57.06v26.5a2,2,0,0,0,2,2h38A2,2,0,0,0,172,83.56Zm2-8v-6H164v6ZM165.94,51.8,161.7,56h-2.93l1.13-1.13a3.69,3.69,0,0,0,1.09-3,3.8,3.8,0,0,0-1.08-2.37L153.45,43l1.88-1.88a2.32,2.32,0,0,1,3.26,0l7.35,7.35a2.31,2.31,0,0,1,0,3.27Zm-26.1,3.12L141,56.05h-2.62l-4.64-4.64a2.32,2.32,0,0,1,0-3.27L141,40.8a2.29,2.29,0,0,1,3.24,0h0l2.13,2.13-6.6,6.6a3.92,3.92,0,0,0-1.11,2.41,3.86,3.86,0,0,0,1.15,3Zm19-4.32a2.31,2.31,0,0,1,0,3.26l-2.2,2.2H143.1l-2.2-2.2a2.31,2.31,0,0,1,0-3.26l7.34-7.35a2.31,2.31,0,0,1,3.26,0l7.35,7.35Zm-2.32,17.46h-1.8a.47.47,0,0,0-.45.44v1.66l-.58.56H152a.45.45,0,0,0-.45.45v1.66l-.58.56h-1.75l-.9-.74V71.3l.57-.57h1.7a.44.44,0,0,0,.45-.43h0V68.5a.44.44,0,0,0-.44-.44h-1.81a.44.44,0,0,0-.45.43h0v1.66l-.58.56H146l-.9-.74V68.5a.47.47,0,0,0-.45-.44h-1.8a.47.47,0,0,0-.45.44v1.66l-.58.56h-1.7a.45.45,0,0,0-.45.45v1.66l-.57.56h-1.7a.45.45,0,0,0-.45.45v1.77a.45.45,0,0,0,.45.45h1.8a.48.48,0,0,0,.32-.13.42.42,0,0,0,.13-.32V74l.58-.57h1.68a.47.47,0,0,0,.45-.44v-1.7l.58-.57h1.75l.9.74v1.36l-.58.57h-1.68a.46.46,0,0,0-.46.45v1.77a.46.46,0,0,0,.46.45h1.8a.46.46,0,0,0,.46-.45V74l.57-.57h1.75l.9.74v1.48a.42.42,0,0,0,.13.32.48.48,0,0,0,.32.13h1.8a.45.45,0,0,0,.45-.45V74l.57-.57h1.7a.48.48,0,0,0,.32-.13.44.44,0,0,0,.13-.31V71.3l.58-.57h1.68a.44.44,0,0,0,.45-.43h0V68.5a.47.47,0,0,0-.45-.44Z" style="fill: #4affae"/>
    <path d="M24,65.48h2v2H24Zm11.8-3A3.21,3.21,0,0,1,39,65.67h0v4.8H31v-8Zm2.2,7v-3.8a2.19,2.19,0,0,0-2.18-2.2H32v6Zm-14,6h2v2H24Zm-3-9.8a3.2,3.2,0,0,1,3.17-3.2H29v8H21Zm7,3.8v-6H24.2a2.19,2.19,0,0,0-2.2,2.2v3.8Zm-7,7.8v-4.8h8v8H24.2a3.2,3.2,0,0,1-3.2-3.2Zm1-3.8v3.8a2.21,2.21,0,0,0,2.17,2.2H28v-6Zm15,0v-1h2v2H38v-1Zm1,3.8v-.8h1v.8a3.2,3.2,0,0,1-3.2,3.2H34v-1h1.8A2.19,2.19,0,0,0,38,77.3h0Zm-4-11.8h2v2H34Zm0,10h2v2H34Zm-3,2h1v3H31Zm4.5-5v1H32v2H31v-3Zm6.54-17a4,4,0,0,1,4,4v24a4,4,0,0,1-4,4H4a4,4,0,0,1-4-4v-24a4,4,0,0,1,4-4Zm2,28v-24a2,2,0,0,0-2-2H4a2,2,0,0,0-2,2v24a2,2,0,0,0,2,2H42a2,2,0,0,0,2-2ZM23.72,43.56h0A1,1,0,0,1,23,42.35v0a45.87,45.87,0,0,1,8.78-17.15,1,1,0,0,1,1.8.74,1.08,1.08,0,0,1-.21.49A43.83,43.83,0,0,0,25,42.81a1,1,0,0,1-1,.75ZM63.5,4.16V4.1A1,1,0,0,1,64.1,6a69.6,69.6,0,0,0-16.9,8,1,1,0,0,1-.54.17,1,1,0,0,1-.55-1.83A71.25,71.25,0,0,1,63.5,4.16Zm38-1.46a1,1,0,0,1,.76,1.18,1,1,0,0,1-1,.76,1,1,0,0,1-.24,0A65.33,65.33,0,0,0,85.33,2.76l-2.84.06a1,1,0,1,1-.08-2L85.33.76a67.48,67.48,0,0,1,16.2,1.94Zm34.8,14.63.7,8.12a.5.5,0,0,1-.46.54h-.07l-8.14-.66a.49.49,0,0,1-.46-.52h0a.55.55,0,0,1,.14-.32l3-3a66.84,66.84,0,0,0-12.7-9.76,1,1,0,0,1,1-1.72A68.81,68.81,0,0,1,132.4,20.07l3-3.06a.51.51,0,0,1,.72,0,.49.49,0,0,1,.14.3Z" style="fill: #a5a5a5"/>
  </g>
</svg>
