<svg xmlns="http://www.w3.org/2000/svg" width="176" height="106"><g fill-rule="nonzero"><path d="M174 85.55a2 2 0 0 1 2 2v6a2 2 0 0 1-2 2v6a4 4 0 0 1-4 4h-38a4 4 0 0 1-4-4v-26a5 5 0 0 1 5-5h32a3 3 0 0 1 3 3v2h2a4 4 0 0 1 4 4v6zm-2 16v-6h-8a2 2 0 0 1-2-2v-6a2 2 0 0 1 2-2h8v-6a2 2 0 0 0-2-2h-35.5a3.52 3.52 0 0 1-3.32-4.63 2.5 2.5 0 0 0-1.18 2.13v26.5a2 2 0 0 0 2 2h38a2 2 0 0 0 2-2zm-37.5-29a1.5 1.5 0 1 0 0 3H166v-2a1 1 0 0 0-1-1h-30.5zm39.5 21v-6h-10v6h10zm-23.06 1.1c-5.65.7-8.25-4.2-7.8-4.67a1.66 1.66 0 0 1 1.19-.34c1.9-.05 4.56 2.12 5.1 2.1 1.05 0 2.63-1.67 3.67-3 .43-.56 3.14-1.42 2.84.07-.95 4.8-4.3 5.74-5 5.83v.01zM143 85.43c5.65-.7 8.25 4.2 7.8 4.67a1.64 1.64 0 0 1-1.19.35c-1.9 0-4.56-2.12-5.1-2.1-1.05 0-2.63 1.66-3.67 3-.43.57-3.14 1.42-2.84-.06 1-4.82 4.3-5.76 5-5.85v-.01zm.65-51.8h.01a39.37 39.37 0 0 1 8.04 19.89h4.47a.5.5 0 0 1 .38.82l-5.3 6.22a.49.49 0 0 1-.76 0l-5.3-6.22a.5.5 0 0 1 .38-.82h4.1a37.25 37.25 0 0 0-7.61-18.66.99.99 0 0 1 .18-1.4c.44-.33 1.07-.26 1.4.18zM125.17 19.1a1 1 0 0 1 .46 1.34 1 1 0 0 1-1.34.45 84.88 84.88 0 0 0-26.76-7.61 1 1 0 0 1 .24-1.99 86.86 86.86 0 0 1 27.4 7.81zm-52.4-7.82a1 1 0 0 1 1.13.84 1 1 0 0 1-.85 1.12 67.6 67.6 0 0 0-26.1 9.09 1 1 0 0 1-1.38-.33 1 1 0 0 1 .33-1.35 69.42 69.42 0 0 1 26.87-9.37zM29.36 39a1 1 0 0 1 .46 1.35 43.25 43.25 0 0 0-4.81 20.18 1 1 0 1 1-2 0 45.12 45.12 0 0 1 5-21.1 1 1 0 0 1 1.35-.43zm21.37-5.86h-.01c.27.06.37.46.35.66s-.26.33-.36.5a3.31 3.31 0 0 1-1.63 1.6c-12.7 4.26-18.85-6.85-16.35-12.37 1.35-3 3.52-2.44 3.72-4.7a1.75 1.75 0 0 0-.18-.81c-.08-.18-.1-.2.47-.43s.96.4 1.4.4c.14.01.32-.04.4.24.2.72-.24.74-.4 1.12-2.34 5.9.93 12.77 10.28 13a6.71 6.71 0 0 1 2.31.79zM93.6 19l.01-.01a6.51 6.51 0 0 1 1.74 1.7c.17.16.1.6 0 .78s-.4.2-.54.3a3.35 3.35 0 0 1-2.18.72c-13.25-1.75-13.9-14.43-9.25-18.3 2.52-2.1 4.24-.6 5.4-2.6a1.58 1.58 0 0 0 .19-.8c0-.18-.02-.26.6-.18s.72.78 1.1 1c.1.1.25.1.25.4-.13.74-.55.56-.85.84C85.4 7.07 85.3 14.7 93.6 19zm40.3 21.16l.02.01a3.35 3.35 0 0 1-2.02-1.19c-7.22-11.25 2-19.9 8-18.9 3.23.57 3.24 2.82 5.48 2.45a1.71 1.71 0 0 0 .73-.38c.16-.12.2-.1.54.35s-.1 1.02-.05 1.45c.03.14.12.3-.13.44-.64.38-.8-.1-1.2-.1-6.23-.84-12.1 4.04-10 13.16a6.53 6.53 0 0 1-.2 2.43c0 .24-.4.46-.6.5s-.4-.22-.57-.22z" fill="#FBDD11"/><path d="M42 73.55H4a4 4 0 0 0-4 4v24a4 4 0 0 0 4 4h38a4 4 0 0 0 4-4v-24a4 4 0 0 0-4-4zm2 28a2 2 0 0 1-2 2H4a2 2 0 0 1-2-2v-24a2 2 0 0 1 2-2h38a2 2 0 0 1 2 2v24zm-20.03-18h2v2h-2v-2zm11.8-3H31v8h8v-4.8a3.2 3.2 0 0 0-3.23-3.2zm2.2 7H32v-6h3.8a2.19 2.19 0 0 1 2.19 2.2l-.02 3.8zm-14 6h2v2h-2v-2zM21 83.75v4.8h8v-8h-4.83a3.2 3.2 0 0 0-3.17 3.2zm7 3.8h-6v-3.8a2.2 2.2 0 0 1 2.21-2.2H28v6zm-7 7.8a3.2 3.2 0 0 0 3.2 3.2H29v-8h-8v4.8zm1-3.8h6v6h-3.83a2.21 2.21 0 0 1-2.17-2.2v-3.8zm14.96 0h1v1h1v-2h-2v1zm1.04 3.8a2.2 2.2 0 0 1-2.19 2.2H34v1h1.8a3.21 3.21 0 0 0 3.2-3.2v-.8h-1v.8zm-4.04-11.8h2v2h-2v-2zm0 10h2v2h-2v-2zm-3 2h1v3h-1v-3zm4.5-5h-4.5v3h1v-2h3.5v-1z" fill="#6F6F6F"/></g></svg>