<svg id="Layer_1" data-name="Layer 1" xmlns="http://www.w3.org/2000/svg" viewBox="0 0 176 104">
  <title>Artboard 2</title>
  <g>
    <g>
      <path d="M42,71.55H4a4,4,0,0,0-4,4v24a4,4,0,0,0,4,4H42a4,4,0,0,0,4-4v-24A4,4,0,0,0,42,71.55Zm2,28a2,2,0,0,1-2,2H4a2,2,0,0,1-2-2v-24a2,2,0,0,1,2-2H42a2,2,0,0,1,2,2Zm-20-18h2v2H24Zm11.8-3H31v8h8v-4.8a3.2,3.2,0,0,0-3.2-3.2Zm2.2,7H32v-6h3.8A2.19,2.19,0,0,1,38,81.74h0Zm-14,6h2v2H24Zm-3-9.8v4.8h8v-8H24.17A3.2,3.2,0,0,0,21,81.75Zm7,3.8H22v-3.8a2.19,2.19,0,0,1,2.2-2.2H28Zm-7,7.8a3.2,3.2,0,0,0,3.2,3.2H29v-8H21Zm1-3.8h6v6H24.17A2.21,2.21,0,0,1,22,93.35Zm15,0h1v1h1v-2H37Zm1,3.8a2.2,2.2,0,0,1-2.19,2.2H34v1h1.8a3.21,3.21,0,0,0,3.2-3.2v-.8H38Zm-4-11.8h2v2H34Zm0,10h2v2H34Zm-3,2h1v3H31Zm4.5-5H31v3h1v-2h3.5Z" style="fill: #a5a5a5"/>
      <path d="M156.52,84.05h0a.46.46,0,0,1,.45.44v1.78a.44.44,0,0,1-.44.44h-1.71l-.57.57V89a.41.41,0,0,1-.14.31.44.44,0,0,1-.31.13h-1.7l-.57.57v1.6a.46.46,0,0,1-.46.45h-1.8a.48.48,0,0,1-.32-.13.43.43,0,0,1-.14-.32V90.18l-.9-.74h-1.75l-.58.57v1.6a.45.45,0,0,1-.45.45h-1.8a.45.45,0,0,1-.45-.45V89.84a.45.45,0,0,1,.45-.45H145l.57-.57V87.46l-.9-.74H143l-.58.57V89a.46.46,0,0,1-.45.44h-1.68l-.58.57v1.6a.44.44,0,0,1-.43.45h-1.82a.45.45,0,0,1-.45-.45V89.84a.45.45,0,0,1,.45-.45h1.68l.58-.56V87.17a.45.45,0,0,1,.45-.45h1.7l.57-.56V84.5a.46.46,0,0,1,.45-.44h1.8a.46.46,0,0,1,.45.44V86l.9.74h1.76l.57-.56V84.5a.41.41,0,0,1,.14-.31.42.42,0,0,1,.32-.13h1.8a.4.4,0,0,1,.31.13.41.41,0,0,1,.14.31v1.77a.41.41,0,0,1-.14.31.4.4,0,0,1-.31.13h-1.7l-.57.57v1.36l.9.74H151l.58-.56V87.16a.45.45,0,0,1,.45-.45h1.7l.58-.56V84.5a.46.46,0,0,1,.45-.44h1.79Zm17.48-.5a2,2,0,0,1,2,2v6a2,2,0,0,1-2,2v6a4,4,0,0,1-4,4H132a4,4,0,0,1-4-4v-26a5,5,0,0,1,5-5h32a3,3,0,0,1,3,3v2h2a4,4,0,0,1,4,4Zm-39.5-13a1.5,1.5,0,0,0,0,3H166v-2a1,1,0,0,0-1-1Zm37.5,29v-6h-8a2,2,0,0,1-2-2v-6a2,2,0,0,1,2-2h8v-6a2,2,0,0,0-2-2H134.5A3.53,3.53,0,0,1,131,72a3.37,3.37,0,0,1,.18-1.09A2.49,2.49,0,0,0,130,73.05v26.5a2,2,0,0,0,2,2h38A2,2,0,0,0,172,99.55Zm2-8v-6H164v6Z" style="fill: #a3cdff"/>
    </g>
    <path d="M36,19.86l8.07,4a2,2,0,0,1,.9,2.68l-4,8.06a2,2,0,0,1-2.69.9h0l-8.06-4a2,2,0,0,1-.9-2.69h0l4-8.06a2,2,0,0,1,2.68-.9ZM86.87,1.49l6.37,6.37a2,2,0,0,1,0,2.83l-6.37,6.37a2,2,0,0,1-2.83,0l-6.37-6.37a2,2,0,0,1,0-2.83L84,1.49A2,2,0,0,1,86.87,1.49Zm50.07,15.63,5.57,7.08a2,2,0,0,1-.33,2.81l-7.08,5.57a2,2,0,0,1-2.81-.34l-5.57-7.08a2,2,0,0,1,.33-2.81l7.09-5.57A2,2,0,0,1,136.94,17.12Zm19.22,34.4h0a.49.49,0,0,1,.53.46.52.52,0,0,1-.13.38l-5.3,6.22a.49.49,0,0,1-.69.07.23.23,0,0,1-.07-.07l-5.3-6.22a.49.49,0,0,1,.06-.7.47.47,0,0,1,.32-.12h4.07a37.19,37.19,0,0,0-6-16.43A1,1,0,1,1,145.33,34a39.18,39.18,0,0,1,6.33,17.52Zm-33.8-35.74v.05a1,1,0,0,1-.4,1.91.92.92,0,0,1-.4-.08,84.27,84.27,0,0,0-20.7-5.88,1,1,0,0,1-.79-.64,1,1,0,0,1,.16-1,1,1,0,0,1,1-.36A85.69,85.69,0,0,1,122.36,15.78ZM70,9.73l0,0a1,1,0,0,1,.35,2,66.94,66.94,0,0,0-20.82,7.18,1,1,0,0,1-1.36-.39,1.17,1.17,0,0,1-.1-.26,1,1,0,0,1,.54-1.13A69.13,69.13,0,0,1,70,9.73ZM27.92,39.9h0a1,1,0,0,1,.57,1.29v0A43.7,43.7,0,0,0,25,58.57a1,1,0,0,1-2,0,45.58,45.58,0,0,1,3.61-18.14A1,1,0,0,1,27.92,39.9Z" style="fill: #a3cdff"/>
  </g>
</svg>
