<svg id="Layer_1" data-name="Layer 1" xmlns="http://www.w3.org/2000/svg" viewBox="0 0 176 104"><title>Artboard 1</title><path d="M174,83.55v-6a4,4,0,0,0-4-4h-2v-2a3,3,0,0,0-3-3H133a5,5,0,0,0-5,5v26a4,4,0,0,0,4,4h38a4,4,0,0,0,4-4v-6a2,2,0,0,0,2-2v-6A2,2,0,0,0,174,83.55Zm-39.5-13H165a1,1,0,0,1,1,1v2H134.5a1.5,1.5,0,0,1,0-3Zm37.5,29a2,2,0,0,1-2,2H132a2,2,0,0,1-2-2V73.05a2.49,2.49,0,0,1,1.18-2.14A3.37,3.37,0,0,0,131,72a3.53,3.53,0,0,0,3.5,3.55H170a2,2,0,0,1,2,2v6h-8a2,2,0,0,0-2,2v6a2,2,0,0,0,2,2h8Zm2-8H164v-6h10Z" style="fill:#a3cdff"/><path d="M156.52,84.05h-1.76a.47.47,0,0,0-.45.44v1.65l-.58.56H152a.45.45,0,0,0-.45.45v1.66l-.58.56h-1.74l-.9-.74V87.28l.57-.57h1.7a.4.4,0,0,0,.31-.13.41.41,0,0,0,.14-.31V84.5a.41.41,0,0,0-.14-.31.4.4,0,0,0-.31-.13h-1.8a.42.42,0,0,0-.32.13.41.41,0,0,0-.14.31v1.68l-.57.56H146l-.9-.74V84.5a.47.47,0,0,0-.45-.44h-1.8a.47.47,0,0,0-.45.44v1.66l-.57.56h-1.7a.45.45,0,0,0-.45.45v1.66l-.58.56h-1.68a.45.45,0,0,0-.45.45v1.77a.45.45,0,0,0,.45.45h1.82a.44.44,0,0,0,.43-.45V90l.58-.57H142a.47.47,0,0,0,.45-.44V87.29l.58-.57h1.67l.9.74v1.36l-.57.57h-1.67a.45.45,0,0,0-.45.45v1.77a.45.45,0,0,0,.45.45h1.8a.45.45,0,0,0,.45-.45V90l.58-.57h1.75l.9.74v1.43a.43.43,0,0,0,.14.32.48.48,0,0,0,.32.13h1.8a.46.46,0,0,0,.46-.45V90l.57-.57h1.7a.44.44,0,0,0,.31-.13.41.41,0,0,0,.14-.31V87.28l.57-.57h1.71a.44.44,0,0,0,.44-.44V84.49A.47.47,0,0,0,156.52,84.05Z" style="fill:#a3cdff"/><path d="M132.29,32.24a2,2,0,0,0,2.81.34L142.18,27h0a2,2,0,0,0,.33-2.81l-5.57-7.08a2,2,0,0,0-2.8-.34l-7.09,5.57h0a2,2,0,0,0-.33,2.81l5.57,7.08Z" style="fill:#a3cdff"/><path d="M44.07,23.86l-8.07-4h0a2,2,0,0,0-2.68.9l-4,8.06h0a2,2,0,0,0,.91,2.68l8.06,4h0A2,2,0,0,0,41,34.6l4-8.06A2,2,0,0,0,44.07,23.86Z" style="fill:#a3cdff"/><path d="M149.65,51.54h-4.07a.47.47,0,0,0-.32.12h0a.48.48,0,0,0-.05.69l5.3,6.22a.23.23,0,0,0,.07.07h0a.49.49,0,0,0,.69-.07l5.3-6.22a.52.52,0,0,0,.13-.38h0a.49.49,0,0,0-.53-.45h-4.5A39.18,39.18,0,0,0,145.33,34a1,1,0,0,0-1.4-.28,1,1,0,0,0-.28,1.39A37.19,37.19,0,0,1,149.65,51.54Z" style="fill:#a3cdff"/><path d="M27.92,39.9a1,1,0,0,0-1.31.53A45.58,45.58,0,0,0,23,58.57a1,1,0,0,0,2,0,43.6,43.6,0,0,1,3.49-17.38A1,1,0,0,0,27.92,39.9Z" style="fill:#a3cdff"/><path d="M122.36,15.83v-.05a85.88,85.88,0,0,0-21.13-6,1,1,0,0,0-1.16,1.36,1,1,0,0,0,.79.64,84.27,84.27,0,0,1,20.7,5.88.92.92,0,0,0,.4.08,1,1,0,0,0,.4-1.91Z" style="fill:#a3cdff"/><path d="M70,9.73a68.91,68.91,0,0,0-21.39,7.4,1,1,0,0,0-.54,1.13,1.17,1.17,0,0,0,.1.26h0a1,1,0,0,0,1.36.39,66.94,66.94,0,0,1,20.82-7.18,1,1,0,0,0-.35-2Z" style="fill:#a3cdff"/><path d="M86.87,1.49l0,0a2,2,0,0,0-2.83,0L77.67,7.86h0a2,2,0,0,0,0,2.83L84,17.06h0a2,2,0,0,0,2.83,0l6.37-6.37h0a2,2,0,0,0,0-2.83Z" style="fill:#a3cdff"/></svg>